<?xml version="1.0" standalone="no"?>
<!DOCTYPE svg PUBLIC "-//W3C//DTD SVG 1.1//EN" "http://www.w3.org/Graphics/SVG/1.1/DTD/svg11.dtd" >
<svg xmlns="http://www.w3.org/2000/svg" xmlns:xlink="http://www.w3.org/1999/xlink" version="1.1">
<metadata>
Created by FontForge 20170812 at Wed Mar 14 23:43:12 2018
 By www-data
Copyright (c) 2018 by Fontfabric. All rights reserved.
</metadata>
<defs>
<font id="Gilam-SemiBold" horiz-adv-x="1183" >
  <font-face 
    font-family="Gilam SemiBold"
    font-weight="600"
    font-stretch="normal"
    units-per-em="2048"
    panose-1="0 0 7 0 0 0 0 0 0 0"
    ascent="1638"
    descent="-410"
    x-height="1044"
    cap-height="1434"
    bbox="-791 -618 2394 2228"
    underline-thickness="0"
    underline-position="0"
    unicode-range="U+0020-25CA"
  />
<missing-glyph horiz-adv-x="1024" 
d="M840 1577v-2048h-650v2048h650zM682 1440h-338v-68h133v-76h-135v-67h340v67h-135v76h135v68zM547 1176h-205v-213h340v69h-135v144zM477 1106v-74h-67v74h67zM682 907h-340v-67h135v-76h-135v-68h205v144h135v67zM682 784h-68v-135h-272v-69h340v204zM682 535h-205v-115
h70v47h67v-96h-204v164h-68v-232h340v232zM682 180h-340v-231h340v231zM614 113v-97h-204v97h204zM682 -98h-340v-68h143l-143 -96v-68h340v68h-209l143 96h66v68z" />
    <glyph glyph-name="f_f.liga" unicode="ff" horiz-adv-x="1480" 
d="M1163 1047v-3h291v-213h-291v-831h-258v831h-436v-831h-258v831h-164v213h164v3q0 408 373 407q94 0 176 -31l14 -225q-63 39 -153 39q-76 0 -114 -44t-38 -146v-3h436v3q0 408 381 407q96 0 189 -31l14 -225q-63 39 -168 39q-82 0 -120 -43t-38 -147z" />
    <glyph glyph-name="f_i.liga" unicode="fi" horiz-adv-x="1302" 
d="M469 1047v-3h694v-1044h-258v831h-436v-831h-258v831h-164v213h164v3q0 408 373 407q94 0 176 -31l14 -225q-57 39 -158 39q-76 0 -111.5 -43t-35.5 -147zM905 1432h258v-242h-258v242z" />
    <glyph glyph-name="f_j.liga" unicode="fj" horiz-adv-x="1302" 
d="M469 1047v-3h694v-1001q0 -229 -97 -341t-275 -112q-88 0 -158 33l-39 238q72 -43 151.5 -43t119.5 52t40 173v788h-436v-831h-258v831h-164v213h164v3q0 408 373 407q94 0 176 -31l14 -225q-57 39 -158 39q-76 0 -111.5 -43t-35.5 -147zM905 1432h258v-242h-258v242z
" />
    <glyph glyph-name=".notdef" horiz-adv-x="1024" 
d="M840 1577v-2048h-650v2048h650zM682 1440h-338v-68h133v-76h-135v-67h340v67h-135v76h135v68zM547 1176h-205v-213h340v69h-135v144zM477 1106v-74h-67v74h67zM682 907h-340v-67h135v-76h-135v-68h205v144h135v67zM682 784h-68v-135h-272v-69h340v204zM682 535h-205v-115
h70v47h67v-96h-204v164h-68v-232h340v232zM682 180h-340v-231h340v231zM614 113v-97h-204v97h204zM682 -98h-340v-68h143l-143 -96v-68h340v68h-209l143 96h66v68z" />
    <glyph glyph-name="glyph1" horiz-adv-x="0" 
 />
    <glyph glyph-name="glyph2" horiz-adv-x="681" 
 />
    <glyph glyph-name="space" unicode=" " horiz-adv-x="456" 
 />
    <glyph glyph-name="exclam" unicode="!" horiz-adv-x="573" 
d="M197 469l-62 965h303l-61 -965h-180zM135 0v295h303v-295h-303z" />
    <glyph glyph-name="quotedbl" unicode="&#x22;" horiz-adv-x="854" 
d="M162 950l-88 566h313l-84 -566h-141zM553 950l-88 566h313l-84 -566h-141z" />
    <glyph glyph-name="numbersign" unicode="#" horiz-adv-x="1267" 
d="M1204 891h-227l-62 -348h197v-172h-225l-64 -371h-196l63 371h-233l-64 -371h-196l63 371h-199v172h228l61 348h-196v172h225l63 371h197l-64 -371h234l63 371h197l-63 -371h198v-172zM719 543l61 348h-233l-62 -348h234z" />
    <glyph glyph-name="dollar" unicode="$" horiz-adv-x="1144" 
d="M1081 403q0 -178 -108.5 -291.5t-310.5 -136.5v-180h-222v180q-82 6 -159.5 23.5t-112.5 30.5l-37 12l-39 266q223 -92 457 -92q119 0 184.5 48t65.5 134q0 72 -49.5 115t-165.5 74l-164 43q-334 90 -334 420q0 160 92 267t262 138v172h222v-162q90 -6 171.5 -21.5
t118.5 -27.5l37 -12l15 -258q-174 76 -408 76q-111 0 -170 -44t-59 -120q0 -72 46 -116t154 -73l172 -45q166 -43 254 -143.5t88 -276.5z" />
    <glyph glyph-name="percent" unicode="%" horiz-adv-x="1679" 
d="M393 733q-332 0 -332 367q0 365 332 364q334 0 334 -364q0 -367 -334 -367zM236 0l970 1434h232l-971 -1434h-231zM393 922q131 0 131 178q0 94 -31.5 136t-99.5 42q-66 0 -96.5 -42t-30.5 -136q0 -178 127 -178zM1284 -20q-332 0 -332 366q0 365 332 365q334 0 334 -365
q0 -366 -334 -366zM1284 168q129 0 129 178q0 94 -30.5 136t-98.5 42q-66 0 -96.5 -42t-30.5 -136q0 -178 127 -178z" />
    <glyph glyph-name="ampersand" unicode="&#x26;" horiz-adv-x="1388" 
d="M1391 0h-310l-110 115q-178 -135 -412 -135q-233 0 -356 105t-123 294q0 131 65.5 218t198.5 173q-92 100 -131 177t-39 183q0 141 106.5 232.5t288.5 91.5q180 0 289 -90t109 -234q0 -129 -64.5 -212.5t-212.5 -176.5l262 -278q76 150 76 328h252q0 -295 -152 -512z
M569 1264q-70 0 -106.5 -38t-36.5 -104q0 -55 28.5 -106t92.5 -121q94 61 130 112.5t36 114.5t-39 102.5t-105 39.5zM565 197q135 0 244 88l-317 331q-78 -55 -113 -106t-35 -119q0 -88 57.5 -141t163.5 -53z" />
    <glyph glyph-name="quotesingle" unicode="'" horiz-adv-x="462" 
d="M162 950l-88 566h313l-84 -566h-141z" />
    <glyph glyph-name="parenleft" unicode="(" horiz-adv-x="659" 
d="M430 -420q-14 14 -37.5 41t-84 120t-107.5 194.5t-85 261t-38 325.5t36 324t88 265.5t104 190t87 123.5l37 39l219 -41q-12 -14 -34.5 -38.5t-78 -112.5t-97.5 -185.5t-76.5 -251t-34.5 -313.5t32.5 -312.5t79.5 -253.5t95.5 -181t80.5 -117l33 -37z" />
    <glyph glyph-name="parenright" unicode=")" horiz-adv-x="659" 
d="M229 -420l-219 41q12 14 35 39t78 113t97 185t77 250.5t35 313.5t-33 312.5t-80 254t-95 181.5t-81 116l-33 37l219 41q14 -14 38 -40.5t84.5 -120t107.5 -194.5t85 -261t38 -326t-36 -323.5t-88 -265t-104.5 -190.5t-87.5 -124z" />
    <glyph glyph-name="asterisk" unicode="*" horiz-adv-x="747" 
d="M281 858l-160 111l172 149l-219 33l67 180l185 -119l-50 222h195l-49 -222l184 119l68 -180l-219 -33l172 -149l-160 -111l-92 207z" />
    <glyph glyph-name="plus" unicode="+" horiz-adv-x="1126" 
d="M1059 817v-221h-385v-385h-221v385h-385v221h385v385h221v-385h385z" />
    <glyph glyph-name="comma" unicode="," horiz-adv-x="552" 
d="M82 -270l53 565h314l-224 -565h-143z" />
    <glyph glyph-name="hyphen" unicode="-" horiz-adv-x="778" 
d="M119 479v221h540v-221h-540z" />
    <glyph glyph-name="period" unicode="." horiz-adv-x="544" 
d="M121 0v295h303v-295h-303z" />
    <glyph glyph-name="slash" unicode="/" horiz-adv-x="892" 
d="M279 -184h-238l573 1802h238z" />
    <glyph glyph-name="zero" unicode="0" horiz-adv-x="1249" 
d="M625 -31q-281 0 -404 175t-123 572.5t123 572.5t404 175q279 0 401.5 -175t122.5 -572.5t-122.5 -572.5t-401.5 -175zM624.5 209q143.5 0 196.5 107.5t53 400.5t-53 400.5t-196.5 107.5t-197.5 -107.5t-54 -400.5t54 -400.5t197.5 -107.5z" />
    <glyph glyph-name="one" unicode="1" horiz-adv-x="753" 
d="M41 1251l547 213v-1464h-269v1110l-278 -111v252z" />
    <glyph glyph-name="two" unicode="2" horiz-adv-x="1093" 
d="M434 244h561v-244h-923v201l415 415q135 135 180.5 221.5t45.5 182.5q0 92 -57.5 147.5t-176.5 55.5q-100 0 -205.5 -31t-171.5 -68l17 248q170 92 395 92q227 0 352 -113.5t125 -306.5q0 -152 -73.5 -282.5t-282.5 -329.5z" />
    <glyph glyph-name="three" unicode="3" horiz-adv-x="1112" 
d="M1020 383q2 -201 -127 -306.5t-369 -105.5q-115 0 -217 17.5t-147 36.5l-45 18l-41 246q18 -8 51 -21.5t137.5 -35t208.5 -21.5q274 0 270 195q0 100 -52 151t-169 51h-258v232h238q111 0 159 50t48 148q0 190 -246 191q-96 0 -185.5 -22.5t-130.5 -45.5l-41 -22l17 247
q16 8 48 21.5t138.5 35t220.5 21.5q221 0 338 -99t117 -294q0 -246 -178 -332q213 -80 215 -356z" />
    <glyph glyph-name="four" unicode="4" horiz-adv-x="1175" 
d="M1151 500l-41 -236h-154v-264h-262v264h-655v201l493 969h287l-477 -934h352v311h262v-311h195z" />
    <glyph glyph-name="five" unicode="5" horiz-adv-x="1140" 
d="M590 905q205 0 339 -117.5t134 -338.5q0 -233 -143.5 -356.5t-419.5 -123.5q-111 0 -215.5 21.5t-163.5 48.5l-41 262q70 -35 174 -62.5t207 -27.5q317 0 317 233q0 231 -303 232q-184 0 -356 -60l65 818h838l-39 -244h-555l-25 -309q91 24 187 24z" />
    <glyph glyph-name="six" unicode="6" horiz-adv-x="1196" 
d="M690 928q193 0 318 -121t125 -350q0 -219 -132.5 -351.5t-359.5 -132.5q-266 0 -406.5 169t-140.5 513q0 401 170 603t473 202q63 0 125 -11t92 -22l31 -10l16 -252q-96 57 -239 58q-336 0 -387 -406q122 111 315 111zM641 213q102 0 159.5 63.5t57.5 180.5
q0 113 -58.5 174t-166.5 61q-154 0 -268 -86q16 -393 276 -393z" />
    <glyph glyph-name="seven" unicode="7" horiz-adv-x="987" 
d="M27 1434h923v-201l-442 -1233h-283l439 1192h-637v242z" />
    <glyph glyph-name="eight" unicode="8" horiz-adv-x="1243" 
d="M872 748q147 -68 214 -153t67 -230q0 -186 -141.5 -291t-388.5 -105q-254 0 -394.5 101.5t-140.5 281.5q0 131 77 224.5t200 142.5q-123 61 -180.5 144t-57.5 216q0 182 131 283.5t364.5 101.5t362.5 -98t129 -272q0 -121 -66.5 -209t-175.5 -137zM618 1237
q-100 0 -160.5 -44t-60.5 -118q0 -72 43 -116t154 -91l82 -37q162 84 162 230q0 78 -61 127t-159 49zM621 201q109 0 175 49t66 125q0 78 -44 122t-163 95l-94 39q-184 -82 -184 -242q0 -84 66.5 -136t177.5 -52z" />
    <glyph glyph-name="nine" unicode="9" horiz-adv-x="1196" 
d="M557 1464q264 0 404.5 -171t140.5 -515q0 -401 -170 -605t-473 -204q-131 0 -236 35l-37 260q100 -57 248 -57q336 0 387 407q-121 -109 -315 -108q-193 0 -318 121t-125 350q0 219 132.5 353t361.5 134zM338 977q0 -111 59.5 -173.5t167.5 -62.5q152 0 266 86
q-16 397 -274 398q-102 0 -160.5 -65.5t-58.5 -182.5z" />
    <glyph glyph-name="colon" unicode=":" horiz-adv-x="540" 
d="M119 711v295h303v-295h-303zM119 0v295h303v-295h-303z" />
    <glyph glyph-name="semicolon" unicode=";" horiz-adv-x="598" 
d="M164 748v294h303v-294h-303zM102 -270l54 565h313l-223 -565h-144z" />
    <glyph glyph-name="less" unicode="&#x3c;" horiz-adv-x="1038" 
d="M918 1202v-248l-549 -237l549 -238v-248l-832 363v246z" />
    <glyph glyph-name="equal" unicode="=" horiz-adv-x="1241" 
d="M125 821v221h991v-221h-991zM125 371v221h991v-221h-991z" />
    <glyph glyph-name="greater" unicode="&#x3e;" horiz-adv-x="1038" 
d="M121 1202l831 -362v-246l-831 -363v248l549 238l-549 237v248z" />
    <glyph glyph-name="question" unicode="?" horiz-adv-x="970" 
d="M317 469q0 80 31 149.5t75 121t89 99.5t75.5 105t30.5 119q0 160 -194 160q-188 0 -367 -97l45 258q141 80 340 80q219 0 337 -97t118 -286q0 -86 -33 -159.5t-80 -123.5t-93 -98.5t-78.5 -106.5t-32.5 -124h-263zM301 0v295h301v-295h-301z" />
    <glyph glyph-name="at" unicode="@" horiz-adv-x="1613" 
d="M840 1464q313 0 518 -187t205 -480q0 -201 -91.5 -338t-250.5 -137q-152 0 -197 112q-78 -111 -268 -110q-135 0 -206 69.5t-71 192.5q0 115 75 176t206 61h215v17q-2 76 -43 108.5t-133 32.5q-57 0 -121 -9t-100 -18l-35 -8l30 158q104 33 254 33q324 0 324 -306v-260
q0 -94 74 -94q82 0 128 90t46 228q0 225 -153.5 371.5t-405.5 146.5q-260 0 -430 -166t-170 -426q0 -264 170 -430t440 -166q180 0 342 55v-160q-145 -47 -342 -47q-340 0 -557 213t-217 532.5t218 532.5t546 213zM975 647v43h-201q-119 0 -119 -102q0 -111 127 -111
q193 0 193 170z" />
    <glyph glyph-name="A" unicode="A" horiz-adv-x="1357" 
d="M1055 0l-105 301h-553l-104 -301h-285l535 1434h270l537 -1434h-295zM477 539h393l-196 569z" />
    <glyph glyph-name="B" unicode="B" horiz-adv-x="1347" 
d="M166 0v1434h565q483 0 483 -392q0 -213 -157 -303q193 -88 196 -331q2 -205 -121.5 -306.5t-377.5 -101.5h-588zM444 838h287q104 0 154.5 42t50.5 136t-50 137t-155 43h-287v-358zM444 238h310q113 0 167 44t54 144q0 96 -54.5 139t-166.5 43h-310v-370z" />
    <glyph glyph-name="C" unicode="C" horiz-adv-x="1159" 
d="M707 -31q-309 0 -461 182.5t-152 565.5t151.5 565t461.5 182q190 0 337 -71l15 -254q-150 80 -332 80q-184 0 -267 -115t-83 -387.5t83 -387t267 -114.5q190 0 360 90l-38 -266q-143 -70 -342 -70z" />
    <glyph glyph-name="D" unicode="D" horiz-adv-x="1359" 
d="M166 0v1434h516q301 0 441.5 -167t140.5 -550t-140.5 -550t-441.5 -167h-516zM444 246h238q160 0 230.5 100t70.5 370.5t-70.5 371t-230.5 100.5h-238v-942z" />
    <glyph glyph-name="E" unicode="E" horiz-adv-x="1239" 
d="M166 0v1434h952l15 -246h-689v-342h611v-246h-611v-354h711l-39 -246h-950z" />
    <glyph glyph-name="F" unicode="F" horiz-adv-x="1202" 
d="M166 0v1434h956l15 -246h-693v-352h611v-246h-611v-590h-278z" />
    <glyph glyph-name="G" unicode="G" horiz-adv-x="1273" 
d="M737 -31q-328 0 -486.5 182.5t-158.5 565.5t159 565t486 182q225 0 369 -69l14 -256q-164 80 -383 80q-190 0 -276 -115t-86 -387.5t86 -387t276 -114.5q76 0 146 14v547h276v-727q-178 -80 -422 -80z" />
    <glyph glyph-name="H" unicode="H" horiz-adv-x="1402" 
d="M961 1434h276v-1434h-276v598h-517v-598h-278v1434h278v-586h517v586z" />
    <glyph glyph-name="I" unicode="I" horiz-adv-x="610" 
d="M166 0v1434h278v-1434h-278z" />
    <glyph glyph-name="J" unicode="J" horiz-adv-x="1054" 
d="M367 -31q-178 0 -295 51l-41 263q143 -59 317 -60q141 0 208 77t67 253v881h278v-881q1 -584 -534 -584z" />
    <glyph glyph-name="K" unicode="K" horiz-adv-x="1329" 
d="M1001 0l-413 604h-144v-604h-278v1434h278v-592h144l389 592h313l-469 -699l502 -735h-322z" />
    <glyph glyph-name="L" unicode="L" horiz-adv-x="1144" 
d="M166 0v1434h278v-1184h670l-39 -250h-909z" />
    <glyph glyph-name="M" unicode="M" horiz-adv-x="1701" 
d="M1305 1434h231v-1434h-264v975l-422 -606l-426 606v-975h-258v1434h233l453 -652z" />
    <glyph glyph-name="N" unicode="N" horiz-adv-x="1441" 
d="M1018 1434h258v-1434h-238l-612 954v-954h-260v1434h240l612 -953v953z" />
    <glyph glyph-name="O" unicode="O" horiz-adv-x="1357" 
d="M680 -31q-301 0 -442.5 175t-141.5 572.5t141.5 572.5t442.5 175q299 0 440.5 -175t141.5 -572.5t-141.5 -572.5t-440.5 -175zM680 215q158 0 229.5 107.5t71.5 394.5q0 197 -35 308.5t-97.5 152.5t-169 41t-168.5 -41t-97 -153t-35 -308q0 -287 71.5 -394.5
t229.5 -107.5z" />
    <glyph glyph-name="P" unicode="P" horiz-adv-x="1296" 
d="M166 0v1434h553q260 0 391 -120t131 -343q0 -221 -131 -341t-391 -120h-275v-510h-278zM444 748h275q242 0 242 223q0 109 -61.5 167t-180.5 58h-275v-448z" />
    <glyph glyph-name="Q" unicode="Q" horiz-adv-x="1357" 
d="M1165 -313l-428 284q-18 -2 -57 -2q-301 0 -442.5 175t-141.5 572.5t141.5 572.5t442.5 175q299 0 440.5 -175t141.5 -572q0 -500 -236 -660l246 -129zM680 215q158 0 229.5 107.5t71.5 394.5q0 197 -35 308.5t-97.5 152.5t-169 41t-168.5 -41t-97 -153t-35 -308
q0 -287 71.5 -394.5t229.5 -107.5z" />
    <glyph glyph-name="R" unicode="R" horiz-adv-x="1353" 
d="M1294 0h-311l-303 543h-236v-543h-278v1434h545q530 0 530 -451q0 -315 -276 -408zM444 1196v-420h267q127 0 188.5 50.5t61.5 159t-61.5 159.5t-188.5 51h-267z" />
    <glyph glyph-name="S" unicode="S" horiz-adv-x="1224" 
d="M604 -31q-272 0 -473 72l-39 266q248 -92 498 -92q289 0 289 182q0 74 -48.5 114t-162.5 69l-252 63q-330 82 -330 406q0 193 133 304t395 111q274 0 455 -63l12 -254q-211 72 -444 72q-270 0 -270 -162q0 -76 46 -117t160 -70l244 -61q170 -43 257 -137t87 -269
q0 -203 -138 -318.5t-419 -115.5z" />
    <glyph glyph-name="T" unicode="T" horiz-adv-x="1134" 
d="M1098 1434v-250h-391v-1184h-279v1184h-391v250h1061z" />
    <glyph glyph-name="U" unicode="U" horiz-adv-x="1368" 
d="M684 -31q-270 0 -400 132t-130 411v922h276v-922q0 -160 62.5 -228.5t191.5 -68.5q127 0 189.5 68.5t62.5 228.5v922h278v-922q0 -279 -131 -411t-399 -132z" />
    <glyph glyph-name="V" unicode="V" horiz-adv-x="1292" 
d="M985 1434h291l-498 -1434h-262l-500 1434h301l332 -1041z" />
    <glyph glyph-name="W" unicode="W" horiz-adv-x="1849" 
d="M1534 1434h270l-291 -1434h-268l-319 821l-320 -821h-268l-293 1434h277l186 -1020l403 1020h37l400 -1022z" />
    <glyph glyph-name="X" unicode="X" horiz-adv-x="1284" 
d="M1276 0h-328l-307 512l-319 -512h-316l475 733l-442 701h326l282 -467l287 467h313l-442 -691z" />
    <glyph glyph-name="Y" unicode="Y" horiz-adv-x="1265" 
d="M1247 1434l-475 -895v-539h-278v539l-480 895h308l315 -609l311 609h299z" />
    <glyph glyph-name="Z" unicode="Z" horiz-adv-x="1181" 
d="M414 250h692l-41 -250h-987v225l676 959h-650v250h981v-226z" />
    <glyph glyph-name="bracketleft" unicode="[" horiz-adv-x="698" 
d="M160 -410v1864h483v-207h-248v-1450h248v-207h-483z" />
    <glyph glyph-name="backslash" unicode="\" horiz-adv-x="892" 
d="M614 -184l-573 1802h238l573 -1802h-238z" />
    <glyph glyph-name="bracketright" unicode="]" horiz-adv-x="698" 
d="M539 -410h-484v207h248v1450h-248v207h484v-1864z" />
    <glyph glyph-name="asciicircum" unicode="^" horiz-adv-x="1105" 
d="M1038 778h-256l-233 410l-234 -410h-247l399 656h172z" />
    <glyph glyph-name="underscore" unicode="_" horiz-adv-x="819" 
d="M0 -225v174h819v-174h-819z" />
    <glyph glyph-name="grave" unicode="`" horiz-adv-x="581" 
d="M315 1167l-315 301h293l207 -260z" />
    <glyph glyph-name="a" unicode="a" horiz-adv-x="1083" 
d="M414 -20q-168 0 -258 87t-90 240q0 143 94 224t268 81h268v52q0 92 -47 131t-166 39q-172 0 -336 -41l41 231q154 35 342 35q424 0 424 -395v-664h-217l-41 109q-65 -129 -282 -129zM475 182q119 0 170 43t51 154v55h-221q-152 0 -151 -125q-1 -127 151 -127z" />
    <glyph glyph-name="b" unicode="b" horiz-adv-x="1153" 
d="M678 1065q203 0 296 -129t93 -413.5t-93 -413.5t-296 -129q-90 0 -159.5 32.5t-95.5 61t-26 35.5l-41 -109h-217v1413l258 41v-518q0 6 26 34.5t95.5 61.5t159.5 33zM600 205q111 0 158 72.5t47 244.5t-47 245t-158 73t-157 -72t-46 -246t46 -245.5t157 -71.5z" />
    <glyph glyph-name="c" unicode="c" horiz-adv-x="935" 
d="M563 -20q-244 0 -362.5 133t-118.5 409.5t120 409.5t363 133q176 0 269 -53l14 -228q-125 55 -262 56q-127 0 -184.5 -74t-57.5 -244t57.5 -243.5t182.5 -73.5q152 0 293 65l-41 -237q-93 -53 -273 -53z" />
    <glyph glyph-name="d" unicode="d" horiz-adv-x="1155" 
d="M758 1413l258 41v-1454h-219l-39 109v-3q-74 -104 -228 -122q-27 -4 -55 -4q-201 0 -295 129t-94 413.5t94 413.5t295 129q86 0 155.5 -32t93.5 -55.5t34 -39.5v-2v477zM553 205q111 0 158 72.5t47 244.5t-47 245t-158 73t-158 -73t-47 -245t47 -244.5t158 -72.5z" />
    <glyph glyph-name="e" unicode="e" horiz-adv-x="1091" 
d="M618 -20q-283 0 -409.5 136t-126.5 406q0 266 120 404.5t351 138.5q227 0 344 -130t117 -415v-80h-674q4 -119 70.5 -177t214.5 -58q182 0 333 55l-38 -233q-142 -47 -302 -47zM340 616h428q-12 236 -213 236q-199 0 -215 -236z" />
    <glyph glyph-name="f" unicode="f" horiz-adv-x="786" 
d="M211 0v831h-164v213h164v7q0 207 100.5 310t282.5 103q100 0 188 -24l15 -219q-74 27 -170 26q-158 0 -158 -196v-7h291v-213h-291v-831h-258z" />
    <glyph glyph-name="g" unicode="g" horiz-adv-x="1155" 
d="M494 -410q-168 0 -295 50l-39 239q152 -63 313 -63q145 0 214 65.5t71 214.5v13q-43 -43 -76 -62q-86 -47 -207 -47q-201 0 -295 124t-94 398q0 285 94 414t295 129q86 0 155.5 -32t93.5 -55.5t34 -39.5v-2l39 108h219v-931q0 -264 -129 -393.5t-393 -129.5zM553 225
q111 0 158 67.5t47 229.5q0 172 -47 245t-158 73t-158 -73t-47 -245q0 -162 47 -229.5t158 -67.5z" />
    <glyph glyph-name="h" unicode="h" 
d="M684 1065q180 0 275.5 -113.5t95.5 -302.5v-649h-258v588q0 125 -45 186.5t-148 61.5q-111 0 -159 -61.5t-48 -186.5v-588h-258v1413l258 41v-524q103 135 287 135z" />
    <glyph glyph-name="i" unicode="i" horiz-adv-x="536" 
d="M139 1188v244h258v-244h-258zM139 0v1044h258v-1044h-258z" />
    <glyph glyph-name="j" unicode="j" horiz-adv-x="552" 
d="M156 1188v244h258v-244h-258zM41 -410q-88 0 -158 33l-41 238q72 -43 154 -43q80 0 120 52t40 173v1001h258v-1001q0 -229 -97.5 -341t-275.5 -112z" />
    <glyph glyph-name="k" unicode="k" horiz-adv-x="1107" 
d="M788 0l-270 424h-121v-424h-258v1413l258 41v-813h117l262 403h293l-344 -501l369 -543h-306z" />
    <glyph glyph-name="l" unicode="l" horiz-adv-x="536" 
d="M139 0v1413l258 41v-1454h-258z" />
    <glyph glyph-name="m" unicode="m" horiz-adv-x="1804" 
d="M1296 1065q184 0 281.5 -111.5t97.5 -298.5v-655h-258v596q0 119 -43 179.5t-139 60.5q-106 0 -152.5 -60.5t-46.5 -179.5v-596h-258v596q0 121 -42 180.5t-140 59.5q-106 0 -152.5 -59.5t-46.5 -180.5v-596h-258v1044h217l41 -114q94 135 279 135q203 0 291 -152
q124 152 329 152z" />
    <glyph glyph-name="n" unicode="n" 
d="M139 0v1044h217l41 -114q98 135 287 135q180 0 275.5 -113.5t95.5 -304.5v-647h-258v588q0 125 -45 186.5t-148 61.5q-111 0 -159 -61.5t-48 -186.5v-588h-258z" />
    <glyph glyph-name="o" unicode="o" horiz-adv-x="1097" 
d="M549 -20q-242 0 -353.5 130t-111.5 412.5t111.5 412.5t353.5 130t353.5 -130t111.5 -412.5t-111.5 -412.5t-353.5 -130zM548.5 205q110.5 0 157 71.5t46.5 245.5t-46.5 246t-157 72t-156.5 -72t-46 -246t46 -245.5t156.5 -71.5z" />
    <glyph glyph-name="p" unicode="p" horiz-adv-x="1153" 
d="M678 1065q203 0 296 -129t93 -413.5t-93 -413.5t-296 -129q-90 0 -159.5 32.5t-95.5 61t-26 35.5v-476l-258 -41v1452h217l41 -108q0 6 26 34.5t95.5 61.5t159.5 33zM600 205q111 0 158 72.5t47 244.5t-47 245t-158 73t-157 -72t-46 -246t46 -245.5t157 -71.5z" />
    <glyph glyph-name="q" unicode="q" horiz-adv-x="1155" 
d="M797 1044h219v-1411l-258 -41v517v-3q-74 -104 -228 -122q-27 -4 -55 -4q-201 0 -295 129t-94 413.5t94 413.5t295 129q86 0 155.5 -32t93.5 -55.5t34 -39.5v-2zM553 205q111 0 158 72.5t47 244.5t-47 245t-158 73t-158 -73t-47 -245t47 -244.5t158 -72.5z" />
    <glyph glyph-name="r" unicode="r" horiz-adv-x="831" 
d="M139 0v1044h217l41 -112q104 133 262 133q80 0 129 -27l17 -247q-70 49 -184 49q-100 0 -162 -58.5t-62 -173.5v-608h-258z" />
    <glyph glyph-name="s" unicode="s" horiz-adv-x="980" 
d="M467 -20q-199 0 -346 55l-41 235q158 -70 366 -69q215 0 216 100q0 45 -25 66.5t-100 35.5l-166 33q-152 31 -217.5 103.5t-65.5 203.5q0 154 109.5 238t330.5 84q178 0 318 -45l14 -232q-117 53 -303 54q-219 0 -219 -90q0 -41 26.5 -62.5t102.5 -36.5l158 -30
q158 -33 223 -105t65 -211q0 -327 -446 -327z" />
    <glyph glyph-name="t" unicode="t" horiz-adv-x="849" 
d="M618 207q98 0 193 35l-39 -222q-63 -41 -199 -40q-373 0 -372 432v419h-164v213h164v205l258 60v-265h332v-213h-332v-419q0 -113 38.5 -159t120.5 -46z" />
    <glyph glyph-name="u" unicode="u" 
d="M500 -20q-180 0 -275.5 113.5t-95.5 303.5v647h258v-587q0 -125 45 -186.5t148 -61.5q111 0 158.5 61.5t47.5 186.5v587h258v-1044h-217l-41 115q-98 -135 -286 -135z" />
    <glyph glyph-name="v" unicode="v" horiz-adv-x="1054" 
d="M770 1044h268l-381 -1044h-260l-381 1044h277l237 -725z" />
    <glyph glyph-name="w" unicode="w" horiz-adv-x="1533" 
d="M1237 1044h248l-240 -1044h-264l-215 526l-213 -526h-264l-238 1044h254l156 -712l295 710h32l293 -704z" />
    <glyph glyph-name="x" unicode="x" horiz-adv-x="1048" 
d="M1032 0h-297l-215 354l-217 -354h-287l351 537l-326 507h297l192 -319l191 319h285l-322 -499z" />
    <glyph glyph-name="y" unicode="y" horiz-adv-x="1050" 
d="M297 -410q-106 0 -162 35l-41 221q61 -29 137 -28q117 0 158 116l25 68l-402 1042h279l252 -716l221 716h268l-411 -1179q-97 -275 -324 -275z" />
    <glyph glyph-name="z" unicode="z" horiz-adv-x="978" 
d="M393 221h516l-39 -221h-792v195l489 626h-471v223h787v-194z" />
    <glyph glyph-name="braceleft" unicode="{" horiz-adv-x="722" 
d="M457 776q0 -205 -168 -252q168 -49 168 -254v-329q0 -78 31.5 -112t105.5 -34h72v-205h-72q-193 0 -283 84t-90 267v340q0 74 -28.5 104.5t-96.5 30.5h-51v215h51q68 0 96.5 30.5t28.5 104.5v338q0 182 90 266t283 84h72v-205h-72q-74 0 -105.5 -33.5t-31.5 -111.5v-328z
" />
    <glyph glyph-name="bar" unicode="|" horiz-adv-x="526" 
d="M160 -389v2007h207v-2007h-207z" />
    <glyph glyph-name="braceright" unicode="}" horiz-adv-x="722" 
d="M627 631h51v-215h-51q-68 0 -96.5 -31t-28.5 -104v-340q0 -182 -90 -266.5t-283 -84.5h-72v205h72q74 0 105.5 34t31.5 112v329q0 205 168 254q-168 47 -168 252v328q0 78 -31.5 111.5t-105.5 33.5h-72v205h72q193 0 283 -84t90 -266v-338q0 -74 28.5 -104.5t96.5 -30.5z
" />
    <glyph glyph-name="asciitilde" unicode="~" horiz-adv-x="1251" 
d="M889 524q-100 0 -266 70t-197 70q-45 0 -64.5 -30t-19.5 -99h-215q-2 356 250 356q109 0 268.5 -69.5t196.5 -69.5q84 0 84 131h215q0 -359 -252 -359z" />
    <glyph glyph-name="uni00A0" unicode="&#xa0;" horiz-adv-x="456" 
 />
    <glyph glyph-name="exclamdown" unicode="&#xa1;" horiz-adv-x="552" 
d="M125 1044h303v-294h-303v294zM186 575h181l61 -964h-303z" />
    <glyph glyph-name="cent" unicode="&#xa2;" horiz-adv-x="960" 
d="M881 270l-41 -237q-57 -33 -174 -47v-191h-222v195q-358 61 -358 532t358 533v174h222v-170q115 -14 172 -47l14 -228q-125 55 -262 56q-127 0 -184.5 -74t-57.5 -244t57.5 -243.5t182.5 -73.5q152 -1 293 65z" />
    <glyph glyph-name="sterling" unicode="&#xa3;" horiz-adv-x="1230" 
d="M489 244h666v-244h-1067v244q180 0 180 170v196h-180v221h180v150q0 233 126 358t358 125q90 0 178 -17t131 -36l43 -18l16 -254q-160 80 -346 80q-123 0 -177 -56.5t-54 -179.5v-152h387v-221h-387v-196q-1 -111 -54 -170z" />
    <glyph glyph-name="currency" unicode="&#xa4;" horiz-adv-x="1226" 
d="M1044 524q0 -119 -57 -217l158 -160l-158 -155l-162 160q-96 -51 -211 -52q-117 0 -213 52l-159 -160l-160 155l158 158q-57 98 -58 219q0 119 56 217l-158 156l160 158l157 -158q98 51 217 51q117 0 215 -53l160 160l158 -158l-158 -158q55 -96 55 -215zM416 524
q0 -88 55 -145t143 -57q86 0 141.5 57t55.5 145t-55.5 145.5t-141.5 57.5q-88 0 -143 -56.5t-55 -146.5z" />
    <glyph glyph-name="yen" unicode="&#xa5;" horiz-adv-x="1290" 
d="M1241 1434l-403 -711h227v-205h-283v-119h283v-204h-283v-195h-270v195h-283v204h283v119h-283v205h228l-408 711h311l291 -564l289 564h301z" />
    <glyph glyph-name="brokenbar" unicode="&#xa6;" horiz-adv-x="526" 
d="M160 778v840h207v-840h-207zM160 -389v840h207v-840h-207z" />
    <glyph glyph-name="section" unicode="&#xa7;" horiz-adv-x="1087" 
d="M784 231q104 -55 150.5 -119.5t46.5 -179.5q0 -166 -108.5 -257t-327.5 -91q-90 0 -181.5 15.5t-138.5 29.5l-45 15l-41 245q18 -8 53 -20t137.5 -32.5t200.5 -20.5q180 0 181 108q0 45 -32 75t-126 73l-225 104q-141 63 -201.5 132t-60.5 192q0 119 71.5 199.5
t163.5 113.5q-88 53 -130 123t-42 176q0 160 105.5 253t312.5 93q88 0 175 -10t128 -21l43 -10l14 -237q-127 49 -346 49q-162 0 -162 -111q0 -53 30 -82.5t101 -62.5l236 -107q141 -63 196.5 -128.5t55.5 -190.5q0 -119 -72 -200t-162 -116zM459 385l141 -66
q162 55 162 173q0 61 -31 98t-108 72l-140 63q-74 -20 -119 -65.5t-45 -108.5q0 -59 29 -93t111 -73z" />
    <glyph glyph-name="dieresis" unicode="&#xa8;" horiz-adv-x="724" 
d="M0 1188v244h238v-244h-238zM406 1188v244h237v-244h-237z" />
    <glyph glyph-name="copyright" unicode="&#xa9;" horiz-adv-x="1648" 
d="M825.5 -20q-315.5 0 -529.5 214t-214 529t214 528t529.5 213t528.5 -213t213 -528t-213 -529t-528.5 -214zM825 113q258 0 430 175t172 435t-172 434t-430 174q-256 0 -430 -174t-174 -434t174 -435t430 -175zM829 283q-176 0 -260 102t-84 336q0 236 84 339t260 103
q143 0 224.5 -67.5t107.5 -216.5h-168q-18 78 -57 108.5t-107 30.5q-94 0 -135 -62.5t-41 -234.5q0 -168 41 -230.5t135 -62.5q68 0 106 28.5t56 100.5h168q-27 -143 -108 -208.5t-222 -65.5z" />
    <glyph glyph-name="ordfeminine" unicode="&#xaa;" horiz-adv-x="880" 
d="M432 1452q324 0 324 -309v-510h-191l-10 84q-51 -100 -213 -101q-127 0 -194.5 67t-67.5 185q0 115 70.5 178.5t201.5 63.5h203v33q0 72 -36 101.5t-124 29.5q-117 0 -254 -31l31 180q115 29 260 29zM389 778q90 0 128 34t38 122v31h-176q-100 0 -100 -97q-1 -90 110 -90
z" />
    <glyph glyph-name="guillemotleft" unicode="&#xab;" horiz-adv-x="1087" 
d="M305 129l-244 393l244 393h242l-203 -393l203 -393h-242zM754 129l-244 393l244 393h241l-202 -393l202 -393h-241z" />
    <glyph glyph-name="logicalnot" unicode="&#xac;" horiz-adv-x="1228" 
d="M1104 819v-608h-221v385h-770v223h991z" />
    <glyph glyph-name="registered" unicode="&#xae;" horiz-adv-x="1648" 
d="M825.5 -20q-315.5 0 -529.5 214t-214 529t214 528t529.5 213t528.5 -213t213 -528t-213 -529t-528.5 -214zM825 113q258 0 430 175t172 435t-172 434t-430 174q-256 0 -430 -174t-174 -434t174 -435t430 -175zM530 305v844h320q313 0 313 -266q0 -190 -164 -242l164 -336
h-182l-150 316h-137v-316h-164zM694 764h156q147 0 147 118.5t-147 118.5h-156v-237z" />
    <glyph glyph-name="macron" unicode="&#xaf;" horiz-adv-x="694" 
d="M0 1237v162h612v-162h-612z" />
    <glyph glyph-name="degree" unicode="&#xb0;" horiz-adv-x="833" 
d="M418 748q-139 0 -239.5 92t-100.5 247q0 152 100.5 244t239.5 92t238.5 -92t99.5 -244q0 -156 -98.5 -247.5t-239.5 -91.5zM417.5 942q65.5 0 102.5 39t37 106q0 66 -38 104t-101 38q-66 0 -104 -38t-38 -104q0 -68 38 -106.5t103.5 -38.5z" />
    <glyph glyph-name="plusminus" unicode="&#xb1;" horiz-adv-x="1249" 
d="M735 977h385v-221h-385v-256h-221v256h-385v221h385v276h221v-276zM129 158v221h991v-221h-991z" />
    <glyph glyph-name="acute" unicode="&#xb4;" horiz-adv-x="581" 
d="M184 1167l-184 41l207 260h293z" />
    <glyph glyph-name="paragraph" unicode="&#xb6;" horiz-adv-x="1300" 
d="M455 -389v1022q-182 0 -292 109.5t-110 291.5q0 180 109.5 290t292.5 110h661v-1823h-188v1646h-281v-1646h-192z" />
    <glyph glyph-name="periodcentered" unicode="&#xb7;" horiz-adv-x="540" 
d="M119 406v294h303v-294h-303z" />
    <glyph glyph-name="cedilla" unicode="&#xb8;" horiz-adv-x="428" 
d="M115 -410q-29 0 -57.5 5.5t-43.5 11.5l-14 4v129q49 -20 109 -21q92 0 92 60q0 57 -80 57h-82l70 207h120l-41 -115q158 -12 158 -149q0 -90 -60 -139.5t-171 -49.5z" />
    <glyph glyph-name="ordmasculine" unicode="&#xba;" horiz-adv-x="888" 
d="M444.5 616q-186.5 0 -272.5 99.5t-86 318.5t86 318.5t272.5 99.5t272.5 -99.5t86 -318.5t-86 -318.5t-272.5 -99.5zM444 791q86 0 121 55t35 188t-35 188.5t-121 55.5t-120.5 -55.5t-34.5 -188.5t34.5 -188t120.5 -55z" />
    <glyph glyph-name="guillemotright" unicode="&#xbb;" horiz-adv-x="1087" 
d="M334 129h-242l203 393l-203 393h242l244 -393zM782 129h-241l202 393l-202 393h241l244 -393z" />
    <glyph glyph-name="onequarter" unicode="&#xbc;" horiz-adv-x="1636" 
d="M201 666v522l-152 -49v190l359 115v-778h-207zM133 0l971 1434h219l-971 -1434h-219zM1315 0v131h-377v152l274 485h209l-266 -471h160v160h190v-160h97l-31 -166h-66v-131h-190z" />
    <glyph glyph-name="onehalf" unicode="&#xbd;" horiz-adv-x="1654" 
d="M201 666v522l-152 -49v190l359 115v-778h-207zM1104 1434h219l-971 -1434h-219zM1284 170h293v-170h-573v166l253 196q63 49 86 84t23 80q0 84 -102 84q-55 0 -117 -15t-94 -30l-33 -16l12 174q10 6 30.5 16.5t91.5 26.5t151 16q129 -2 198.5 -65.5t69.5 -175.5
q0 -84 -47 -156t-154 -149z" />
    <glyph glyph-name="threequarters" unicode="&#xbe;" horiz-adv-x="1832" 
d="M653 874q0 -223 -309 -223q-74 0 -137.5 12.5t-89.5 22.5l-27 12l-31 199q4 -4 33 -20.5t90.5 -36t120.5 -19.5q80 0 113 20.5t33 61.5q0 74 -93 74h-153v153h137q86 0 86 70q0 41 -25.5 60.5t-91.5 19.5q-25 0 -50.5 -3t-45.5 -9t-39.5 -12.5t-35 -12.5t-27 -12
t-17.5 -9l-6 -3l10 174q10 6 29.5 15t85.5 25.5t137 16.5q131 0 207 -52t76 -161q0 -119 -103 -170q123 -50 123 -193zM1300 1434h220l-971 -1434h-219zM1702 297h96l-31 -166h-65v-131h-191v131h-376v152l274 485h209l-266 -471h159v160h191v-160z" />
    <glyph glyph-name="questiondown" unicode="&#xbf;" horiz-adv-x="954" 
d="M659 1044v-294h-301v294h301zM643 575q0 -80 -30.5 -149.5t-74.5 -120.5t-89.5 -99t-76 -105.5t-30.5 -118.5q0 -160 195 -160q188 0 366 96l-45 -258q-141 -80 -340 -80q-219 0 -337 97.5t-118 285.5q0 86 33 160t79 124t93 98t80 106.5t33 123.5h262z" />
    <glyph glyph-name="Agrave" unicode="&#xc0;" horiz-adv-x="1357" 
d="M848 1597l-184 -41l-316 302h293zM1055 0l-105 301h-553l-104 -301h-285l535 1434h270l537 -1434h-295zM477 539h393l-196 569z" />
    <glyph glyph-name="Aacute" unicode="&#xc1;" horiz-adv-x="1357" 
d="M983 1858l-315 -302l-185 41l207 261h293zM1055 0l-105 301h-553l-104 -301h-285l535 1434h270l537 -1434h-295zM477 539h393l-196 569z" />
    <glyph glyph-name="Acircumflex" unicode="&#xc2;" horiz-adv-x="1357" 
d="M674 1700l-185 -144l-170 41l228 261h254l227 -261l-170 -41zM1055 0l-105 301h-553l-104 -301h-285l535 1434h270l537 -1434h-295zM477 539h393l-196 569z" />
    <glyph glyph-name="Atilde" unicode="&#xc3;" horiz-adv-x="1357" 
d="M573 1667q-27 0 -50 -18.5t-72 -81.5l-132 96q82 106 136.5 143t117.5 37q51 0 120 -49t93.5 -49t47 18.5t73.5 79.5l131 -94q-80 -106 -134 -144t-118 -38q-51 0 -119.5 50t-93.5 50zM1055 0l-105 301h-553l-104 -301h-285l535 1434h270l537 -1434h-295zM477 539h393
l-196 569z" />
    <glyph glyph-name="Adieresis" unicode="&#xc4;" horiz-adv-x="1357" 
d="M592 1821v-244h-238v244h238zM997 1821v-244h-237v244h237zM1055 0l-105 301h-553l-104 -301h-285l535 1434h270l537 -1434h-295zM477 539h393l-196 569z" />
    <glyph glyph-name="Aring" unicode="&#xc5;" horiz-adv-x="1357" 
d="M678 1546q-109 0 -178.5 64.5t-69.5 171.5q0 109 69.5 173t178.5 64q106 0 176 -64.5t70 -172.5q0 -106 -70 -171t-176 -65zM678 1888q-49 0 -77 -28.5t-28 -77.5q0 -47 28 -76t77 -29q47 0 74.5 29t27.5 76q0 49 -27.5 77.5t-74.5 28.5zM1055 0l-105 301h-553l-104 -301
h-285l535 1434h270l537 -1434h-295zM477 539h393l-196 569z" />
    <glyph glyph-name="AE" unicode="&#xc6;" horiz-adv-x="2004" 
d="M1210 246h711l-39 -246h-950v332h-477l-191 -332h-287l840 1434h1067l14 -246h-688v-342h611v-246h-611v-354zM592 569h340v594z" />
    <glyph glyph-name="Ccedilla" unicode="&#xc7;" horiz-adv-x="1159" 
d="M1049 39q-133 -63 -320 -70l-16 -45q84 -6 125 -48t41 -107q0 -94 -64.5 -146.5t-179.5 -52.5q-31 0 -60.5 5t-44.5 11l-16 6v136q53 -23 115 -23q96 0 96 64q0 59 -84 59h-86l49 147q-258 27 -384 209.5t-126 532.5q0 383 151.5 565t461.5 182q190 0 337 -71l15 -254
q-150 80 -332 80q-184 0 -267 -115t-83 -387.5t83 -387t267 -114.5q190 0 360 90z" />
    <glyph glyph-name="Egrave" unicode="&#xc8;" horiz-adv-x="1239" 
d="M631 1556l-316 302h293l207 -261zM166 0v1434h952l15 -246h-689v-342h611v-246h-611v-354h711l-39 -246h-950z" />
    <glyph glyph-name="Eacute" unicode="&#xc9;" horiz-adv-x="1239" 
d="M635 1556l-184 41l206 261h293zM166 0v1434h952l15 -246h-689v-342h611v-246h-611v-354h711l-39 -246h-950z" />
    <glyph glyph-name="Ecircumflex" unicode="&#xca;" horiz-adv-x="1239" 
d="M457 1556l-170 41l227 261h254l227 -261l-170 -41l-184 144zM166 0v1434h952l15 -246h-689v-342h611v-246h-611v-354h711l-39 -246h-950z" />
    <glyph glyph-name="Edieresis" unicode="&#xcb;" horiz-adv-x="1239" 
d="M322 1577v244h237v-244h-237zM727 1577v244h238v-244h-238zM166 0v1434h952l15 -246h-689v-342h611v-246h-611v-354h711l-39 -246h-950z" />
    <glyph glyph-name="Igrave" unicode="&#xcc;" horiz-adv-x="610" 
d="M291 1556l-316 302h293l207 -261zM166 0v1434h278v-1434h-278z" />
    <glyph glyph-name="Iacute" unicode="&#xcd;" horiz-adv-x="610" 
d="M295 1556l-184 41l206 261h293zM166 0v1434h278v-1434h-278z" />
    <glyph glyph-name="Icircumflex" unicode="&#xce;" horiz-adv-x="610" 
d="M150 1556l-160 41l200 261h230l201 -261l-160 -41l-156 148zM166 0v1434h278v-1434h-278z" />
    <glyph glyph-name="Idieresis" unicode="&#xcf;" horiz-adv-x="610" 
d="M6 1577v244h227v-244h-227zM375 1577v244h229v-244h-229zM166 0v1434h278v-1434h-278z" />
    <glyph glyph-name="Eth" unicode="&#xd0;" horiz-adv-x="1380" 
d="M700 1434q301 0 442.5 -167t141.5 -550t-141.5 -550t-442.5 -167h-514v637h-145v180h145v617h514zM700 246q160 0 230.5 100t70.5 370.5t-70.5 371t-230.5 100.5h-237v-371h291v-180h-291v-391h237z" />
    <glyph glyph-name="Ntilde" unicode="&#xd1;" horiz-adv-x="1441" 
d="M483 1567l-131 96q82 106 136.5 143t117.5 37q51 0 120 -49t93.5 -49t47 18.5t73.5 79.5l131 -94q-80 -106 -134 -144t-118 -38q-51 0 -119.5 50t-93.5 50q-27 0 -50.5 -18.5t-72.5 -81.5zM1018 1434h258v-1434h-238l-612 954v-954h-260v1434h240l612 -953v953z" />
    <glyph glyph-name="Ograve" unicode="&#xd2;" horiz-adv-x="1357" 
d="M666 1556l-316 302h293l207 -261zM680 -31q-301 0 -442.5 175t-141.5 572.5t141.5 572.5t442.5 175q299 0 440.5 -175t141.5 -572.5t-141.5 -572.5t-440.5 -175zM680 215q158 0 229.5 107.5t71.5 394.5q0 197 -35 308.5t-97.5 152.5t-169 41t-168.5 -41t-97 -153
t-35 -308q0 -287 71.5 -394.5t229.5 -107.5z" />
    <glyph glyph-name="Oacute" unicode="&#xd3;" horiz-adv-x="1357" 
d="M670 1556l-185 41l207 261h293zM680 -31q-301 0 -442.5 175t-141.5 572.5t141.5 572.5t442.5 175q299 0 440.5 -175t141.5 -572.5t-141.5 -572.5t-440.5 -175zM680 215q158 0 229.5 107.5t71.5 394.5q0 197 -35 308.5t-97.5 152.5t-169 41t-168.5 -41t-97 -153t-35 -308
q0 -287 71.5 -394.5t229.5 -107.5z" />
    <glyph glyph-name="Ocircumflex" unicode="&#xd4;" horiz-adv-x="1357" 
d="M492 1556l-170 41l227 261h254l227 -261l-170 -41l-184 144zM680 -31q-301 0 -442.5 175t-141.5 572.5t141.5 572.5t442.5 175q299 0 440.5 -175t141.5 -572.5t-141.5 -572.5t-440.5 -175zM680 215q158 0 229.5 107.5t71.5 394.5q0 197 -35 308.5t-97.5 152.5t-169 41
t-168.5 -41t-97 -153t-35 -308q0 -287 71.5 -394.5t229.5 -107.5z" />
    <glyph glyph-name="Otilde" unicode="&#xd5;" horiz-adv-x="1357" 
d="M453 1567l-131 96q82 106 136 143t117 37q51 0 120 -49t93.5 -49t47 18.5t73.5 79.5l131 -94q-80 -106 -134 -144t-118 -38q-51 0 -119.5 50t-93.5 50q-27 0 -50 -18.5t-72 -81.5zM680 -31q-301 0 -442.5 175t-141.5 572.5t141.5 572.5t442.5 175q299 0 440.5 -175
t141.5 -572.5t-141.5 -572.5t-440.5 -175zM680 215q158 0 229.5 107.5t71.5 394.5q0 197 -35 308.5t-97.5 152.5t-169 41t-168.5 -41t-97 -153t-35 -308q0 -287 71.5 -394.5t229.5 -107.5z" />
    <glyph glyph-name="Odieresis" unicode="&#xd6;" horiz-adv-x="1357" 
d="M356 1577v244h238v-244h-238zM762 1577v244h237v-244h-237zM680 -31q-301 0 -442.5 175t-141.5 572.5t141.5 572.5t442.5 175q299 0 440.5 -175t141.5 -572.5t-141.5 -572.5t-440.5 -175zM680 215q158 0 229.5 107.5t71.5 394.5q0 197 -35 308.5t-97.5 152.5t-169 41
t-168.5 -41t-97 -153t-35 -308q0 -287 71.5 -394.5t229.5 -107.5z" />
    <glyph glyph-name="multiply" unicode="&#xd7;" horiz-adv-x="1091" 
d="M1006 1012l-306 -305l306 -306l-156 -153l-305 305l-303 -305l-156 153l305 306l-305 305l156 153l303 -305l305 305z" />
    <glyph glyph-name="Oslash" unicode="&#xd8;" horiz-adv-x="1392" 
d="M1343 1452l-165 -225q100 -178 100 -510q0 -397 -141.5 -572.5t-442.5 -175.5q-246 0 -381 115l-77 -102h-187l166 221q-102 178 -102 514q0 397 141 572t440 175q248 0 385 -114l78 102h186zM694 1219q-106 0 -168.5 -41t-97.5 -153t-35 -308q0 -164 25 -268l489 686
q-68 84 -213 84zM694 215q106 0 169 42t97.5 153.5t34.5 306.5q0 162 -22 264l-490 -686q68 -80 211 -80z" />
    <glyph glyph-name="Ugrave" unicode="&#xd9;" horiz-adv-x="1368" 
d="M670 1556l-316 302h293l207 -261zM684 -31q-270 0 -400 132t-130 411v922h276v-922q0 -160 62.5 -228.5t191.5 -68.5q127 0 189.5 68.5t62.5 228.5v922h278v-922q0 -279 -131 -411t-399 -132z" />
    <glyph glyph-name="Uacute" unicode="&#xda;" horiz-adv-x="1368" 
d="M674 1556l-185 41l207 261h293zM684 -31q-270 0 -400 132t-130 411v922h276v-922q0 -160 62.5 -228.5t191.5 -68.5q127 0 189.5 68.5t62.5 228.5v922h278v-922q0 -279 -131 -411t-399 -132z" />
    <glyph glyph-name="Ucircumflex" unicode="&#xdb;" horiz-adv-x="1368" 
d="M496 1556l-170 41l227 261h254l227 -261l-170 -41l-184 144zM684 -31q-270 0 -400 132t-130 411v922h276v-922q0 -160 62.5 -228.5t191.5 -68.5q127 0 189.5 68.5t62.5 228.5v922h278v-922q0 -279 -131 -411t-399 -132z" />
    <glyph glyph-name="Udieresis" unicode="&#xdc;" horiz-adv-x="1368" 
d="M360 1577v244h238v-244h-238zM766 1577v244h238v-244h-238zM684 -31q-270 0 -400 132t-130 411v922h276v-922q0 -160 62.5 -228.5t191.5 -68.5q127 0 189.5 68.5t62.5 228.5v922h278v-922q0 -279 -131 -411t-399 -132z" />
    <glyph glyph-name="Yacute" unicode="&#xdd;" horiz-adv-x="1265" 
d="M621 1556l-185 41l207 261h293zM1247 1434l-475 -895v-539h-278v539l-480 895h308l315 -609l311 609h299z" />
    <glyph glyph-name="Thorn" unicode="&#xde;" horiz-adv-x="1314" 
d="M719 1188q260 0 391 -120t131 -343t-131 -343t-391 -120h-275v-262h-278v1434h278v-246h275zM719 502q242 0 242 223t-242 223h-275v-446h275z" />
    <glyph glyph-name="germandbls" unicode="&#xdf;" horiz-adv-x="1165" 
d="M915 823q84 -41 116 -121.5t32 -203.5v-86q0 -432 -373 -432q-131 0 -192 32v230q74 -35 145 -35q82 0 120 46t38 159v86q0 117 -46 165t-155 48h-102v223h92q102 0 146 36t44 115.5t-45 116.5t-147 37q-104 0 -147.5 -49t-43.5 -166v-1024h-258v1024q0 440 449 440
q455 0 454 -358q0 -211 -127 -283z" />
    <glyph glyph-name="agrave" unicode="&#xe0;" horiz-adv-x="1083" 
d="M537 1167l-316 301h293l207 -260zM414 -20q-168 0 -258 87t-90 240q0 143 94 224t268 81h268v52q0 92 -47 131t-166 39q-172 0 -336 -41l41 231q154 35 342 35q424 0 424 -395v-664h-217l-41 109q-65 -129 -282 -129zM475 182q119 0 170 43t51 154v55h-221
q-152 0 -151 -125q-1 -127 151 -127z" />
    <glyph glyph-name="aacute" unicode="&#xe1;" horiz-adv-x="1083" 
d="M541 1167l-185 41l207 260h293zM414 -20q-168 0 -258 87t-90 240q0 143 94 224t268 81h268v52q0 92 -47 131t-166 39q-172 0 -336 -41l41 231q154 35 342 35q424 0 424 -395v-664h-217l-41 109q-65 -129 -282 -129zM475 182q119 0 170 43t51 154v55h-221
q-152 0 -151 -125q-1 -127 151 -127z" />
    <glyph glyph-name="acircumflex" unicode="&#xe2;" horiz-adv-x="1083" 
d="M362 1167l-169 41l227 260h254l227 -260l-170 -41l-184 144zM414 -20q-168 0 -258 87t-90 240q0 143 94 224t268 81h268v52q0 92 -47 131t-166 39q-172 0 -336 -41l41 231q154 35 342 35q424 0 424 -395v-664h-217l-41 109q-65 -129 -282 -129zM475 182q119 0 170 43
t51 154v55h-221q-152 0 -151 -125q-1 -127 151 -127z" />
    <glyph glyph-name="atilde" unicode="&#xe3;" horiz-adv-x="1083" 
d="M324 1178l-131 96q82 106 136 143t117 37q51 0 120 -49t93.5 -49t47 18.5t73.5 79.5l131 -94q-80 -106 -134 -144t-118 -38q-51 0 -119.5 50t-93.5 50q-27 0 -50 -18.5t-72 -81.5zM414 -20q-168 0 -258 87t-90 240q0 143 94 224t268 81h268v52q0 92 -47 131t-166 39
q-172 0 -336 -41l41 231q154 35 342 35q424 0 424 -395v-664h-217l-41 109q-65 -129 -282 -129zM475 182q119 0 170 43t51 154v55h-221q-152 0 -151 -125q-1 -127 151 -127z" />
    <glyph glyph-name="adieresis" unicode="&#xe4;" horiz-adv-x="1083" 
d="M227 1188v244h238v-244h-238zM633 1188v244h237v-244h-237zM414 -20q-168 0 -258 87t-90 240q0 143 94 224t268 81h268v52q0 92 -47 131t-166 39q-172 0 -336 -41l41 231q154 35 342 35q424 0 424 -395v-664h-217l-41 109q-65 -129 -282 -129zM475 182q119 0 170 43
t51 154v55h-221q-152 0 -151 -125q-1 -127 151 -127z" />
    <glyph glyph-name="aring" unicode="&#xe5;" horiz-adv-x="1083" 
d="M551 1157q-109 0 -178.5 64.5t-69.5 171.5q0 109 69.5 173t178.5 64q106 0 176 -64.5t70 -172.5q0 -106 -70 -171t-176 -65zM551 1288q47 0 74.5 29t27.5 76q0 49 -27.5 77.5t-74.5 28.5q-49 0 -77 -28.5t-28 -77.5q0 -47 28 -76t77 -29zM414 -20q-168 0 -258 87t-90 240
q0 143 94 224t268 81h268v52q0 92 -47 131t-166 39q-172 0 -336 -41l41 231q154 35 342 35q424 0 424 -395v-664h-217l-41 109q-65 -129 -282 -129zM475 182q119 0 170 43t51 154v55h-221q-152 0 -151 -125q-1 -127 151 -127z" />
    <glyph glyph-name="ae" unicode="&#xe6;" horiz-adv-x="1708" 
d="M455 -20q-391 0 -392 327q0 145 94.5 225t270.5 80h270v52q0 92 -46 131t-165 39q-174 0 -333 -41l41 231q154 35 340 35q215 0 311 -115q117 121 323 121q227 0 344 -130t117 -415v-84h-674q4 -119 70 -175t215 -56q180 0 332 55l-39 -233q-137 -47 -299 -47
q-266 0 -395 139q-104 -139 -385 -139zM956 612h426q-8 240 -211 240t-215 -240zM475 182q121 0 172 43t51 154v57h-237q-68 0 -103.5 -33.5t-35.5 -95.5q-1 -125 153 -125z" />
    <glyph glyph-name="ccedilla" unicode="&#xe7;" horiz-adv-x="935" 
d="M836 33q-78 -45 -234 -53l-18 -52q80 -6 118.5 -46t38.5 -103q0 -90 -60 -139.5t-171 -49.5q-29 0 -57.5 5.5t-42.5 11.5l-15 4v129q49 -20 109 -21q92 0 92 60q0 57 -80 57h-82l49 148q-203 20 -302 153t-99 385q0 276 120 409.5t363 133.5q176 0 269 -53l14 -228
q-125 55 -262 56q-127 0 -184.5 -74t-57.5 -244t57.5 -243.5t182.5 -73.5q152 0 293 65z" />
    <glyph glyph-name="egrave" unicode="&#xe8;" horiz-adv-x="1091" 
d="M541 1167l-316 301h293l207 -260zM618 -20q-283 0 -409.5 136t-126.5 406q0 266 120 404.5t351 138.5q227 0 344 -130t117 -415v-80h-674q4 -119 70.5 -177t214.5 -58q182 0 333 55l-38 -233q-142 -47 -302 -47zM340 616h428q-12 236 -213 236q-199 0 -215 -236z" />
    <glyph glyph-name="eacute" unicode="&#xe9;" horiz-adv-x="1091" 
d="M545 1167l-185 41l207 260h293zM618 -20q-283 0 -409.5 136t-126.5 406q0 266 120 404.5t351 138.5q227 0 344 -130t117 -415v-80h-674q4 -119 70.5 -177t214.5 -58q182 0 333 55l-38 -233q-142 -47 -302 -47zM340 616h428q-12 236 -213 236q-199 0 -215 -236z" />
    <glyph glyph-name="ecircumflex" unicode="&#xea;" horiz-adv-x="1091" 
d="M367 1167l-170 41l227 260h254l227 -260l-170 -41l-184 144zM618 -20q-283 0 -409.5 136t-126.5 406q0 266 120 404.5t351 138.5q227 0 344 -130t117 -415v-80h-674q4 -119 70.5 -177t214.5 -58q182 0 333 55l-38 -233q-142 -47 -302 -47zM340 616h428q-12 236 -213 236
q-199 0 -215 -236z" />
    <glyph glyph-name="edieresis" unicode="&#xeb;" horiz-adv-x="1091" 
d="M231 1188v244h238v-244h-238zM637 1188v244h237v-244h-237zM618 -20q-283 0 -409.5 136t-126.5 406q0 266 120 404.5t351 138.5q227 0 344 -130t117 -415v-80h-674q4 -119 70.5 -177t214.5 -58q182 0 333 55l-38 -233q-142 -47 -302 -47zM340 616h428q-12 236 -213 236
q-199 0 -215 -236z" />
    <glyph glyph-name="igrave" unicode="&#xec;" horiz-adv-x="536" 
d="M254 1167l-315 301h292l207 -260zM139 0v1044h258v-1044h-258z" />
    <glyph glyph-name="iacute" unicode="&#xed;" horiz-adv-x="536" 
d="M258 1167l-184 41l207 260h292zM139 0v1044h258v-1044h-258z" />
    <glyph glyph-name="icircumflex" unicode="&#xee;" horiz-adv-x="536" 
d="M113 1167l-160 41l201 260h229l201 -260l-160 -41l-156 148zM139 0v1044h258v-1044h-258z" />
    <glyph glyph-name="idieresis" unicode="&#xef;" horiz-adv-x="536" 
d="M-31 1188v244h228v-244h-228zM338 1188v244h229v-244h-229zM139 0v1044h258v-1044h-258z" />
    <glyph glyph-name="eth" unicode="&#xf0;" horiz-adv-x="1107" 
d="M647 1255q115 -76 187.5 -152.5t111.5 -172.5t53.5 -198.5t14.5 -250.5q0 -262 -111.5 -381.5t-353.5 -119.5t-353.5 119.5t-111.5 381.5t93 382t296 120q170 0 264 -111q-63 129 -286 252l-238 -143l-55 92l182 111q-84 41 -186 84l88 196q176 -78 299 -145l241 145
l58 -94zM548.5 205q110.5 0 157 62.5t46.5 214t-46.5 214t-157 62.5t-156.5 -62.5t-46 -214t46 -214t156.5 -62.5z" />
    <glyph glyph-name="ntilde" unicode="&#xf1;" 
d="M373 1178l-131 96q82 106 136 143t118 37q51 0 119.5 -49t93 -49t47 18.5t73.5 79.5l132 -94q-80 -106 -134.5 -144t-117.5 -38q-51 0 -120 50t-93 50q-27 0 -50.5 -18.5t-72.5 -81.5zM139 0v1044h217l41 -114q98 135 287 135q180 0 275.5 -113.5t95.5 -304.5v-647h-258
v588q0 125 -45 186.5t-148 61.5q-111 0 -159 -61.5t-48 -186.5v-588h-258z" />
    <glyph glyph-name="ograve" unicode="&#xf2;" horiz-adv-x="1097" 
d="M535 1167l-316 301h293l207 -260zM549 -20q-242 0 -353.5 130t-111.5 412.5t111.5 412.5t353.5 130t353.5 -130t111.5 -412.5t-111.5 -412.5t-353.5 -130zM548.5 205q110.5 0 157 71.5t46.5 245.5t-46.5 246t-157 72t-156.5 -72t-46 -246t46 -245.5t156.5 -71.5z" />
    <glyph glyph-name="oacute" unicode="&#xf3;" horiz-adv-x="1097" 
d="M539 1167l-185 41l207 260h293zM549 -20q-242 0 -353.5 130t-111.5 412.5t111.5 412.5t353.5 130t353.5 -130t111.5 -412.5t-111.5 -412.5t-353.5 -130zM548.5 205q110.5 0 157 71.5t46.5 245.5t-46.5 246t-157 72t-156.5 -72t-46 -246t46 -245.5t156.5 -71.5z" />
    <glyph glyph-name="ocircumflex" unicode="&#xf4;" horiz-adv-x="1097" 
d="M360 1167l-170 41l228 260h254l227 -260l-170 -41l-184 144zM549 -20q-242 0 -353.5 130t-111.5 412.5t111.5 412.5t353.5 130t353.5 -130t111.5 -412.5t-111.5 -412.5t-353.5 -130zM548.5 205q110.5 0 157 71.5t46.5 245.5t-46.5 246t-157 72t-156.5 -72t-46 -246
t46 -245.5t156.5 -71.5z" />
    <glyph glyph-name="otilde" unicode="&#xf5;" horiz-adv-x="1097" 
d="M322 1178l-132 96q82 106 136.5 143t117.5 37q51 0 120 -49t93.5 -49t47 18.5t73.5 79.5l131 -94q-80 -106 -134 -144t-118 -38q-51 0 -119.5 50t-93.5 50q-27 0 -50 -18.5t-72 -81.5zM549 -20q-242 0 -353.5 130t-111.5 412.5t111.5 412.5t353.5 130t353.5 -130
t111.5 -412.5t-111.5 -412.5t-353.5 -130zM548.5 205q110.5 0 157 71.5t46.5 245.5t-46.5 246t-157 72t-156.5 -72t-46 -246t46 -245.5t156.5 -71.5z" />
    <glyph glyph-name="odieresis" unicode="&#xf6;" horiz-adv-x="1097" 
d="M225 1188v244h238v-244h-238zM631 1188v244h237v-244h-237zM549 -20q-242 0 -353.5 130t-111.5 412.5t111.5 412.5t353.5 130t353.5 -130t111.5 -412.5t-111.5 -412.5t-353.5 -130zM548.5 205q110.5 0 157 71.5t46.5 245.5t-46.5 246t-157 72t-156.5 -72t-46 -246
t46 -245.5t156.5 -71.5z" />
    <glyph glyph-name="divide" unicode="&#xf7;" 
d="M471 993v234h242v-234h-242zM96 596v221h991v-221h-991zM471 186v234h242v-234h-242z" />
    <glyph glyph-name="oslash" unicode="&#xf8;" horiz-adv-x="1138" 
d="M1106 1065l-148 -182q74 -127 74 -361q0 -283 -110.5 -412.5t-352.5 -129.5q-197 0 -305 83l-69 -83h-164l149 180q-76 129 -76 362q0 283 112 413t353 130q197 0 305 -84l68 84h164zM569 840q-111 0 -156.5 -72t-45.5 -246q0 -84 10 -141l334 405q-46 54 -142 54z
M569 205q111 0 156 71.5t45 245.5q0 80 -8 137l-334 -403q45 -51 141 -51z" />
    <glyph glyph-name="ugrave" unicode="&#xf9;" 
d="M565 1167l-315 301h293l207 -260zM500 -20q-180 0 -275.5 113.5t-95.5 303.5v647h258v-587q0 -125 45 -186.5t148 -61.5q111 0 158.5 61.5t47.5 186.5v587h258v-1044h-217l-41 115q-98 -135 -286 -135z" />
    <glyph glyph-name="uacute" unicode="&#xfa;" 
d="M569 1167l-184 41l207 260h293zM500 -20q-180 0 -275.5 113.5t-95.5 303.5v647h258v-587q0 -125 45 -186.5t148 -61.5q111 0 158.5 61.5t47.5 186.5v587h258v-1044h-217l-41 115q-98 -135 -286 -135z" />
    <glyph glyph-name="ucircumflex" unicode="&#xfb;" 
d="M391 1167l-170 41l228 260h253l228 -260l-170 -41l-185 144zM500 -20q-180 0 -275.5 113.5t-95.5 303.5v647h258v-587q0 -125 45 -186.5t148 -61.5q111 0 158.5 61.5t47.5 186.5v587h258v-1044h-217l-41 115q-98 -135 -286 -135z" />
    <glyph glyph-name="udieresis" unicode="&#xfc;" 
d="M256 1188v244h238v-244h-238zM662 1188v244h237v-244h-237zM500 -20q-180 0 -275.5 113.5t-95.5 303.5v647h258v-587q0 -125 45 -186.5t148 -61.5q111 0 158.5 61.5t47.5 186.5v587h258v-1044h-217l-41 115q-98 -135 -286 -135z" />
    <glyph glyph-name="yacute" unicode="&#xfd;" horiz-adv-x="1050" 
d="M524 1167l-184 41l207 260h293zM297 -410q-106 0 -162 35l-41 221q61 -29 137 -28q117 0 158 116l25 68l-402 1042h279l252 -716l221 716h268l-411 -1179q-97 -275 -324 -275z" />
    <glyph glyph-name="thorn" unicode="&#xfe;" horiz-adv-x="1153" 
d="M139 -389v1802l258 41v-518q0 6 26 34.5t95.5 61.5t159.5 33q203 0 296 -129t93 -413.5t-93 -413.5t-296 -129q-90 0 -159.5 32.5t-95.5 61t-26 35.5v-498h-258zM600 205q111 0 158 72.5t47 244.5t-47 245t-158 73t-157 -72t-46 -246t46 -245.5t157 -71.5z" />
    <glyph glyph-name="ydieresis" unicode="&#xff;" horiz-adv-x="1050" 
d="M211 1188v244h238v-244h-238zM616 1188v244h238v-244h-238zM297 -410q-106 0 -162 35l-41 221q61 -29 137 -28q117 0 158 116l25 68l-402 1042h279l252 -716l221 716h268l-411 -1179q-97 -275 -324 -275z" />
    <glyph glyph-name="Amacron" unicode="&#x100;" horiz-adv-x="1357" 
d="M983 1788v-162h-612v162h612zM1055 0l-105 301h-553l-104 -301h-285l535 1434h270l537 -1434h-295zM477 539h393l-196 569z" />
    <glyph glyph-name="amacron" unicode="&#x101;" horiz-adv-x="1083" 
d="M244 1237v162h612v-162h-612zM414 -20q-168 0 -258 87t-90 240q0 143 94 224t268 81h268v52q0 92 -47 131t-166 39q-172 0 -336 -41l41 231q154 35 342 35q424 0 424 -395v-664h-217l-41 109q-65 -129 -282 -129zM475 182q119 0 170 43t51 154v55h-221q-152 0 -151 -125
q-1 -127 151 -127z" />
    <glyph glyph-name="Abreve" unicode="&#x102;" horiz-adv-x="1357" 
d="M680 1546q-154 0 -236 79t-90 210l207 41q6 -168 119 -168q111 0 117 168l207 -41q-8 -131 -90 -210t-234 -79zM1055 0l-105 301h-553l-104 -301h-285l535 1434h270l537 -1434h-295zM477 539h393l-196 569z" />
    <glyph glyph-name="abreve" unicode="&#x103;" horiz-adv-x="1083" 
d="M551 1157q-154 0 -236 79t-90 210l207 41q6 -168 119 -168q111 0 117 168l206 -41q-8 -131 -89.5 -210t-233.5 -79zM414 -20q-168 0 -258 87t-90 240q0 143 94 224t268 81h268v52q0 92 -47 131t-166 39q-172 0 -336 -41l41 231q154 35 342 35q424 0 424 -395v-664h-217
l-41 109q-65 -129 -282 -129zM475 182q119 0 170 43t51 154v55h-221q-152 0 -151 -125q-1 -127 151 -127z" />
    <glyph glyph-name="Aogonek" unicode="&#x104;" horiz-adv-x="1357" 
d="M1214 -180q0 -70 70 -70q18 0 34.5 4t24.5 8l7 2v-149q-47 -25 -127 -25q-92 0 -140.5 46.5t-48.5 125.5q0 68 44 131.5t122 106.5h-145l-105 301h-553l-104 -301h-285l535 1434h270l537 -1434q-136 -94 -136 -180zM477 539h393l-196 569z" />
    <glyph glyph-name="aogonek" unicode="&#x105;" horiz-adv-x="1083" 
d="M889 -250q18 0 35.5 4t25.5 8l6 2v-149q-49 -25 -129 -25q-92 0 -140 46.5t-48 125.5q0 68 44 131.5t124 106.5h-70l-41 109q-66 -129 -282 -129q-168 0 -258 87t-90 240q0 143 94 224t268 81h268v52q0 92 -47 131t-166 39q-172 0 -336 -41l41 231q154 35 342 35
q424 0 424 -395v-664q-135 -94 -135 -180q0 -70 70 -70zM475 182q119 0 170 43t51 154v55h-221q-152 0 -151 -125q-1 -127 151 -127z" />
    <glyph glyph-name="Cacute" unicode="&#x106;" horiz-adv-x="1159" 
d="M655 1556l-184 41l207 261h293zM707 -31q-309 0 -461 182.5t-152 565.5t151.5 565t461.5 182q190 0 337 -71l15 -254q-150 80 -332 80q-184 0 -267 -115t-83 -387.5t83 -387t267 -114.5q190 0 360 90l-38 -266q-143 -70 -342 -70z" />
    <glyph glyph-name="cacute" unicode="&#x107;" horiz-adv-x="935" 
d="M518 1167l-184 41l207 260h293zM563 -20q-244 0 -362.5 133t-118.5 409.5t120 409.5t363 133q176 0 269 -53l14 -228q-125 55 -262 56q-127 0 -184.5 -74t-57.5 -244t57.5 -243.5t182.5 -73.5q152 0 293 65l-41 -237q-93 -53 -273 -53z" />
    <glyph glyph-name="Ccircumflex" unicode="&#x108;" horiz-adv-x="1159" 
d="M477 1556l-170 41l228 261h253l228 -261l-170 -41l-184 144zM707 -31q-309 0 -461 182.5t-152 565.5t151.5 565t461.5 182q190 0 337 -71l15 -254q-150 80 -332 80q-184 0 -267 -115t-83 -387.5t83 -387t267 -114.5q190 0 360 90l-38 -266q-143 -70 -342 -70z" />
    <glyph glyph-name="ccircumflex" unicode="&#x109;" horiz-adv-x="935" 
d="M340 1167l-170 41l227 260h254l228 -260l-170 -41l-185 144zM563 -20q-244 0 -362.5 133t-118.5 409.5t120 409.5t363 133q176 0 269 -53l14 -228q-125 55 -262 56q-127 0 -184.5 -74t-57.5 -244t57.5 -243.5t182.5 -73.5q152 0 293 65l-41 -237q-93 -53 -273 -53z" />
    <glyph glyph-name="Cdotaccent" unicode="&#x10a;" horiz-adv-x="1159" 
d="M537 1575v244h258v-244h-258zM707 -31q-309 0 -461 182.5t-152 565.5t151.5 565t461.5 182q190 0 337 -71l15 -254q-150 80 -332 80q-184 0 -267 -115t-83 -387.5t83 -387t267 -114.5q190 0 360 90l-38 -266q-143 -70 -342 -70z" />
    <glyph glyph-name="cdotaccent" unicode="&#x10b;" horiz-adv-x="935" 
d="M399 1186v244h258v-244h-258zM563 -20q-244 0 -362.5 133t-118.5 409.5t120 409.5t363 133q176 0 269 -53l14 -228q-125 55 -262 56q-127 0 -184.5 -74t-57.5 -244t57.5 -243.5t182.5 -73.5q152 0 293 65l-41 -237q-93 -53 -273 -53z" />
    <glyph glyph-name="Ccaron" unicode="&#x10c;" horiz-adv-x="1159" 
d="M483 1858l185 -144l184 144l170 -41l-227 -261h-254l-228 261zM707 -31q-309 0 -461 182.5t-152 565.5t151.5 565t461.5 182q190 0 337 -71l15 -254q-150 80 -332 80q-184 0 -267 -115t-83 -387.5t83 -387t267 -114.5q190 0 360 90l-38 -266q-143 -70 -342 -70z" />
    <glyph glyph-name="ccaron" unicode="&#x10d;" horiz-adv-x="935" 
d="M715 1473l170 -41l-228 -261h-254l-227 261l170 41l182 -144zM563 -20q-244 0 -362.5 133t-118.5 409.5t120 409.5t363 133q176 0 269 -53l14 -228q-125 55 -262 56q-127 0 -184.5 -74t-57.5 -244t57.5 -243.5t182.5 -73.5q152 0 293 65l-41 -237q-93 -53 -273 -53z" />
    <glyph glyph-name="Dcaron" unicode="&#x10e;" horiz-adv-x="1359" 
d="M455 1858l184 -144l184 144l170 -41l-227 -261h-254l-227 261zM166 0v1434h516q301 0 441.5 -167t140.5 -550t-140.5 -550t-441.5 -167h-516zM444 246h238q160 0 230.5 100t70.5 370.5t-70.5 371t-230.5 100.5h-238v-942z" />
    <glyph glyph-name="dcaron" unicode="&#x10f;" horiz-adv-x="1196" 
d="M758 1413l258 41v-1454h-219l-39 109v-3q-74 -104 -228 -122q-27 -4 -55 -4q-201 0 -295 129t-94 413.5t94 413.5t295 129q86 0 155.5 -32t93.5 -55.5t34 -39.5v-2v477zM1128 1098l31 336h240l-162 -336h-109zM553 205q111 0 158 72.5t47 244.5t-47 245t-158 73t-158 -73
t-47 -245t47 -244.5t158 -72.5z" />
    <glyph glyph-name="Dcroat" unicode="&#x110;" horiz-adv-x="1380" 
d="M700 1434q301 0 442.5 -167t141.5 -550t-141.5 -550t-442.5 -167h-514v637h-145v180h145v617h514zM700 246q160 0 230.5 100t70.5 370.5t-70.5 371t-230.5 100.5h-237v-371h291v-180h-291v-391h237z" />
    <glyph glyph-name="dcroat" unicode="&#x111;" horiz-adv-x="1155" 
d="M1153 1276v-141h-137v-1135h-219l-39 109v-3q-74 -104 -228 -122q-27 -4 -55 -4q-201 0 -295 129t-94 413.5t94 413.5t295 129q86 0 155.5 -32t93.5 -55.5t34 -39.5v-2v199h-336v141h336v137l258 41v-178h137zM553 205q111 0 158 72.5t47 244.5t-47 245t-158 73t-158 -73
t-47 -245t47 -244.5t158 -72.5z" />
    <glyph glyph-name="Emacron" unicode="&#x112;" horiz-adv-x="1239" 
d="M338 1626v162h612v-162h-612zM166 0v1434h952l15 -246h-689v-342h611v-246h-611v-354h711l-39 -246h-950z" />
    <glyph glyph-name="emacron" unicode="&#x113;" horiz-adv-x="1091" 
d="M248 1237v162h612v-162h-612zM618 -20q-283 0 -409.5 136t-126.5 406q0 266 120 404.5t351 138.5q227 0 344 -130t117 -415v-80h-674q4 -119 70.5 -177t214.5 -58q182 0 333 55l-38 -233q-142 -47 -302 -47zM340 616h428q-12 236 -213 236q-199 0 -215 -236z" />
    <glyph glyph-name="Ebreve" unicode="&#x114;" horiz-adv-x="1239" 
d="M647 1546q-154 0 -235.5 79t-89.5 210l206 41q6 -168 119 -168q111 0 117 168l207 -41q-8 -131 -90 -210t-234 -79zM166 0v1434h952l15 -246h-689v-342h611v-246h-611v-354h711l-39 -246h-950z" />
    <glyph glyph-name="ebreve" unicode="&#x115;" horiz-adv-x="1091" 
d="M555 1157q-154 0 -235.5 79t-90.5 210l207 41q6 -168 119 -168q111 0 117 168l207 -41q-8 -131 -90 -210t-234 -79zM618 -20q-283 0 -409.5 136t-126.5 406q0 266 120 404.5t351 138.5q227 0 344 -130t117 -415v-80h-674q4 -119 70.5 -177t214.5 -58q182 0 333 55
l-38 -233q-142 -47 -302 -47zM340 616h428q-12 236 -213 236q-199 0 -215 -236z" />
    <glyph glyph-name="Edotaccent" unicode="&#x116;" horiz-adv-x="1239" 
d="M516 1575v244h258v-244h-258zM166 0v1434h952l15 -246h-689v-342h611v-246h-611v-354h711l-39 -246h-950z" />
    <glyph glyph-name="edotaccent" unicode="&#x117;" horiz-adv-x="1091" 
d="M426 1186v244h258v-244h-258zM618 -20q-283 0 -409.5 136t-126.5 406q0 266 120 404.5t351 138.5q227 0 344 -130t117 -415v-80h-674q4 -119 70.5 -177t214.5 -58q182 0 333 55l-38 -233q-142 -47 -302 -47zM340 616h428q-12 236 -213 236q-199 0 -215 -236z" />
    <glyph glyph-name="Eogonek" unicode="&#x118;" horiz-adv-x="1239" 
d="M1116 0q-137 -94 -137 -180q0 -70 72 -70q18 0 34.5 4t24.5 8l6 2v-149q-49 -25 -129 -25q-92 0 -140 46.5t-48 125.5q0 68 44 130.5t124 107.5h-801v1434h952l15 -246h-689v-342h611v-246h-611v-354h711z" />
    <glyph glyph-name="eogonek" unicode="&#x119;" horiz-adv-x="1091" 
d="M1014 520v-80h-674q4 -119 70.5 -177t214.5 -58q86 0 181 17.5t152 37.5l-38 -233q-199 -109 -199 -213q0 -68 72 -68q18 0 34.5 3t24.5 7l6 4v-145q-49 -25 -129 -25q-92 0 -140 45.5t-48 122.5q0 133 170 226q-49 -4 -93 -4q-283 0 -409.5 136t-126.5 406
q0 266 120 404.5t351 138.5q227 0 344 -130t117 -415zM340 616h428q-12 236 -213 236q-98 0 -152.5 -59.5t-62.5 -176.5z" />
    <glyph glyph-name="Ecaron" unicode="&#x11a;" horiz-adv-x="1239" 
d="M463 1858l184 -144l184 144l170 -41l-227 -261h-254l-227 261zM166 0v1434h952l15 -246h-689v-342h611v-246h-611v-354h711l-39 -246h-950z" />
    <glyph glyph-name="ecaron" unicode="&#x11b;" horiz-adv-x="1091" 
d="M741 1473l170 -41l-227 -261h-254l-227 261l170 41l182 -144zM618 -20q-283 0 -409.5 136t-126.5 406q0 266 120 404.5t351 138.5q227 0 344 -130t117 -415v-80h-674q4 -119 70.5 -177t214.5 -58q182 0 333 55l-38 -233q-142 -47 -302 -47zM340 616h428q-12 236 -213 236
q-199 0 -215 -236z" />
    <glyph glyph-name="Gcircumflex" unicode="&#x11c;" horiz-adv-x="1273" 
d="M487 1556l-170 41l228 261h254l227 -261l-170 -41l-184 144zM737 -31q-328 0 -486.5 182.5t-158.5 565.5t159 565t486 182q225 0 369 -69l14 -256q-164 80 -383 80q-190 0 -276 -115t-86 -387.5t86 -387t276 -114.5q76 0 146 14v547h276v-727q-178 -80 -422 -80z" />
    <glyph glyph-name="gcircumflex" unicode="&#x11d;" horiz-adv-x="1155" 
d="M401 1167l-170 41l228 260h254l227 -260l-170 -41l-184 144zM494 -410q-168 0 -295 50l-39 239q152 -63 313 -63q145 0 214 65.5t71 214.5v13q-43 -43 -76 -62q-86 -47 -207 -47q-201 0 -295 124t-94 398q0 285 94 414t295 129q86 0 155.5 -32t93.5 -55.5t34 -39.5v-2
l39 108h219v-931q0 -264 -129 -393.5t-393 -129.5zM553 225q111 0 158 67.5t47 229.5q0 172 -47 245t-158 73t-158 -73t-47 -245q0 -162 47 -229.5t158 -67.5z" />
    <glyph glyph-name="Gbreve" unicode="&#x11e;" horiz-adv-x="1273" 
d="M678 1546q-154 0 -236 79t-90 210l207 41q6 -168 119 -168q111 0 117 168l206 -41q-8 -131 -89.5 -210t-233.5 -79zM737 -31q-328 0 -486.5 182.5t-158.5 565.5t159 565t486 182q225 0 369 -69l14 -256q-164 80 -383 80q-190 0 -276 -115t-86 -387.5t86 -387t276 -114.5
q76 0 146 14v547h276v-727q-178 -80 -422 -80z" />
    <glyph glyph-name="gbreve" unicode="&#x11f;" horiz-adv-x="1155" 
d="M590 1157q-154 0 -236 79t-90 210l207 41q6 -168 119 -168q111 0 117 168l206 -41q-8 -131 -89.5 -210t-233.5 -79zM494 -410q-168 0 -295 50l-39 239q152 -63 313 -63q145 0 214 65.5t71 214.5v13q-43 -43 -76 -62q-86 -47 -207 -47q-201 0 -295 124t-94 398
q0 285 94 414t295 129q86 0 155.5 -32t93.5 -55.5t34 -39.5v-2l39 108h219v-931q0 -264 -129 -393.5t-393 -129.5zM553 225q111 0 158 67.5t47 229.5q0 172 -47 245t-158 73t-158 -73t-47 -245q0 -162 47 -229.5t158 -67.5z" />
    <glyph glyph-name="Gdotaccent" unicode="&#x120;" horiz-adv-x="1273" 
d="M547 1575v244h258v-244h-258zM737 -31q-328 0 -486.5 182.5t-158.5 565.5t159 565t486 182q225 0 369 -69l14 -256q-164 80 -383 80q-190 0 -276 -115t-86 -387.5t86 -387t276 -114.5q76 0 146 14v547h276v-727q-178 -80 -422 -80z" />
    <glyph glyph-name="gdotaccent" unicode="&#x121;" horiz-adv-x="1155" 
d="M461 1186v244h258v-244h-258zM494 -410q-168 0 -295 50l-39 239q152 -63 313 -63q145 0 214 65.5t71 214.5v13q-43 -43 -76 -62q-86 -47 -207 -47q-201 0 -295 124t-94 398q0 285 94 414t295 129q86 0 155.5 -32t93.5 -55.5t34 -39.5v-2l39 108h219v-931
q0 -264 -129 -393.5t-393 -129.5zM553 225q111 0 158 67.5t47 229.5q0 172 -47 245t-158 73t-158 -73t-47 -245q0 -162 47 -229.5t158 -67.5z" />
    <glyph glyph-name="uni0122" unicode="&#x122;" horiz-adv-x="1273" 
d="M737 -31q-328 0 -486.5 182.5t-158.5 565.5t159 565t486 182q225 0 369 -69l14 -256q-164 80 -383 80q-190 0 -276 -115t-86 -387.5t86 -387t276 -114.5q76 0 146 14v547h276v-727q-178 -80 -422 -80zM559 -489l37 366h287l-193 -366h-131z" />
    <glyph glyph-name="uni0123" unicode="&#x123;" horiz-adv-x="1155" 
d="M446 1147l207 366h131l-51 -366h-287zM494 -410q-168 0 -295 50l-39 239q152 -63 313 -63q145 0 214 65.5t71 214.5v13q-43 -43 -76 -62q-86 -47 -207 -47q-201 0 -295 124t-94 398q0 285 94 414t295 129q86 0 155.5 -32t93.5 -55.5t34 -39.5v-2l39 108h219v-931
q0 -264 -129 -393.5t-393 -129.5zM553 225q111 0 158 67.5t47 229.5q0 172 -47 245t-158 73t-158 -73t-47 -245q0 -162 47 -229.5t158 -67.5z" />
    <glyph glyph-name="Hcircumflex" unicode="&#x124;" horiz-adv-x="1402" 
d="M518 1556l-170 41l227 261h254l228 -261l-170 -41l-185 144zM961 1434h276v-1434h-276v598h-517v-598h-278v1434h278v-586h517v586z" />
    <glyph glyph-name="hcircumflex" unicode="&#x125;" 
d="M82 1556l-170 41l227 261h254l228 -261l-170 -41l-185 144zM684 1065q180 0 275.5 -113.5t95.5 -302.5v-649h-258v588q0 125 -45 186.5t-148 61.5q-111 0 -159 -61.5t-48 -186.5v-588h-258v1413l258 41v-524q103 135 287 135z" />
    <glyph glyph-name="Hbar" unicode="&#x126;" horiz-adv-x="1466" 
d="M1423 1237v-160h-155v-1077h-277v598h-516v-598h-276v1077h-156v160h156v197h276v-197h516v197h277v-197h155zM991 848v229h-516v-229h516z" />
    <glyph glyph-name="hbar" unicode="&#x127;" 
d="M684 1024q180 0 275.5 -113.5t95.5 -302.5v-608h-258v547q0 125 -45 186.5t-148 61.5q-111 0 -159 -61.5t-48 -186.5v-547h-258v1133h-137v141h137v139l258 41v-180h369v-141h-369v-246q103 137 287 137z" />
    <glyph glyph-name="Itilde" unicode="&#x128;" horiz-adv-x="610" 
d="M100 1567l-129 96q74 104 125 142t109 38q47 0 110.5 -49t88 -49t45 19.5t57.5 78.5l129 -94q-74 -106 -123 -144t-109 -38q-47 0 -110.5 50t-88 50t-45 -19.5t-59.5 -80.5zM166 0v1434h278v-1434h-278z" />
    <glyph glyph-name="itilde" unicode="&#x129;" horiz-adv-x="536" 
d="M63 1178l-129 96q74 104 125.5 142t108.5 38q47 0 110.5 -49t88 -49t45 19.5t57.5 78.5l129 -94q-74 -106 -123 -144t-108 -38q-47 0 -110.5 50t-88.5 50t-45.5 -19.5t-59.5 -80.5zM139 0v1044h258v-1044h-258z" />
    <glyph glyph-name="Imacron" unicode="&#x12a;" horiz-adv-x="610" 
d="M39 1626v162h530v-162h-530zM166 0v1434h278v-1434h-278z" />
    <glyph glyph-name="imacron" unicode="&#x12b;" horiz-adv-x="536" 
d="M2 1237v162h530v-162h-530zM139 0v1044h258v-1044h-258z" />
    <glyph glyph-name="Ibreve" unicode="&#x12c;" horiz-adv-x="610" 
d="M307 1546q-147 0 -225 78t-90 211l207 41q6 -168 108 -168q100 0 107 168l207 -41q-12 -133 -90.5 -211t-223.5 -78zM166 0v1434h278v-1434h-278z" />
    <glyph glyph-name="ibreve" unicode="&#x12d;" horiz-adv-x="536" 
d="M268 1157q-147 0 -225 78t-90 211l207 41q6 -168 108 -168q100 0 107 168l207 -41q-12 -133 -90.5 -211t-223.5 -78zM139 0v1044h258v-1044h-258z" />
    <glyph glyph-name="Iogonek" unicode="&#x12e;" horiz-adv-x="608" 
d="M379 -250q18 0 34.5 4t24.5 8l6 2v-149q-49 -25 -129 -25q-92 0 -139 46.5t-47 125.5q0 145 164 238h-127v1434h276v-1434q-135 -94 -135 -180q0 -70 72 -70z" />
    <glyph glyph-name="iogonek" unicode="&#x12f;" horiz-adv-x="536" 
d="M139 1432h258v-244h-258v244zM139 0v1044h258v-1044q-135 -94 -135 -180q0 -70 70 -70q41 0 65 14v-149q-49 -25 -127 -25q-92 0 -140 46.5t-48 125.5q0 68 44 131.5t122 106.5h-109z" />
    <glyph glyph-name="Idotaccent" unicode="&#x130;" horiz-adv-x="610" 
d="M176 1575v244h258v-244h-258zM166 0v1434h278v-1434h-278z" />
    <glyph glyph-name="dotlessi" unicode="&#x131;" horiz-adv-x="536" 
d="M139 0v1044h258v-1044h-258z" />
    <glyph glyph-name="IJ" unicode="&#x132;" horiz-adv-x="1665" 
d="M166 0v1434h278v-1434h-278zM977 -31q-178 0 -295 51l-41 263q143 -59 317 -60q141 0 208 77t67 253v881h278v-881q1 -584 -534 -584z" />
    <glyph glyph-name="ij" unicode="&#x133;" horiz-adv-x="1089" 
d="M139 1188v244h258v-244h-258zM692 1188v244h258v-244h-258zM139 0v1044h258v-1044h-258zM578 -410q-88 0 -158 33l-41 238q72 -43 153 -43q80 0 120 52t40 173v1001h258v-1001q0 -229 -97 -341t-275 -112z" />
    <glyph glyph-name="Jcircumflex" unicode="&#x134;" horiz-adv-x="1054" 
d="M602 1556l-160 41l201 261h229l201 -261l-160 -41l-155 148zM367 -31q-178 0 -295 51l-41 263q143 -59 317 -60q141 0 208 77t67 253v881h278v-881q1 -584 -534 -584z" />
    <glyph glyph-name="jcircumflex" unicode="&#x135;" horiz-adv-x="552" 
d="M127 1167l-160 41l201 260h229l201 -260l-160 -41l-155 148zM41 -410q-88 0 -158 33l-41 238q72 -43 154 -43q80 0 120 52t40 173v1001h258v-1001q0 -229 -97.5 -341t-275.5 -112z" />
    <glyph glyph-name="uni0136" unicode="&#x136;" horiz-adv-x="1329" 
d="M1001 0l-413 604h-144v-604h-278v1434h278v-592h144l389 592h313l-469 -699l502 -735h-322zM526 -469l37 367h287l-193 -367h-131z" />
    <glyph glyph-name="uni0137" unicode="&#x137;" horiz-adv-x="1107" 
d="M788 0l-270 424h-121v-424h-258v1413l258 41v-813h117l262 403h293l-344 -501l369 -543h-306zM414 -469l37 367h286l-192 -367h-131z" />
    <glyph glyph-name="kgreenlandic" unicode="&#x138;" horiz-adv-x="1107" 
d="M139 0v1044h258v-409h117l262 409h293l-344 -507l369 -537h-306l-270 418h-121v-418h-258z" />
    <glyph glyph-name="Lacute" unicode="&#x139;" horiz-adv-x="1144" 
d="M299 1556l-184 41l207 261h292zM166 0v1434h278v-1184h670l-39 -250h-909z" />
    <glyph glyph-name="lacute" unicode="&#x13a;" horiz-adv-x="536" 
d="M260 1556l-184 41l207 261h292zM139 0v1413l258 41v-1454h-258z" />
    <glyph glyph-name="uni013B" unicode="&#x13b;" horiz-adv-x="1144" 
d="M166 0v1434h278v-1184h670l-39 -250h-909zM479 -469l37 367h287l-193 -367h-131z" />
    <glyph glyph-name="uni013C" unicode="&#x13c;" horiz-adv-x="536" 
d="M139 0v1413l258 41v-1454h-258zM104 -469l37 367h287l-192 -367h-132z" />
    <glyph glyph-name="Lcaron" unicode="&#x13d;" horiz-adv-x="1150" 
d="M166 0v1434h278v-1184h670l-39 -250h-909zM680 1067l37 367h287l-193 -367h-131z" />
    <glyph glyph-name="lcaron" unicode="&#x13e;" horiz-adv-x="536" 
d="M139 0v1413l258 41v-1454h-258zM508 1098l31 336h239l-162 -336h-108z" />
    <glyph glyph-name="Ldot" unicode="&#x13f;" horiz-adv-x="1157" 
d="M166 0v1434h278v-1184h670l-39 -250h-909zM702 668v293h302v-293h-302z" />
    <glyph glyph-name="ldot" unicode="&#x140;" horiz-adv-x="749" 
d="M139 0v1413l258 41v-1454h-258zM508 702v246h258v-246h-258z" />
    <glyph glyph-name="Lslash" unicode="&#x141;" horiz-adv-x="1175" 
d="M475 250h670l-39 -250h-909v602l-150 -82v199l150 84v631h278v-500l307 174v-199l-307 -178v-481z" />
    <glyph glyph-name="lslash" unicode="&#x142;" horiz-adv-x="686" 
d="M629 1057v-193l-154 -90v-774h-258v653l-154 -94v193l154 90v571l258 41v-489z" />
    <glyph glyph-name="Nacute" unicode="&#x143;" horiz-adv-x="1441" 
d="M700 1556l-184 41l207 261h293zM1018 1434h258v-1434h-238l-612 954v-954h-260v1434h240l612 -953v953z" />
    <glyph glyph-name="nacute" unicode="&#x144;" 
d="M590 1167l-184 41l206 260h293zM139 0v1044h217l41 -114q98 135 287 135q180 0 275.5 -113.5t95.5 -304.5v-647h-258v588q0 125 -45 186.5t-148 61.5q-111 0 -159 -61.5t-48 -186.5v-588h-258z" />
    <glyph glyph-name="uni0145" unicode="&#x145;" horiz-adv-x="1441" 
d="M1018 1434h258v-1434h-238l-612 954v-954h-260v1434h240l612 -953v953zM563 -469l37 367h287l-193 -367h-131z" />
    <glyph glyph-name="uni0146" unicode="&#x146;" 
d="M139 0v1044h217l41 -114q98 135 287 135q180 0 275.5 -113.5t95.5 -304.5v-647h-258v588q0 125 -45 186.5t-148 61.5q-111 0 -159 -61.5t-48 -186.5v-588h-258zM430 -469l37 367h287l-193 -367h-131z" />
    <glyph glyph-name="Ncaron" unicode="&#x147;" horiz-adv-x="1441" 
d="M528 1858l185 -144l184 144l170 -41l-227 -261h-254l-228 261zM1018 1434h258v-1434h-238l-612 954v-954h-260v1434h240l612 -953v953z" />
    <glyph glyph-name="ncaron" unicode="&#x148;" 
d="M786 1473l170 -41l-227 -261h-254l-227 261l170 41l182 -144zM139 0v1044h217l41 -114q98 135 287 135q180 0 275.5 -113.5t95.5 -304.5v-647h-258v588q0 125 -45 186.5t-148 61.5q-111 0 -159 -61.5t-48 -186.5v-588h-258z" />
    <glyph glyph-name="napostrophe" unicode="&#x149;" horiz-adv-x="1286" 
d="M41 1151l31 336h239l-161 -336h-109zM242 0v1044h217l41 -114q98 135 286 135q180 0 275.5 -113.5t95.5 -304.5v-647h-258v588q0 125 -45 186.5t-147 61.5q-111 0 -159 -61.5t-48 -186.5v-588h-258z" />
    <glyph glyph-name="Eng" unicode="&#x14a;" horiz-adv-x="1441" 
d="M1018 1434h258v-1434q0 -410 -334 -410q-35 0 -69.5 7.5t-53.5 13.5l-18 8l-37 219q63 -39 131 -39q72 0 107.5 46t35.5 155l-612 954v-954h-260v1434h240l612 -953v953z" />
    <glyph glyph-name="eng" unicode="&#x14b;" 
d="M684 1065q180 0 275.5 -113.5t95.5 -304.5v-647q0 -207 -88 -308.5t-248 -101.5q-80 0 -141 29l-37 219q57 -39 123 -39q133 0 133 201v588q0 125 -45 186.5t-148 61.5q-111 0 -159 -61.5t-48 -186.5v-588h-258v1044h217l41 -114q99 135 287 135z" />
    <glyph glyph-name="Omacron" unicode="&#x14c;" horiz-adv-x="1357" 
d="M373 1626v162h612v-162h-612zM680 -31q-301 0 -442.5 175t-141.5 572.5t141.5 572.5t442.5 175q299 0 440.5 -175t141.5 -572.5t-141.5 -572.5t-440.5 -175zM680 215q158 0 229.5 107.5t71.5 394.5q0 197 -35 308.5t-97.5 152.5t-169 41t-168.5 -41t-97 -153t-35 -308
q0 -287 71.5 -394.5t229.5 -107.5z" />
    <glyph glyph-name="omacron" unicode="&#x14d;" horiz-adv-x="1097" 
d="M242 1237v162h612v-162h-612zM549 -20q-242 0 -353.5 130t-111.5 412.5t111.5 412.5t353.5 130t353.5 -130t111.5 -412.5t-111.5 -412.5t-353.5 -130zM548.5 205q110.5 0 157 71.5t46.5 245.5t-46.5 246t-157 72t-156.5 -72t-46 -246t46 -245.5t156.5 -71.5z" />
    <glyph glyph-name="Obreve" unicode="&#x14e;" horiz-adv-x="1357" 
d="M682 1546q-154 0 -235.5 79t-90.5 210l207 41q6 -168 119 -168q111 0 117 168l207 -41q-8 -131 -90 -210t-234 -79zM680 -31q-301 0 -442.5 175t-141.5 572.5t141.5 572.5t442.5 175q299 0 440.5 -175t141.5 -572.5t-141.5 -572.5t-440.5 -175zM680 215
q158 0 229.5 107.5t71.5 394.5q0 197 -35 308.5t-97.5 152.5t-169 41t-168.5 -41t-97 -153t-35 -308q0 -287 71.5 -394.5t229.5 -107.5z" />
    <glyph glyph-name="obreve" unicode="&#x14f;" horiz-adv-x="1097" 
d="M549 1157q-154 0 -236 79t-90 210l207 41q6 -168 119 -168q111 0 117 168l206 -41q-8 -131 -89.5 -210t-233.5 -79zM549 -20q-242 0 -353.5 130t-111.5 412.5t111.5 412.5t353.5 130t353.5 -130t111.5 -412.5t-111.5 -412.5t-353.5 -130zM548.5 205q110.5 0 157 71.5
t46.5 245.5t-46.5 246t-157 72t-156.5 -72t-46 -246t46 -245.5t156.5 -71.5z" />
    <glyph glyph-name="Ohungarumlaut" unicode="&#x150;" horiz-adv-x="1357" 
d="M537 1556l-150 41l182 261h240zM864 1556l-149 41l180 261h242zM680 -31q-301 0 -442.5 175t-141.5 572.5t141.5 572.5t442.5 175q299 0 440.5 -175t141.5 -572.5t-141.5 -572.5t-440.5 -175zM680 215q158 0 229.5 107.5t71.5 394.5q0 197 -35 308.5t-97.5 152.5t-169 41
t-168.5 -41t-97 -153t-35 -308q0 -287 71.5 -394.5t229.5 -107.5z" />
    <glyph glyph-name="ohungarumlaut" unicode="&#x151;" horiz-adv-x="1097" 
d="M406 1167l-150 41l182 260h240zM733 1167l-149 41l180 260h242zM549 -20q-242 0 -353.5 130t-111.5 412.5t111.5 412.5t353.5 130t353.5 -130t111.5 -412.5t-111.5 -412.5t-353.5 -130zM548.5 205q110.5 0 157 71.5t46.5 245.5t-46.5 246t-157 72t-156.5 -72t-46 -246
t46 -245.5t156.5 -71.5z" />
    <glyph glyph-name="OE" unicode="&#x152;" horiz-adv-x="2033" 
d="M1257 246h693l-41 -246h-928v61q-106 -92 -301 -92q-301 0 -442.5 175t-141.5 572.5t141.5 572.5t442.5 175q195 0 301 -92v62h930l14 -246h-668v-342h590v-246h-590v-354zM680 215q158 0 229.5 107.5t71.5 394.5q0 197 -35 308.5t-97.5 152.5t-169 41t-168.5 -41
t-97 -153t-35 -308q0 -287 71.5 -394.5t229.5 -107.5z" />
    <glyph glyph-name="oe" unicode="&#x153;" horiz-adv-x="1744" 
d="M1665 520v-80h-672q4 -119 68.5 -177t214.5 -58q80 0 166 14t133 27l47 14l-41 -233q-143 -47 -311 -47q-252 0 -375 135q-102 -135 -346 -135q-242 0 -353.5 130t-111.5 412.5t111.5 412.5t353.5 130q238 0 342 -129q109 129 313 129q227 0 344 -130t117 -415zM1206 852
q-96 0 -150.5 -59.5t-62.5 -176.5h426q-10 236 -213 236zM548.5 205q110.5 0 157 71.5t46.5 245.5t-46.5 246t-157 72t-156.5 -72t-46 -246t46 -245.5t156.5 -71.5z" />
    <glyph glyph-name="Racute" unicode="&#x154;" horiz-adv-x="1353" 
d="M653 1556l-184 41l207 261h293zM1294 0h-311l-303 543h-236v-543h-278v1434h545q530 0 530 -451q0 -315 -276 -408zM444 1196v-420h267q127 0 188.5 50.5t61.5 159t-61.5 159.5t-188.5 51h-267z" />
    <glyph glyph-name="racute" unicode="&#x155;" horiz-adv-x="831" 
d="M446 1167l-184 41l207 260h293zM139 0v1044h217l41 -112q104 133 262 133q80 0 129 -27l17 -247q-70 49 -184 49q-100 0 -162 -58.5t-62 -173.5v-608h-258z" />
    <glyph glyph-name="uni0156" unicode="&#x156;" horiz-adv-x="1353" 
d="M1294 0h-311l-303 543h-236v-543h-278v1434h545q530 0 530 -451q0 -315 -276 -408zM444 1196v-420h267q127 0 188.5 50.5t61.5 159t-61.5 159.5t-188.5 51h-267zM526 -469l37 367h287l-193 -367h-131z" />
    <glyph glyph-name="uni0157" unicode="&#x157;" horiz-adv-x="831" 
d="M139 0v1044h217l41 -112q104 133 262 133q80 0 129 -27l17 -247q-70 49 -184 49q-100 0 -162 -58.5t-62 -173.5v-608h-258zM102 -469l37 367h287l-193 -367h-131z" />
    <glyph glyph-name="Rcaron" unicode="&#x158;" horiz-adv-x="1353" 
d="M481 1858l185 -144l184 144l170 -41l-227 -261h-254l-228 261zM1294 0h-311l-303 543h-236v-543h-278v1434h545q530 0 530 -451q0 -315 -276 -408zM444 1196v-420h267q127 0 188.5 50.5t61.5 159t-61.5 159.5t-188.5 51h-267z" />
    <glyph glyph-name="rcaron" unicode="&#x159;" horiz-adv-x="831" 
d="M643 1473l170 -41l-227 -261h-254l-228 261l170 41l183 -144zM139 0v1044h217l41 -112q104 133 262 133q80 0 129 -27l17 -247q-70 49 -184 49q-100 0 -162 -58.5t-62 -173.5v-608h-258z" />
    <glyph glyph-name="Sacute" unicode="&#x15a;" horiz-adv-x="1224" 
d="M604 1556l-184 41l207 261h293zM604 -31q-272 0 -473 72l-39 266q248 -92 498 -92q289 0 289 182q0 74 -48.5 114t-162.5 69l-252 63q-330 82 -330 406q0 193 133 304t395 111q274 0 455 -63l12 -254q-211 72 -444 72q-270 0 -270 -162q0 -76 46 -117t160 -70l244 -61
q170 -43 257 -137t87 -269q0 -203 -138 -318.5t-419 -115.5z" />
    <glyph glyph-name="sacute" unicode="&#x15b;" horiz-adv-x="980" 
d="M494 1167l-185 41l207 260h293zM467 -20q-199 0 -346 55l-41 235q158 -70 366 -69q215 0 216 100q0 45 -25 66.5t-100 35.5l-166 33q-152 31 -217.5 103.5t-65.5 203.5q0 154 109.5 238t330.5 84q178 0 318 -45l14 -232q-117 53 -303 54q-219 0 -219 -90
q0 -41 26.5 -62.5t102.5 -36.5l158 -30q158 -33 223 -105t65 -211q0 -327 -446 -327z" />
    <glyph glyph-name="Scircumflex" unicode="&#x15c;" horiz-adv-x="1224" 
d="M426 1556l-170 41l227 261h254l228 -261l-170 -41l-185 144zM604 -31q-272 0 -473 72l-39 266q248 -92 498 -92q289 0 289 182q0 74 -48.5 114t-162.5 69l-252 63q-330 82 -330 406q0 193 133 304t395 111q274 0 455 -63l12 -254q-211 72 -444 72q-270 0 -270 -162
q0 -76 46 -117t160 -70l244 -61q170 -43 257 -137t87 -269q0 -203 -138 -318.5t-419 -115.5z" />
    <glyph glyph-name="scircumflex" unicode="&#x15d;" horiz-adv-x="980" 
d="M315 1167l-170 41l228 260h254l227 -260l-170 -41l-184 144zM467 -20q-199 0 -346 55l-41 235q158 -70 366 -69q215 0 216 100q0 45 -25 66.5t-100 35.5l-166 33q-152 31 -217.5 103.5t-65.5 203.5q0 154 109.5 238t330.5 84q178 0 318 -45l14 -232q-117 53 -303 54
q-219 0 -219 -90q0 -41 26.5 -62.5t102.5 -36.5l158 -30q158 -33 223 -105t65 -211q0 -327 -446 -327z" />
    <glyph glyph-name="Scedilla" unicode="&#x15e;" horiz-adv-x="1224" 
d="M1161 403q0 -190 -121.5 -303.5t-369.5 -128.5l-15 -43q80 -6 119 -46t39 -103q0 -90 -60.5 -139.5t-170.5 -49.5q-29 0 -57.5 5.5t-43.5 11.5l-14 4v129q49 -20 108 -21q92 0 93 60q0 57 -80 57h-82l45 133q-246 10 -420 72l-39 266q248 -92 498 -92q289 0 289 182
q0 74 -48.5 114t-162.5 69l-252 63q-330 82 -330 406q0 193 133 304t395 111q274 0 455 -63l12 -254q-211 72 -444 72q-270 0 -270 -162q0 -76 46 -117t160 -70l244 -61q170 -43 257 -137.5t87 -268.5z" />
    <glyph glyph-name="scedilla" unicode="&#x15f;" horiz-adv-x="980" 
d="M913 307q0 -289 -348 -323l-20 -56q80 -6 118.5 -46t38.5 -103q0 -90 -60 -139.5t-171 -49.5q-29 0 -57.5 5.5t-42.5 11.5l-15 4v129q49 -20 109 -21q92 0 92 60q0 57 -80 57h-82l49 144q-188 4 -323 55l-41 235q158 -70 366 -69q215 0 216 100q0 45 -25 66.5t-100 35.5
l-166 33q-152 31 -217.5 103.5t-65.5 203.5q0 154 109.5 238t330.5 84q178 0 318 -45l14 -232q-117 53 -303 54q-219 0 -219 -90q0 -41 26.5 -62.5t102.5 -36.5l158 -30q158 -33 223 -105t65 -211z" />
    <glyph glyph-name="Scaron" unicode="&#x160;" horiz-adv-x="1224" 
d="M432 1858l184 -144l185 144l170 -41l-228 -261h-254l-227 261zM604 -31q-272 0 -473 72l-39 266q248 -92 498 -92q289 0 289 182q0 74 -48.5 114t-162.5 69l-252 63q-330 82 -330 406q0 193 133 304t395 111q274 0 455 -63l12 -254q-211 72 -444 72q-270 0 -270 -162
q0 -76 46 -117t160 -70l244 -61q170 -43 257 -137t87 -269q0 -203 -138 -318.5t-419 -115.5z" />
    <glyph glyph-name="scaron" unicode="&#x161;" horiz-adv-x="980" 
d="M690 1473l170 -41l-227 -261h-254l-227 261l170 41l182 -144zM467 -20q-199 0 -346 55l-41 235q158 -70 366 -69q215 0 216 100q0 45 -25 66.5t-100 35.5l-166 33q-152 31 -217.5 103.5t-65.5 203.5q0 154 109.5 238t330.5 84q178 0 318 -45l14 -232q-117 53 -303 54
q-219 0 -219 -90q0 -41 26.5 -62.5t102.5 -36.5l158 -30q158 -33 223 -105t65 -211q0 -327 -446 -327z" />
    <glyph glyph-name="uni0162" unicode="&#x162;" horiz-adv-x="1134" 
d="M707 0h-97l-24 -72q156 -12 155 -149q0 -90 -60 -139.5t-171 -49.5q-39 0 -78 6.5t-57 12.5l-19 6v129q66 -25 148 -25q92 0 92 62q0 55 -80 55h-82l55 164h-61v1184h-391v250h1061v-250h-391v-1184z" />
    <glyph glyph-name="uni0163" unicode="&#x163;" horiz-adv-x="849" 
d="M772 20q-59 -39 -184 -40l-19 -52q80 -6 119 -46t39 -103q0 -90 -60.5 -139.5t-170.5 -49.5q-29 0 -57.5 5.5t-43.5 9.5l-14 6v129q49 -20 108 -21q92 0 93 60q0 57 -80 57h-82l51 154q-270 55 -270 422v419h-164v213h164v205l258 60v-265h332v-213h-332v-419
q0 -113 39 -159t120 -46q98 0 193 35z" />
    <glyph glyph-name="Tcaron" unicode="&#x164;" horiz-adv-x="1134" 
d="M385 1858l184 -144l185 144l170 -41l-228 -261h-254l-227 261zM1098 1434v-250h-391v-1184h-279v1184h-391v250h1061z" />
    <glyph glyph-name="tcaron" unicode="&#x165;" horiz-adv-x="849" 
d="M612 1118l31 336h240l-162 -336h-109zM618 207q98 0 193 35l-39 -222q-63 -41 -199 -40q-373 0 -372 432v419h-164v213h164v205l258 60v-265h332v-213h-332v-419q0 -113 38.5 -159t120.5 -46z" />
    <glyph glyph-name="Tbar" unicode="&#x166;" horiz-adv-x="1155" 
d="M1108 1184h-391v-367h217v-180h-217v-637h-279v637h-217v180h217v367h-391v250h1061v-250z" />
    <glyph glyph-name="tbar" unicode="&#x167;" horiz-adv-x="866" 
d="M631 207q98 0 192 35l-39 -222q-63 -41 -198 -40q-373 0 -373 432v104h-164v162h164v153h-164v213h164v205l258 60v-265h332v-213h-332v-153h332v-162h-332v-104q0 -113 39 -159t121 -46z" />
    <glyph glyph-name="Utilde" unicode="&#x168;" horiz-adv-x="1368" 
d="M457 1567l-131 96q82 106 136 143t118 37q51 0 119.5 -49t93 -49t47 18.5t73.5 79.5l131 -94q-80 -106 -134 -144t-117 -38q-51 0 -120 50t-93 50q-27 0 -50.5 -18.5t-72.5 -81.5zM684 -31q-270 0 -400 132t-130 411v922h276v-922q0 -160 62.5 -228.5t191.5 -68.5
q127 0 189.5 68.5t62.5 228.5v922h278v-922q0 -279 -131 -411t-399 -132z" />
    <glyph glyph-name="utilde" unicode="&#x169;" 
d="M352 1178l-131 96q82 106 136.5 143t117.5 37q51 0 120 -49t93.5 -49t47 18.5t73.5 79.5l131 -94q-80 -106 -134 -144t-118 -38q-51 0 -119.5 50t-93.5 50q-27 0 -50.5 -18.5t-72.5 -81.5zM500 -20q-180 0 -275.5 113.5t-95.5 303.5v647h258v-587q0 -125 45 -186.5
t148 -61.5q111 0 158.5 61.5t47.5 186.5v587h258v-1044h-217l-41 115q-98 -135 -286 -135z" />
    <glyph glyph-name="Umacron" unicode="&#x16a;" horiz-adv-x="1368" 
d="M377 1626v162h612v-162h-612zM684 -31q-270 0 -400 132t-130 411v922h276v-922q0 -160 62.5 -228.5t191.5 -68.5q127 0 189.5 68.5t62.5 228.5v922h278v-922q0 -279 -131 -411t-399 -132z" />
    <glyph glyph-name="umacron" unicode="&#x16b;" 
d="M272 1237v162h613v-162h-613zM500 -20q-180 0 -275.5 113.5t-95.5 303.5v647h258v-587q0 -125 45 -186.5t148 -61.5q111 0 158.5 61.5t47.5 186.5v587h258v-1044h-217l-41 115q-98 -135 -286 -135z" />
    <glyph glyph-name="Uring" unicode="&#x16e;" horiz-adv-x="1368" 
d="M684 1546q-109 0 -178.5 64.5t-69.5 171.5q0 109 69.5 173t178.5 64q106 0 176 -64.5t70 -172.5q0 -106 -70 -171t-176 -65zM684 1677q47 0 74.5 29t27.5 76q0 49 -27.5 77.5t-74.5 28.5q-49 0 -76.5 -28.5t-27.5 -77.5q0 -47 27.5 -76t76.5 -29zM684 -31
q-270 0 -400 132t-130 411v922h276v-922q0 -160 62.5 -228.5t191.5 -68.5q127 0 189.5 68.5t62.5 228.5v922h278v-922q0 -279 -131 -411t-399 -132z" />
    <glyph glyph-name="uring" unicode="&#x16f;" 
d="M580 1157q-109 0 -178.5 64.5t-69.5 171.5q0 109 69.5 173t178.5 64q106 0 175.5 -64.5t69.5 -172.5q0 -106 -69.5 -171t-175.5 -65zM580 1288q47 0 74.5 29t27.5 76q0 49 -27.5 77.5t-74.5 28.5q-49 0 -77 -28.5t-28 -77.5q0 -47 28 -76t77 -29zM500 -20
q-180 0 -275.5 113.5t-95.5 303.5v647h258v-587q0 -125 45 -186.5t148 -61.5q111 0 158.5 61.5t47.5 186.5v587h258v-1044h-217l-41 115q-98 -135 -286 -135z" />
    <glyph glyph-name="Uhungarumlaut" unicode="&#x170;" horiz-adv-x="1368" 
d="M541 1556l-150 41l182 261h240zM868 1556l-149 41l180 261h242zM684 -31q-270 0 -400 132t-130 411v922h276v-922q0 -160 62.5 -228.5t191.5 -68.5q127 0 189.5 68.5t62.5 228.5v922h278v-922q0 -279 -131 -411t-399 -132z" />
    <glyph glyph-name="uhungarumlaut" unicode="&#x171;" 
d="M436 1167l-149 41l182 260h240zM764 1167l-150 41l181 260h241zM500 -20q-180 0 -275.5 113.5t-95.5 303.5v647h258v-587q0 -125 45 -186.5t148 -61.5q111 0 158.5 61.5t47.5 186.5v587h258v-1044h-217l-41 115q-98 -135 -286 -135z" />
    <glyph glyph-name="Uogonek" unicode="&#x172;" horiz-adv-x="1368" 
d="M936 1434h278v-922q0 -422 -311 -514q-133 -92 -133 -178q0 -70 72 -70q18 0 34.5 3t24.5 7l6 4v-149q-49 -25 -129 -25q-92 0 -140 46.5t-48 125.5q0 117 121 207h-27q-270 0 -400 132t-130 411v922h276v-922q0 -160 62.5 -228.5t191.5 -68.5q127 0 189.5 68.5
t62.5 228.5v922z" />
    <glyph glyph-name="uogonek" unicode="&#x173;" 
d="M1044 0q-137 -94 -137 -180q0 -70 72 -70q18 0 34.5 4t22.5 8l8 2v-149q-49 -25 -129 -25q-92 0 -140 46.5t-48 125.5q0 68 44 130.5t124 107.5h-70l-39 115q-102 -135 -288 -135q-178 0 -273.5 113.5t-95.5 301.5v649h258v-587q0 -125 44 -186.5t147 -61.5
q113 0 160.5 61.5t47.5 186.5v587h258v-1044z" />
    <glyph glyph-name="Wcircumflex" unicode="&#x174;" horiz-adv-x="1849" 
d="M739 1556l-170 41l228 261h254l227 -261l-170 -41l-184 144zM1534 1434h270l-291 -1434h-268l-319 821l-320 -821h-268l-293 1434h277l186 -1020l403 1020h37l400 -1022z" />
    <glyph glyph-name="wcircumflex" unicode="&#x175;" horiz-adv-x="1533" 
d="M582 1167l-170 41l227 260h254l227 -260l-170 -41l-184 144zM1237 1044h248l-240 -1044h-264l-215 526l-213 -526h-264l-238 1044h254l156 -712l295 710h32l293 -704z" />
    <glyph glyph-name="Ycircumflex" unicode="&#x176;" horiz-adv-x="1265" 
d="M442 1556l-170 41l228 261h254l227 -261l-170 -41l-184 144zM1247 1434l-475 -895v-539h-278v539l-480 895h308l315 -609l311 609h299z" />
    <glyph glyph-name="ycircumflex" unicode="&#x177;" horiz-adv-x="1050" 
d="M346 1167l-170 41l227 260h254l228 -260l-170 -41l-185 144zM297 -410q-106 0 -162 35l-41 221q61 -29 137 -28q117 0 158 116l25 68l-402 1042h279l252 -716l221 716h268l-411 -1179q-97 -275 -324 -275z" />
    <glyph glyph-name="Ydieresis" unicode="&#x178;" horiz-adv-x="1265" 
d="M307 1577v244h238v-244h-238zM713 1577v244h237v-244h-237zM1247 1434l-475 -895v-539h-278v539l-480 895h308l315 -609l311 609h299z" />
    <glyph glyph-name="Zacute" unicode="&#x179;" horiz-adv-x="1181" 
d="M584 1556l-185 41l207 261h293zM414 250h692l-41 -250h-987v225l676 959h-650v250h981v-226z" />
    <glyph glyph-name="zacute" unicode="&#x17a;" horiz-adv-x="978" 
d="M475 1167l-184 41l207 260h293zM393 221h516l-39 -221h-792v195l489 626h-471v223h787v-194z" />
    <glyph glyph-name="Zdotaccent" unicode="&#x17b;" horiz-adv-x="1181" 
d="M465 1575v244h258v-244h-258zM414 250h692l-41 -250h-987v225l676 959h-650v250h981v-226z" />
    <glyph glyph-name="zdotaccent" unicode="&#x17c;" horiz-adv-x="978" 
d="M356 1186v244h258v-244h-258zM393 221h516l-39 -221h-792v195l489 626h-471v223h787v-194z" />
    <glyph glyph-name="Zcaron" unicode="&#x17d;" horiz-adv-x="1181" 
d="M412 1858l184 -144l184 144l170 -41l-227 -261h-254l-227 261zM414 250h692l-41 -250h-987v225l676 959h-650v250h981v-226z" />
    <glyph glyph-name="zcaron" unicode="&#x17e;" horiz-adv-x="978" 
d="M672 1473l170 -41l-228 -261h-254l-227 261l170 41l182 -144zM393 221h516l-39 -221h-792v195l489 626h-471v223h787v-194z" />
    <glyph glyph-name="longs" unicode="&#x17f;" horiz-adv-x="649" 
d="M801 1423l14 -225q-68 39 -178 39q-86 0 -127 -43t-41 -147v-1047h-258v831h-164v213h164v3q0 408 391 407q103 0 199 -31z" />
    <glyph glyph-name="florin" unicode="&#x192;" horiz-adv-x="1067" 
d="M868 1454q111 0 172 -33l-2 -237q-57 43 -143 43q-80 0 -129 -51.5t-72 -174.5l-14 -81h215l-37 -213h-215l-123 -705q-70 -412 -426 -412q-109 0 -170 33l2 238q57 -43 142 -43q82 0 130 50t70 175l115 664h-213l37 213h215l20 122q68 412 426 412z" />
    <glyph glyph-name="Aringacute" unicode="&#x1fa;" horiz-adv-x="1357" 
d="M1034 2228l-313 -280l-186 41l206 239h293zM673.5 1464q-112.5 0 -185 62.5t-72.5 167t72.5 166t185 61.5t185.5 -61.5t73 -166t-73 -167t-185.5 -62.5zM674 1800q-53 0 -84 -28.5t-31 -77.5t31 -78t84 -29t83.5 29t30.5 78t-30.5 77.5t-83.5 28.5zM1055 0l-105 301h-553
l-104 -301h-285l535 1434h270l537 -1434h-295zM477 539h393l-196 569z" />
    <glyph glyph-name="aringacute" unicode="&#x1fb;" horiz-adv-x="1083" 
d="M545 1624l-185 43l203 219h297zM522.5 1116q-112.5 0 -186.5 62.5t-74 167t74 167t186.5 62.5t186 -62.5t73.5 -167t-73.5 -167t-186 -62.5zM522 1247q53 0 85 26.5t32 72t-32 72t-85 26.5q-55 0 -85.5 -26.5t-30.5 -71.5q0 -47 30.5 -73t85.5 -26zM414 -20
q-168 0 -258 87t-90 240q0 143 94 224t268 81h268v52q0 92 -47 131t-166 39q-172 0 -336 -41l41 231q154 35 342 35q424 0 424 -395v-664h-217l-41 109q-65 -129 -282 -129zM475 182q119 0 170 43t51 154v55h-221q-152 0 -151 -125q-1 -127 151 -127z" />
    <glyph glyph-name="AEacute" unicode="&#x1fc;" horiz-adv-x="2004" 
d="M1636 1858l-315 -302l-184 41l206 261h293zM1210 246h711l-39 -246h-950v332h-477l-191 -332h-287l840 1434h1067l14 -246h-688v-342h611v-246h-611v-354zM592 569h340v594z" />
    <glyph glyph-name="aeacute" unicode="&#x1fd;" horiz-adv-x="1708" 
d="M870 1167l-184 41l207 260h293zM455 -20q-391 0 -392 327q0 145 94.5 225t270.5 80h270v52q0 92 -46 131t-165 39q-174 0 -333 -41l41 231q154 35 340 35q215 0 311 -115q117 121 323 121q227 0 344 -130t117 -415v-84h-674q4 -119 70 -175t215 -56q180 0 332 55
l-39 -233q-137 -47 -299 -47q-266 0 -395 139q-104 -139 -385 -139zM956 612h426q-8 240 -211 240t-215 -240zM475 182q121 0 172 43t51 154v57h-237q-68 0 -103.5 -33.5t-35.5 -95.5q-1 -125 153 -125z" />
    <glyph glyph-name="Oslashacute" unicode="&#x1fe;" horiz-adv-x="1392" 
d="M1030 1858l-315 -302l-185 41l207 261h293zM1343 1452l-165 -225q100 -178 100 -510q0 -397 -141.5 -572.5t-442.5 -175.5q-246 0 -381 115l-77 -102h-187l166 221q-102 178 -102 514q0 397 141 572t440 175q248 0 385 -114l78 102h186zM694 1219q-106 0 -168.5 -41
t-97.5 -153t-35 -308q0 -164 25 -268l489 686q-68 84 -213 84zM694 215q106 0 169 42t97.5 153.5t34.5 306.5q0 162 -22 264l-490 -686q68 -80 211 -80z" />
    <glyph glyph-name="oslashacute" unicode="&#x1ff;" horiz-adv-x="1138" 
d="M872 1468l-315 -301l-184 41l207 260h292zM1106 1065l-148 -182q74 -127 74 -361q0 -283 -110.5 -412.5t-352.5 -129.5q-197 0 -305 83l-69 -83h-164l149 180q-76 129 -76 362q0 283 112 413t353 130q197 0 305 -84l68 84h164zM569 840q-111 0 -156.5 -72t-45.5 -246
q0 -84 10 -141l334 405q-46 54 -142 54zM569 205q111 0 156 71.5t45 245.5q0 80 -8 137l-334 -403q45 -51 141 -51z" />
    <glyph glyph-name="uni0218" unicode="&#x218;" horiz-adv-x="1224" 
d="M604 -31q-272 0 -473 72l-39 266q248 -92 498 -92q289 0 289 182q0 74 -48.5 114t-162.5 69l-252 63q-330 82 -330 406q0 193 133 304t395 111q274 0 455 -63l12 -254q-211 72 -444 72q-270 0 -270 -162q0 -76 46 -117t160 -70l244 -61q170 -43 257 -137t87 -269
q0 -203 -138 -318.5t-419 -115.5zM453 -469l36 367h287l-192 -367h-131z" />
    <glyph glyph-name="uni0219" unicode="&#x219;" horiz-adv-x="980" 
d="M467 -20q-199 0 -346 55l-41 235q158 -70 366 -69q215 0 216 100q0 45 -25 66.5t-100 35.5l-166 33q-152 31 -217.5 103.5t-65.5 203.5q0 154 109.5 238t330.5 84q178 0 318 -45l14 -232q-117 53 -303 54q-219 0 -219 -90q0 -41 26.5 -62.5t102.5 -36.5l158 -30
q158 -33 223 -105t65 -211q0 -327 -446 -327zM342 -469l37 367h287l-193 -367h-131z" />
    <glyph glyph-name="uni021A" unicode="&#x21a;" horiz-adv-x="1134" 
d="M1098 1434v-250h-391v-1184h-279v1184h-391v250h1061zM403 -469l37 367h287l-192 -367h-132z" />
    <glyph glyph-name="uni021B" unicode="&#x21b;" horiz-adv-x="849" 
d="M618 207q98 0 193 35l-39 -222q-63 -41 -199 -40q-373 0 -372 432v419h-164v213h164v205l258 60v-265h332v-213h-332v-419q0 -113 38.5 -159t120.5 -46zM367 -469l36 367h287l-192 -367h-131z" />
    <glyph glyph-name="uni0237" unicode="&#x237;" horiz-adv-x="552" 
d="M41 -410q-88 0 -158 33l-41 238q72 -43 154 -43q80 0 120 52t40 173v1001h258v-1001q0 -229 -97.5 -341t-275.5 -112z" />
    <glyph glyph-name="circumflex" unicode="&#x2c6;" horiz-adv-x="790" 
d="M211 1167l-170 41l227 260h254l228 -260l-170 -41l-185 144z" />
    <glyph glyph-name="caron" unicode="&#x2c7;" horiz-adv-x="790" 
d="M539 1473l170 -41l-228 -261h-254l-227 261l170 41l182 -144z" />
    <glyph glyph-name="breve" unicode="&#x2d8;" horiz-adv-x="731" 
d="M326 1157q-154 0 -236 79t-90 210l207 41q6 -168 119 -168q111 0 116 168l207 -41q-8 -131 -89.5 -210t-233.5 -79z" />
    <glyph glyph-name="dotaccent" unicode="&#x2d9;" horiz-adv-x="339" 
d="M0 1186v244h258v-244h-258z" />
    <glyph glyph-name="ring" unicode="&#x2da;" horiz-adv-x="575" 
d="M260 1157q-109 0 -178.5 64.5t-69.5 171.5q0 109 70 173t178 64q106 0 176 -64.5t70 -172.5q0 -106 -70 -171t-176 -65zM260 1288q47 0 74.5 29t27.5 76q0 49 -27.5 77.5t-74.5 28.5q-49 0 -76.5 -28.5t-27.5 -77.5q0 -47 27.5 -76t76.5 -29z" />
    <glyph glyph-name="ogonek" unicode="&#x2db;" horiz-adv-x="397" 
d="M188 -410q-92 0 -140 46.5t-48 125.5q0 68 44 131.5t122 106.5h149q-135 -94 -135 -180q0 -70 70 -70q18 0 34.5 4t22.5 8l8 2v-149q-47 -25 -127 -25z" />
    <glyph glyph-name="tilde" unicode="&#x2dc;" horiz-adv-x="800" 
d="M131 1178l-131 96q82 106 136 143t118 37q51 0 119.5 -49t93.5 -49t47.5 18.5t73.5 79.5l131 -94q-80 -106 -134.5 -144t-117.5 -38q-51 0 -119.5 50t-93.5 50q-27 0 -50.5 -18.5t-72.5 -81.5z" />
    <glyph glyph-name="hungarumlaut" unicode="&#x2dd;" horiz-adv-x="831" 
d="M150 1167l-150 41l182 260h240zM477 1167l-149 41l180 260h242z" />
    <glyph glyph-name="gravecomb" unicode="&#x300;" horiz-adv-x="0" 
d="M-225 1167l-316 301h293l207 -260z" />
    <glyph glyph-name="acutecomb" unicode="&#x301;" horiz-adv-x="0" 
d="M-315 1167l-185 41l207 260h293z" />
    <glyph glyph-name="uni0302" unicode="&#x302;" horiz-adv-x="0" 
d="M-580 1167l-170 41l228 260h254l227 -260l-170 -41l-184 144z" />
    <glyph glyph-name="tildecomb" unicode="&#x303;" horiz-adv-x="0" 
d="M-629 1178l-131 96q82 106 136.5 143t117.5 37q51 0 120 -49t93.5 -49t47 18.5t73.5 79.5l131 -94q-80 -106 -134 -144t-118 -38q-51 0 -119.5 50t-93.5 50q-27 0 -50.5 -18.5t-72.5 -81.5z" />
    <glyph glyph-name="uni0304" unicode="&#x304;" horiz-adv-x="0" 
d="M-653 1237v162h612v-162h-612z" />
    <glyph glyph-name="uni0306" unicode="&#x306;" horiz-adv-x="0" 
d="M-365 1157q-154 0 -235.5 79t-89.5 210l207 41q6 -168 118 -168q111 0 117 168l207 -41q-8 -131 -90 -210t-234 -79z" />
    <glyph glyph-name="uni0307" unicode="&#x307;" horiz-adv-x="0" 
d="M-299 1186v244h258v-244h-258z" />
    <glyph glyph-name="uni0308" unicode="&#x308;" horiz-adv-x="0" 
d="M-684 1188v244h238v-244h-238zM-279 1188v244h238v-244h-238z" />
    <glyph glyph-name="uni030A" unicode="&#x30a;" horiz-adv-x="0" 
d="M-287 1157q-109 0 -178.5 64.5t-69.5 171.5q0 109 70 173t178 64q106 0 176 -64.5t70 -172.5q0 -106 -70 -171t-176 -65zM-287 1288q47 0 75 29t28 76q0 49 -28 77.5t-75 28.5q-49 0 -76.5 -28.5t-27.5 -77.5q0 -47 27.5 -76t76.5 -29z" />
    <glyph glyph-name="uni030B" unicode="&#x30b;" horiz-adv-x="0" 
d="M-641 1167l-150 41l183 260h239zM-313 1167l-150 41l180 260h242z" />
    <glyph glyph-name="uni030C" unicode="&#x30c;" horiz-adv-x="0" 
d="M-211 1473l170 -41l-227 -261h-254l-228 261l170 41l183 -144z" />
    <glyph glyph-name="uni0312" unicode="&#x312;" horiz-adv-x="0" 
d="M-379 1536l207 367h131l-51 -367h-287z" />
    <glyph glyph-name="uni0326" unicode="&#x326;" horiz-adv-x="0" 
d="M-365 -469l37 367h287l-192 -367h-132z" />
    <glyph glyph-name="uni0327" unicode="&#x327;" horiz-adv-x="0" 
d="M-272 -410q-29 0 -57.5 5.5t-43.5 11.5l-14 4v129q49 -20 108 -21q92 0 93 60q0 57 -80 57h-82l69 207h121l-41 -115q158 -12 158 -149q0 -90 -60 -139.5t-171 -49.5z" />
    <glyph glyph-name="uni0328" unicode="&#x328;" horiz-adv-x="0" 
d="M-168 -410q-92 0 -140 46.5t-48 125.5q0 68 44 131.5t122 106.5h149q-135 -94 -135 -180q0 -70 70 -70q18 0 34.5 4t22.5 8l8 2v-149q-47 -25 -127 -25z" />
    <glyph glyph-name="tonos" unicode="&#x384;" horiz-adv-x="581" 
d="M225 1167l-184 41l207 260h293z" />
    <glyph glyph-name="dieresistonos" unicode="&#x385;" horiz-adv-x="1005" 
d="M483 1167l-176 41l146 260h272zM45 1188v244h229v-244h-229zM731 1188v244h230v-244h-230z" />
    <glyph glyph-name="Alphatonos" unicode="&#x386;" horiz-adv-x="1357" 
d="M463 1434l-316 -301l-184 41l207 260h293zM1055 0l-105 301h-553l-104 -301h-285l535 1434h270l537 -1434h-295zM477 539h393l-196 569z" />
    <glyph glyph-name="Epsilontonos" unicode="&#x388;" horiz-adv-x="1239" 
d="M-213 1133l-184 41l207 260h292zM166 0v1434h952l15 -246h-689v-342h611v-246h-611v-354h711l-39 -246h-950z" />
    <glyph glyph-name="Etatonos" unicode="&#x389;" horiz-adv-x="1402" 
d="M-215 1133l-184 41l206 260h293zM961 1434h276v-1434h-276v598h-517v-598h-278v1434h278v-586h517v586z" />
    <glyph glyph-name="Iotatonos" unicode="&#x38a;" horiz-adv-x="610" 
d="M-205 1133l-184 41l207 260h293zM166 0v1434h278v-1434h-278z" />
    <glyph glyph-name="Omicrontonos" unicode="&#x38c;" horiz-adv-x="1357" 
d="M680 -31q-301 0 -442.5 175t-141.5 572.5t141.5 572.5t442.5 175q299 0 440.5 -175t141.5 -572.5t-141.5 -572.5t-440.5 -175zM-94 1133l-185 41l207 260h293zM680 215q158 0 229.5 107.5t71.5 394.5q0 197 -35 308.5t-97.5 152.5t-169 41t-168.5 -41t-97 -153t-35 -308
q0 -287 71.5 -394.5t229.5 -107.5z" />
    <glyph glyph-name="Upsilontonos" unicode="&#x38e;" horiz-adv-x="1265" 
d="M-336 1133l-184 41l207 260h293zM1247 1434l-475 -895v-539h-278v539l-480 895h308l315 -609l311 609h299z" />
    <glyph glyph-name="Omegatonos" unicode="&#x38f;" horiz-adv-x="1441" 
d="M1124 209h197v-209h-518v182q49 12 86 41t68.5 86.5t48 159.5t16.5 248q0 197 -35 308.5t-97.5 152.5t-169 41t-169 -41t-97 -153t-34.5 -308q0 -145 16.5 -247.5t48 -160t68.5 -86t86 -41.5v-182h-518v209h196q-180 174 -180 549q0 377 141.5 541.5t442.5 164.5
t442.5 -164.5t141.5 -541.5q-1 -375 -181 -549zM-47 1434h293l-316 -301l-184 41z" />
    <glyph glyph-name="iotadieresistonos" unicode="&#x390;" horiz-adv-x="618" 
d="M252 1167l-176 41l129 260h272zM-184 1188v244h225v-244h-225zM485 1188v244h226v-244h-226zM424 -20q-152 0 -220.5 81.5t-68.5 247.5v735h258v-694q0 -80 24.5 -111.5t80.5 -31.5q68 0 112 24l-41 -221q-45 -30 -145 -30z" />
    <glyph glyph-name="Alpha" unicode="&#x391;" horiz-adv-x="1357" 
d="M1055 0l-105 301h-553l-104 -301h-285l535 1434h270l537 -1434h-295zM477 539h393l-196 569z" />
    <glyph glyph-name="Beta" unicode="&#x392;" horiz-adv-x="1347" 
d="M166 0v1434h565q483 0 483 -392q0 -213 -157 -303q193 -88 196 -331q2 -205 -121.5 -306.5t-377.5 -101.5h-588zM444 838h287q104 0 154.5 42t50.5 136t-50 137t-155 43h-287v-358zM444 238h310q113 0 167 44t54 144q0 96 -54.5 139t-166.5 43h-310v-370z" />
    <glyph glyph-name="Gamma" unicode="&#x393;" horiz-adv-x="1093" 
d="M166 0v1434h889v-250h-611v-1184h-278z" />
    <glyph glyph-name="uni0394" unicode="&#x394;" horiz-adv-x="1357" 
d="M813 1434l537 -1434h-1342l535 1434h270zM676 1110l-303 -872h602z" />
    <glyph glyph-name="Epsilon" unicode="&#x395;" horiz-adv-x="1239" 
d="M166 0v1434h952l15 -246h-689v-342h611v-246h-611v-354h711l-39 -246h-950z" />
    <glyph glyph-name="Zeta" unicode="&#x396;" horiz-adv-x="1181" 
d="M414 250h692l-41 -250h-987v225l676 959h-650v250h981v-226z" />
    <glyph glyph-name="Eta" unicode="&#x397;" horiz-adv-x="1402" 
d="M961 1434h276v-1434h-276v598h-517v-598h-278v1434h278v-586h517v586z" />
    <glyph glyph-name="Theta" unicode="&#x398;" horiz-adv-x="1370" 
d="M686 -31q-303 0 -446.5 175t-143.5 572.5t143.5 572.5t446.5 175q301 0 444.5 -175t143.5 -572.5t-143.5 -572.5t-444.5 -175zM686 215q166 0 240.5 107.5t74.5 394.5t-74.5 394.5t-240.5 107.5q-111 0 -177.5 -41t-103 -153t-36.5 -308q0 -287 75.5 -394.5t241.5 -107.5
zM911 637h-444v162h444v-162z" />
    <glyph glyph-name="Iota" unicode="&#x399;" horiz-adv-x="610" 
d="M166 0v1434h278v-1434h-278z" />
    <glyph glyph-name="Kappa" unicode="&#x39a;" horiz-adv-x="1329" 
d="M1001 0l-413 604h-144v-604h-278v1434h278v-592h144l389 592h313l-469 -699l502 -735h-322z" />
    <glyph glyph-name="Lambda" unicode="&#x39b;" horiz-adv-x="1320" 
d="M1309 0h-301l-351 1051l-354 -1051h-291l518 1434h263z" />
    <glyph glyph-name="Mu" unicode="&#x39c;" horiz-adv-x="1701" 
d="M1305 1434h231v-1434h-264v975l-422 -606l-426 606v-975h-258v1434h233l453 -652z" />
    <glyph glyph-name="Nu" unicode="&#x39d;" horiz-adv-x="1441" 
d="M1018 1434h258v-1434h-238l-612 954v-954h-260v1434h240l612 -953v953z" />
    <glyph glyph-name="Xi" unicode="&#x39e;" horiz-adv-x="1206" 
d="M106 1186l17 248h962l17 -248h-996zM197 598v250h813v-250h-813zM125 0l-47 250h1052l-47 -250h-958z" />
    <glyph glyph-name="Omicron" unicode="&#x39f;" horiz-adv-x="1357" 
d="M680 -31q-301 0 -442.5 175t-141.5 572.5t141.5 572.5t442.5 175q299 0 440.5 -175t141.5 -572.5t-141.5 -572.5t-440.5 -175zM680 215q158 0 229.5 107.5t71.5 394.5q0 197 -35 308.5t-97.5 152.5t-169 41t-168.5 -41t-97 -153t-35 -308q0 -287 71.5 -394.5
t229.5 -107.5z" />
    <glyph glyph-name="Pi" unicode="&#x3a0;" horiz-adv-x="1390" 
d="M166 0v1434h1059v-1434h-277v1184h-504v-1184h-278z" />
    <glyph glyph-name="Rho" unicode="&#x3a1;" horiz-adv-x="1296" 
d="M166 0v1434h553q260 0 391 -120t131 -343q0 -221 -131 -341t-391 -120h-275v-510h-278zM444 748h275q242 0 242 223q0 109 -61.5 167t-180.5 58h-275v-448z" />
    <glyph glyph-name="Sigma" unicode="&#x3a3;" horiz-adv-x="1155" 
d="M406 246h677l-39 -246h-958v236l403 489l-395 471v238h953l12 -246h-645l372 -465z" />
    <glyph glyph-name="Tau" unicode="&#x3a4;" horiz-adv-x="1134" 
d="M1098 1434v-250h-391v-1184h-279v1184h-391v250h1061z" />
    <glyph glyph-name="Upsilon" unicode="&#x3a5;" horiz-adv-x="1265" 
d="M1247 1434l-475 -895v-539h-278v539l-480 895h308l315 -609l311 609h299z" />
    <glyph glyph-name="Phi" unicode="&#x3a6;" horiz-adv-x="1755" 
d="M1016 1337q338 0 497.5 -149.5t159.5 -444t-159.5 -444t-497.5 -149.5v-150h-277v150q-338 0 -497.5 149.5t-159.5 444t159.5 444t497.5 149.5v133h277v-133zM365 743.5q0 -200.5 89 -285.5t294 -87v745q-205 -2 -294 -87t-89 -285.5zM1008 371q205 2 294 87t89 285.5
t-89.5 285.5t-293.5 87v-745z" />
    <glyph glyph-name="Chi" unicode="&#x3a7;" horiz-adv-x="1284" 
d="M1276 0h-328l-307 512l-319 -512h-316l475 733l-442 701h326l282 -467l287 467h313l-442 -691z" />
    <glyph glyph-name="Psi" unicode="&#x3a8;" horiz-adv-x="1734" 
d="M1360 1434h282v-539q0 -295 -154.5 -444.5t-481.5 -149.5v-301h-277v301q-328 0 -482.5 149.5t-154.5 444.5v539h283v-539q0 -199 83 -284t271 -87v910h277v-910q188 2 271 87t83 284v539z" />
    <glyph glyph-name="uni03A9" unicode="&#x3a9;" horiz-adv-x="1441" 
d="M1124 209h197v-209h-518v182q49 12 86 41t68.5 86.5t48 159.5t16.5 248q0 197 -35 308.5t-97.5 152.5t-169 41t-169 -41t-97 -153t-34.5 -308q0 -145 16.5 -247.5t48 -160t68.5 -86t86 -41.5v-182h-518v209h196q-180 174 -180 549q0 377 141.5 541.5t442.5 164.5
t442.5 -164.5t141.5 -541.5q-1 -375 -181 -549z" />
    <glyph glyph-name="Iotadieresis" unicode="&#x3aa;" horiz-adv-x="610" 
d="M-18 1577v244h237v-244h-237zM387 1577v244h238v-244h-238zM166 0v1434h278v-1434h-278z" />
    <glyph glyph-name="Upsilondieresis" unicode="&#x3ab;" horiz-adv-x="1265" 
d="M311 1577v244h238v-244h-238zM717 1577v244h237v-244h-237zM1247 1434l-475 -895v-539h-278v539l-480 895h308l315 -609l311 609h299z" />
    <glyph glyph-name="alphatonos" unicode="&#x3ac;" horiz-adv-x="1155" 
d="M860 1468l-315 -301l-185 41l207 260h293zM797 1044h219v-1044h-219l-37 111l-2 -2v-3q-74 -104 -228 -122q-27 -4 -55 -4q-201 0 -295 129t-94 413.5t94 413.5t295 129q86 0 155.5 -32t93.5 -55.5t34 -39.5v-2l2 -2zM553 205q111 0 158 72.5t47 244.5t-47 245t-158 73
t-158 -73t-47 -245t47 -244.5t158 -72.5z" />
    <glyph glyph-name="epsilontonos" unicode="&#x3ad;" horiz-adv-x="948" 
d="M776 1468l-315 -301l-185 41l207 260h293zM528 197q190 0 353 47l-35 -217q-147 -47 -326 -47q-225 0 -330.5 77.5t-105.5 237.5q0 180 154 250q-133 66 -134 215q0 154 100.5 229.5t315.5 75.5q145 0 324 -47l14 -209q-164 41 -323 41q-172 0 -173 -100q0 -59 38 -87
t122 -28h176v-213h-188q-168 0 -168 -111q0 -59 44 -86.5t142 -27.5z" />
    <glyph glyph-name="etatonos" unicode="&#x3ae;" 
d="M575 1167l-184 41l207 260h293zM797 -408v996q0 125 -45 186.5t-148 61.5q-111 0 -159 -61.5t-48 -186.5v-588h-258v1044h217l41 -114q98 135 287 135q180 0 275.5 -113.5t95.5 -304.5v-1014z" />
    <glyph glyph-name="iotatonos" unicode="&#x3af;" horiz-adv-x="618" 
d="M254 1167l-184 41l206 260h293zM424 -20q-152 0 -220.5 81.5t-68.5 247.5v735h258v-694q0 -80 24.5 -111.5t80.5 -31.5q68 0 112 24l-41 -221q-45 -30 -145 -30z" />
    <glyph glyph-name="upsilondieresistonos" unicode="&#x3b0;" horiz-adv-x="1161" 
d="M559 1167l-176 41l145 260h273zM121 1188v244h229v-244h-229zM807 1188v244h229v-244h-229zM1034 1044v-604q0 -240 -108.5 -350t-346 -110t-345 110.5t-107.5 349.5v604h262v-616q0 -121 43 -172t147.5 -51t148.5 51t44 172v616h262z" />
    <glyph glyph-name="alpha" unicode="&#x3b1;" horiz-adv-x="1155" 
d="M797 1044h219v-1044h-219l-37 111l-2 -2v-3q-74 -104 -228 -122q-27 -4 -55 -4q-201 0 -295 129t-94 413.5t94 413.5t295 129q86 0 155.5 -32t93.5 -55.5t34 -39.5v-2l2 -2zM553 205q111 0 158 72.5t47 244.5t-47 245t-158 73t-158 -73t-47 -245t47 -244.5t158 -72.5z
" />
    <glyph glyph-name="beta" unicode="&#x3b2;" horiz-adv-x="1161" 
d="M913 823q84 -41 117 -121.5t33 -203.5v-86q0 -219 -111.5 -325.5t-316.5 -106.5q-127 0 -238 94v-441l-258 -41v1432q0 221 110.5 330.5t338.5 109.5q225 0 339.5 -91t114.5 -267q0 -104 -27.5 -174t-101.5 -109zM801 412v86q0 117 -46 165t-157 48h-100v223h90
q102 0 147 36t45 115q0 80 -45 117t-147 37q-104 0 -147.5 -49t-43.5 -166v-618q0 -98 69 -148.5t142 -50.5q100 0 146.5 45t46.5 160z" />
    <glyph glyph-name="gamma" unicode="&#x3b3;" horiz-adv-x="1132" 
d="M852 1044h266l-381 -1003v-408l-258 -41v449l-225 657q-43 131 -172 131q-53 0 -94 -16l30 219q49 25 146 25q117 0 192.5 -62.5t120.5 -199.5l144 -430z" />
    <glyph glyph-name="delta" unicode="&#x3b4;" horiz-adv-x="1091" 
d="M680 971q51 -12 93 -30.5t88 -55.5t78 -88.5t52.5 -134t20.5 -187.5q0 -258 -112 -376.5t-353.5 -118.5t-353 118.5t-111.5 376.5q0 182 59.5 292t198.5 159q-127 57 -173 118.5t-46 143.5q0 125 103.5 196.5t305.5 71.5q182 0 324 -41l23 -235q-125 49 -330 49
q-90 0 -123 -19.5t-33 -58.5q0 -53 79 -101t210 -79zM546.5 184q110.5 0 157 66.5t46.5 224.5q0 160 -46.5 226.5t-157 66.5t-156.5 -66.5t-46 -226.5q0 -158 46 -224.5t156.5 -66.5z" />
    <glyph glyph-name="epsilon" unicode="&#x3b5;" horiz-adv-x="948" 
d="M528 197q190 0 353 47l-35 -217q-147 -47 -326 -47q-225 0 -330.5 77.5t-105.5 237.5q0 180 154 250q-133 66 -134 215q0 154 100.5 229.5t315.5 75.5q145 0 324 -47l14 -209q-164 41 -323 41q-172 0 -173 -100q0 -59 38 -87t122 -28h176v-213h-188q-168 0 -168 -111
q0 -59 44 -86.5t142 -27.5z" />
    <glyph glyph-name="zeta" unicode="&#x3b6;" horiz-adv-x="931" 
d="M606 199q63 -10 100 -19.5t85.5 -29t71 -48t42 -74.5t18.5 -115t-20 -161l-235 -37q35 156 2 208t-152 65q-442 49 -442 424q0 412 448 788h-424l39 234h770v-201q-246 -164 -398.5 -373t-152.5 -409q0 -115 63.5 -172t184.5 -80z" />
    <glyph glyph-name="eta" unicode="&#x3b7;" 
d="M797 -408v996q0 125 -45 186.5t-148 61.5q-111 0 -159 -61.5t-48 -186.5v-588h-258v1044h217l41 -114q98 135 287 135q180 0 275.5 -113.5t95.5 -304.5v-1014z" />
    <glyph glyph-name="theta" unicode="&#x3b8;" horiz-adv-x="1142" 
d="M571.5 1464q241.5 0 353 -178t111.5 -565t-111.5 -565.5t-353 -178.5t-353.5 178.5t-112 565.5t112 565t353.5 178zM571.5 1237q-102.5 0 -148.5 -99.5t-52 -332.5h401q-6 233 -52 332.5t-148.5 99.5zM571.5 199q104.5 0 150.5 101t52 345h-405q6 -244 52 -345
t150.5 -101z" />
    <glyph glyph-name="iota" unicode="&#x3b9;" horiz-adv-x="618" 
d="M424 -20q-152 0 -220.5 81.5t-68.5 247.5v735h258v-694q0 -80 24.5 -111.5t80.5 -31.5q68 0 112 24l-41 -221q-45 -30 -145 -30z" />
    <glyph glyph-name="kappa" unicode="&#x3ba;" horiz-adv-x="1107" 
d="M139 0v1044h258v-409h117l262 409h293l-344 -507l369 -537h-306l-270 418h-121v-418h-258z" />
    <glyph glyph-name="lambda" unicode="&#x3bb;" horiz-adv-x="1062" 
d="M1049 0h-277l-235 727l-242 -727h-277l396 1036l-13 31q-37 102 -70.5 136t-97.5 34q-59 0 -120 -20l41 225q55 23 147 22q135 0 202.5 -78.5t160.5 -336.5z" />
    <glyph glyph-name="uni03BC" unicode="&#x3bc;" horiz-adv-x="1193" 
d="M797 1044h258v-1044h-219l-41 113q-100 -133 -287 -133q-68 0 -121 24v-373l-248 -41v1454h258v-587q0 -125 44 -186.5t147 -61.5q113 0 161 61.5t48 186.5v587z" />
    <glyph glyph-name="nu" unicode="&#x3bd;" horiz-adv-x="1054" 
d="M770 1044h268l-381 -1044h-260l-381 1044h277l237 -725z" />
    <glyph glyph-name="xi" unicode="&#x3be;" horiz-adv-x="976" 
d="M623 197q76 -10 127 -27.5t94 -50.5t59.5 -81t20.5 -119t-21 -167l-235 -37q18 78 20 127t-15.5 80t-50 44.5t-90.5 19.5q-207 23 -328.5 132t-121.5 300q0 264 203 352q-174 96 -174 315q0 379 462 379q213 0 336 -63l13 -225q-152 63 -310 63q-129 0 -186 -41t-57 -133
q0 -109 49 -156t162 -47h215v-217h-242q-109 0 -159 -49t-50 -161.5t64.5 -166t214.5 -71.5z" />
    <glyph glyph-name="omicron" unicode="&#x3bf;" horiz-adv-x="1097" 
d="M549 -20q-242 0 -353.5 130t-111.5 412.5t111.5 412.5t353.5 130t353.5 -130t111.5 -412.5t-111.5 -412.5t-353.5 -130zM548.5 205q110.5 0 157 71.5t46.5 245.5t-46.5 246t-157 72t-156.5 -72t-46 -246t46 -245.5t156.5 -71.5z" />
    <glyph glyph-name="pi" unicode="&#x3c0;" horiz-adv-x="1136" 
d="M139 0v1044h858v-1044h-258v815h-342v-815h-258z" />
    <glyph glyph-name="rho" unicode="&#x3c1;" horiz-adv-x="1136" 
d="M587.5 1065q241.5 0 353.5 -130t112 -413q0 -285 -93.5 -413.5t-295.5 -128.5q-90 0 -160 32.5t-95.5 61t-25.5 35.5v-478l-258 -41v932q0 283 110.5 413t352 130zM585.5 205q110.5 0 158 72.5t47.5 244.5q0 174 -46.5 246t-156.5 72q-113 0 -159 -72t-46 -246t46 -245.5
t156.5 -71.5z" />
    <glyph glyph-name="sigma1" unicode="&#x3c2;" horiz-adv-x="946" 
d="M585.5 198.5q53.5 -8.5 86.5 -15.5t76 -22.5t66.5 -35t47 -52t31.5 -75.5t6 -105.5t-16 -140.5l-236 -37q14 72 15.5 120t-6 76t-35 44t-50 21.5t-74 11.5t-86 14t-89 28.5t-92 58.5t-74.5 93.5t-55.5 142.5t-18.5 199q0 541 493 541q188 0 285 -53l14 -228
q-133 55 -278 56q-133 0 -192.5 -75t-59.5 -251q0 -80 12.5 -135t31 -86t54 -51.5t63 -27.5t81 -15.5z" />
    <glyph glyph-name="sigma" unicode="&#x3c3;" horiz-adv-x="1177" 
d="M1159 1044v-225h-223q78 -123 78 -307q0 -279 -110.5 -405.5t-354.5 -126.5t-354.5 126.5t-110.5 405.5t110.5 405.5t354.5 126.5h610zM548.5 205q110.5 0 157 69.5t46.5 237.5t-46.5 237.5t-157 69.5t-156.5 -69.5t-46 -237.5t46 -237.5t156.5 -69.5z" />
    <glyph glyph-name="tau" unicode="&#x3c4;" horiz-adv-x="937" 
d="M889 815h-309v-465q0 -80 24.5 -111.5t79.5 -31.5q68 0 113 24l-41 -221q-43 -31 -144 -30q-152 0 -221 81.5t-69 247.5v506h-285v229h852v-229z" />
    <glyph glyph-name="upsilon" unicode="&#x3c5;" horiz-adv-x="1161" 
d="M1034 1044v-604q0 -240 -108.5 -350t-346 -110t-345 110.5t-107.5 349.5v604h262v-616q0 -121 43 -172t147.5 -51t148.5 51t44 172v616h262z" />
    <glyph glyph-name="phi" unicode="&#x3c6;" horiz-adv-x="1519" 
d="M1438 522q0 -281 -134.5 -410.5t-418.5 -131.5v-347l-250 -41v388q-287 2 -421 132t-134 410q0 236 118.5 369t313.5 166l68 -185q-121 -35 -179.5 -109.5t-58.5 -240.5q0 -170 69.5 -242.5t223.5 -74.5v839h264q274 0 406.5 -126t132.5 -396zM885 205q156 2 223.5 73.5
t67.5 243.5q0 162 -68 230.5t-223 68.5v-616z" />
    <glyph glyph-name="chi" unicode="&#x3c7;" horiz-adv-x="1032" 
d="M1034 -389h-284l-232 512l-246 -512h-274l373 731l-346 702h280l217 -466l217 466h271l-342 -692z" />
    <glyph glyph-name="psi" unicode="&#x3c8;" horiz-adv-x="1556" 
d="M1171 1044h263v-522q0 -281 -128 -410.5t-403 -131.5v-347l-248 -41v388q-274 0 -403 131t-129 411v522h262v-522q0 -170 63.5 -243.5t206.5 -73.5v860l248 39v-899q143 2 205.5 74.5t62.5 242.5v522z" />
    <glyph glyph-name="omega" unicode="&#x3c9;" horiz-adv-x="1599" 
d="M1124 1063q203 -10 296 -135t93 -400q0 -270 -95 -410.5t-304 -140.5q-238 0 -313 232q-78 -231 -314 -232q-209 0 -305 139.5t-96 411.5q0 274 94 399.5t297 135.5l58 -221q-104 -8 -146.5 -79t-42.5 -247q0 -170 38 -241.5t126 -71.5t125 71.5t37 245.5v152h258v-152
q0 -174 37 -245.5t125 -71.5t124.5 71.5t36.5 241.5q0 176 -42 247t-146 79z" />
    <glyph glyph-name="iotadieresis" unicode="&#x3ca;" horiz-adv-x="618" 
d="M-59 1188v244h237v-244h-237zM346 1188v244h238v-244h-238zM424 -20q-152 0 -220.5 81.5t-68.5 247.5v735h258v-694q0 -80 24.5 -111.5t80.5 -31.5q68 0 112 24l-41 -221q-45 -30 -145 -30z" />
    <glyph glyph-name="upsilondieresis" unicode="&#x3cb;" horiz-adv-x="1161" 
d="M256 1188v244h238v-244h-238zM662 1188v244h237v-244h-237zM1034 1044v-604q0 -240 -108.5 -350t-346 -110t-345 110.5t-107.5 349.5v604h262v-616q0 -121 43 -172t147.5 -51t148.5 51t44 172v616h262z" />
    <glyph glyph-name="omicrontonos" unicode="&#x3cc;" horiz-adv-x="1097" 
d="M539 1167l-185 41l207 260h293zM549 -20q-242 0 -353.5 130t-111.5 412.5t111.5 412.5t353.5 130t353.5 -130t111.5 -412.5t-111.5 -412.5t-353.5 -130zM548.5 205q110.5 0 157 71.5t46.5 245.5t-46.5 246t-157 72t-156.5 -72t-46 -246t46 -245.5t156.5 -71.5z" />
    <glyph glyph-name="upsilontonos" unicode="&#x3cd;" horiz-adv-x="1161" 
d="M569 1167l-184 41l207 260h293zM1034 1044v-604q0 -240 -108.5 -350t-346 -110t-345 110.5t-107.5 349.5v604h262v-616q0 -121 43 -172t147.5 -51t148.5 51t44 172v616h262z" />
    <glyph glyph-name="omegatonos" unicode="&#x3ce;" horiz-adv-x="1599" 
d="M1106 1468l-315 -301l-185 41l207 260h293zM1124 1063q203 -10 296 -135t93 -400q0 -270 -95 -410.5t-304 -140.5q-238 0 -313 232q-78 -231 -314 -232q-209 0 -305 139.5t-96 411.5q0 274 94 399.5t297 135.5l58 -221q-104 -8 -146.5 -79t-42.5 -247q0 -170 38 -241.5
t126 -71.5t125 71.5t37 245.5v152h258v-152q0 -174 37 -245.5t125 -71.5t124.5 71.5t36.5 241.5q0 176 -42 247t-146 79z" />
    <glyph glyph-name="uni0401" unicode="&#x401;" horiz-adv-x="1239" 
d="M322 1577v244h237v-244h-237zM727 1577v244h238v-244h-238zM166 0v1434h952l15 -246h-689v-342h611v-246h-611v-354h711l-39 -246h-950z" />
    <glyph glyph-name="uni0402" unicode="&#x402;" horiz-adv-x="1464" 
d="M905 -20l-41 249q264 0 264 201t-221 201q-61 0 -122.5 -12.5t-92.5 -24.5l-28 -10v-584h-277v1184h-350v250h1018v-250h-391v-363q125 59 292 60q215 0 335 -123t120 -328q0 -209 -126 -329.5t-380 -120.5z" />
    <glyph glyph-name="uni0403" unicode="&#x403;" horiz-adv-x="1093" 
d="M610 1556l-184 41l207 261h293zM166 0v1434h889v-250h-611v-1184h-278z" />
    <glyph glyph-name="uni0404" unicode="&#x404;" horiz-adv-x="1202" 
d="M743 211q205 0 381 90l-41 -262q-150 -70 -360 -70q-319 0 -474 182.5t-155 565.5t154.5 565t474.5 182q209 0 364 -75l17 -248q-174 82 -361 82q-172 0 -260 -87t-106 -288h524v-250h-526q18 -207 106 -297t262 -90z" />
    <glyph glyph-name="uni0405" unicode="&#x405;" horiz-adv-x="1224" 
d="M604 -31q-272 0 -473 72l-39 266q248 -92 498 -92q289 0 289 182q0 74 -48.5 114t-162.5 69l-252 63q-330 82 -330 406q0 193 133 304t395 111q274 0 455 -63l12 -254q-211 72 -444 72q-270 0 -270 -162q0 -76 46 -117t160 -70l244 -61q170 -43 257 -137t87 -269
q0 -203 -138 -318.5t-419 -115.5z" />
    <glyph glyph-name="uni0406" unicode="&#x406;" horiz-adv-x="610" 
d="M166 0v1434h278v-1434h-278z" />
    <glyph glyph-name="uni0407" unicode="&#x407;" horiz-adv-x="610" 
d="M-18 1577v244h237v-244h-237zM387 1577v244h238v-244h-238zM166 0v1434h278v-1434h-278z" />
    <glyph glyph-name="uni0408" unicode="&#x408;" horiz-adv-x="1054" 
d="M367 -31q-178 0 -295 51l-41 263q143 -59 317 -60q141 0 208 77t67 253v881h278v-881q1 -584 -534 -584z" />
    <glyph glyph-name="uni0409" unicode="&#x409;" horiz-adv-x="1982" 
d="M141 -20q-55 0 -84 14l-39 248q25 -8 74 -9q94 0 137 97.5t54 355.5l30 748h861v-560h258q248 0 372.5 -113.5t124.5 -324.5q0 -209 -125 -322.5t-372 -113.5h-535v1184h-334l-18 -504q-12 -346 -106.5 -523t-297.5 -177zM1174 238h258q106 0 161.5 52t55.5 146
q0 96 -55.5 148.5t-161.5 52.5h-258v-399z" />
    <glyph glyph-name="uni040A" unicode="&#x40a;" horiz-adv-x="2004" 
d="M166 0v1434h278v-586h474v586h278v-560h258q248 0 373 -114.5t125 -323.5t-125 -322.5t-373 -113.5h-536v598h-474v-598h-278zM1196 238h258q106 0 160.5 52t54.5 146q0 96 -54 148.5t-161 52.5h-258v-399z" />
    <glyph glyph-name="uni040B" unicode="&#x40b;" horiz-adv-x="1462" 
d="M387 0v1184h-350v250h1018v-250h-391v-365q123 61 299 62q205 0 314 -121t109 -326v-434h-278v420q0 211 -211 211q-135 0 -233 -47v-584h-277z" />
    <glyph glyph-name="uni040C" unicode="&#x40c;" horiz-adv-x="1329" 
d="M684 1556l-184 41l207 261h292zM1001 0l-413 604h-144v-604h-278v1434h278v-592h144l389 592h313l-469 -699l502 -735h-322z" />
    <glyph glyph-name="uni040D" unicode="&#x40d;" horiz-adv-x="1449" 
d="M889 1597l-184 -41l-316 302h293zM1030 1434h254v-1434h-278v950l-584 -950h-256v1434h278v-955z" />
    <glyph glyph-name="uni040E" unicode="&#x40e;" horiz-adv-x="1226" 
d="M631 1546q-154 0 -236 79t-90 210l207 41q6 -168 119 -168q111 0 117 168l206 -41q-8 -131 -89.5 -210t-233.5 -79zM391 -31q-51 0 -94 11.5t-59 21.5l-19 10l-43 232q76 -37 164 -37q72 0 115 28.5t71 94.5l21 53l-549 1051h309l369 -746l270 746h287l-465 -1178
q-68 -154 -157 -220.5t-220 -66.5z" />
    <glyph glyph-name="uni040F" unicode="&#x40f;" horiz-adv-x="1390" 
d="M1225 1434v-1434h-400v-254l-258 -41v295h-401v1434h278v-1184h504v1184h277z" />
    <glyph glyph-name="uni0410" unicode="&#x410;" horiz-adv-x="1357" 
d="M1055 0l-105 301h-553l-104 -301h-285l535 1434h270l537 -1434h-295zM477 539h393l-196 569z" />
    <glyph glyph-name="uni0411" unicode="&#x411;" horiz-adv-x="1308" 
d="M166 0v1434h969v-250h-691v-297h297q250 0 375 -115t125 -328q0 -215 -125 -329.5t-375 -114.5h-575zM444 246h297q219 0 220 198q0 94 -55.5 145.5t-164.5 51.5h-297v-395z" />
    <glyph glyph-name="uni0412" unicode="&#x412;" horiz-adv-x="1347" 
d="M166 0v1434h565q483 0 483 -392q0 -213 -157 -303q193 -88 196 -331q2 -205 -121.5 -306.5t-377.5 -101.5h-588zM444 838h287q104 0 154.5 42t50.5 136t-50 137t-155 43h-287v-358zM444 238h310q113 0 167 44t54 144q0 96 -54.5 139t-166.5 43h-310v-370z" />
    <glyph glyph-name="uni0413" unicode="&#x413;" horiz-adv-x="1093" 
d="M166 0v1434h889v-250h-611v-1184h-278z" />
    <glyph glyph-name="uni0414" unicode="&#x414;" horiz-adv-x="1490" 
d="M37 -274v524h100q106 88 148.5 213t58.5 405l35 566h876v-1184h164v-524h-258v274h-866v-274h-258zM432 250h545v934h-354l-17 -336q-12 -266 -55 -395t-119 -203z" />
    <glyph glyph-name="uni0415" unicode="&#x415;" horiz-adv-x="1239" 
d="M166 0v1434h952l15 -246h-689v-342h611v-246h-611v-354h711l-39 -246h-950z" />
    <glyph glyph-name="uni0416" unicode="&#x416;" horiz-adv-x="1935" 
d="M12 0l445 733l-412 701h309l336 -596h139v596h279v-596h137l338 596h309l-411 -701l442 -733h-321l-357 608h-137v-608h-279v608h-137l-356 -608h-324z" />
    <glyph glyph-name="uni0417" unicode="&#x417;" horiz-adv-x="1198" 
d="M907 745q201 -88 201 -337q0 -217 -141.5 -328t-442.5 -111q-242 0 -409 70l-41 262q195 -90 413 -90q334 0 334 195q0 193 -227 192h-285v250h285q100 0 144 46t44 136q0 96 -65.5 144.5t-218.5 48.5q-207 0 -389 -84l16 252q182 74 412 73q272 0 402 -108.5t130 -300.5
q0 -216 -162 -310z" />
    <glyph glyph-name="uni0418" unicode="&#x418;" horiz-adv-x="1449" 
d="M1030 1434h254v-1434h-278v950l-584 -950h-256v1434h278v-955z" />
    <glyph glyph-name="uni0419" unicode="&#x419;" horiz-adv-x="1449" 
d="M719 1546q-154 0 -236 79t-90 210l207 41q6 -168 119 -168q111 0 117 168l206 -41q-8 -131 -89.5 -210t-233.5 -79zM1030 1434h254v-1434h-278v950l-584 -950h-256v1434h278v-955z" />
    <glyph glyph-name="uni041A" unicode="&#x41a;" horiz-adv-x="1329" 
d="M1001 0l-413 604h-144v-604h-278v1434h278v-592h144l389 592h313l-469 -699l502 -735h-322z" />
    <glyph glyph-name="uni041B" unicode="&#x41b;" horiz-adv-x="1380" 
d="M332 1434h882v-1434h-278v1184h-354l-19 -504q-12 -346 -110.5 -523t-307.5 -177q-25 0 -47 3t-32 7l-11 4l-39 248q35 -8 82 -9q100 0 146.5 97.5t56.5 355.5z" />
    <glyph glyph-name="uni041C" unicode="&#x41c;" horiz-adv-x="1701" 
d="M1305 1434h231v-1434h-264v975l-422 -606l-426 606v-975h-258v1434h233l453 -652z" />
    <glyph glyph-name="uni041D" unicode="&#x41d;" horiz-adv-x="1402" 
d="M961 1434h276v-1434h-276v598h-517v-598h-278v1434h278v-586h517v586z" />
    <glyph glyph-name="uni041E" unicode="&#x41e;" horiz-adv-x="1357" 
d="M680 -31q-301 0 -442.5 175t-141.5 572.5t141.5 572.5t442.5 175q299 0 440.5 -175t141.5 -572.5t-141.5 -572.5t-440.5 -175zM680 215q158 0 229.5 107.5t71.5 394.5q0 197 -35 308.5t-97.5 152.5t-169 41t-168.5 -41t-97 -153t-35 -308q0 -287 71.5 -394.5
t229.5 -107.5z" />
    <glyph glyph-name="uni041F" unicode="&#x41f;" horiz-adv-x="1390" 
d="M166 0v1434h1059v-1434h-277v1184h-504v-1184h-278z" />
    <glyph glyph-name="uni0420" unicode="&#x420;" horiz-adv-x="1296" 
d="M166 0v1434h553q260 0 391 -120t131 -343q0 -221 -131 -341t-391 -120h-275v-510h-278zM444 748h275q242 0 242 223q0 109 -61.5 167t-180.5 58h-275v-448z" />
    <glyph glyph-name="uni0421" unicode="&#x421;" horiz-adv-x="1159" 
d="M707 -31q-309 0 -461 182.5t-152 565.5t151.5 565t461.5 182q190 0 337 -71l15 -254q-150 80 -332 80q-184 0 -267 -115t-83 -387.5t83 -387t267 -114.5q190 0 360 90l-38 -266q-143 -70 -342 -70z" />
    <glyph glyph-name="uni0422" unicode="&#x422;" horiz-adv-x="1134" 
d="M1098 1434v-250h-391v-1184h-279v1184h-391v250h1061z" />
    <glyph glyph-name="uni0423" unicode="&#x423;" horiz-adv-x="1226" 
d="M391 -31q-51 0 -94 11.5t-59 21.5l-19 10l-43 232q76 -37 164 -37q72 0 115 28.5t71 94.5l21 53l-549 1051h309l369 -746l270 746h287l-465 -1178q-68 -154 -157 -220.5t-220 -66.5z" />
    <glyph glyph-name="uni0424" unicode="&#x424;" horiz-adv-x="1755" 
d="M1016 1337q338 0 497.5 -149.5t159.5 -444t-159.5 -444t-497.5 -149.5v-150h-277v150q-338 0 -497.5 149.5t-159.5 444t159.5 444t497.5 149.5v133h277v-133zM365 743.5q0 -200.5 89 -285.5t294 -87v745q-205 -2 -294 -87t-89 -285.5zM1008 371q205 2 294 87t89 285.5
t-89.5 285.5t-293.5 87v-745z" />
    <glyph glyph-name="uni0425" unicode="&#x425;" horiz-adv-x="1284" 
d="M1276 0h-328l-307 512l-319 -512h-316l475 733l-442 701h326l282 -467l287 467h313l-442 -691z" />
    <glyph glyph-name="uni0426" unicode="&#x426;" horiz-adv-x="1439" 
d="M1110 -295v295h-944v1434h278v-1184h484v1184h276v-1184h164v-504z" />
    <glyph glyph-name="uni0427" unicode="&#x427;" horiz-adv-x="1306" 
d="M862 1434h279v-1434h-279v586q-106 -61 -325 -62q-217 0 -334 125t-117 338v447h279v-433q0 -227 239 -227q74 0 138.5 12.5t93.5 24.5l26 10v613z" />
    <glyph glyph-name="uni0428" unicode="&#x428;" horiz-adv-x="1988" 
d="M166 0v1434h278v-1184h412v1184h279v-1184h409v1184h279v-1434h-1657z" />
    <glyph glyph-name="uni0429" unicode="&#x429;" horiz-adv-x="2058" 
d="M1729 -295v295h-1563v1434h278v-1184h412v1184h279v-1184h409v1184h279v-1184h164v-504z" />
    <glyph glyph-name="uni042A" unicode="&#x42a;" horiz-adv-x="1476" 
d="M899 924q260 0 391 -120t131 -341t-131 -342t-391 -121h-553v1184h-309v250h588v-510h274zM899 238q119 0 179.5 58t60.5 167q0 223 -240 223h-274v-448h274z" />
    <glyph glyph-name="uni042B" unicode="&#x42b;" horiz-adv-x="1869" 
d="M166 1434h278v-510h275q260 0 391 -120t131 -341q0 -223 -131 -343t-391 -120h-553v1434zM1425 0v1434h279v-1434h-279zM444 686v-448h275q119 0 180.5 58t61.5 167q0 223 -242 223h-275z" />
    <glyph glyph-name="uni042C" unicode="&#x42c;" horiz-adv-x="1296" 
d="M166 1434h278v-510h275q260 0 391 -120t131 -341q0 -223 -131 -343t-391 -120h-553v1434zM444 686v-448h275q119 0 180.5 58t61.5 167q0 223 -242 223h-275z" />
    <glyph glyph-name="uni042D" unicode="&#x42d;" horiz-adv-x="1202" 
d="M479 1464q319 0 474 -182t155 -565t-154.5 -565.5t-474.5 -182.5q-211 0 -360 70l-41 262q176 -90 381 -90q174 0 262 90t106 297h-526v250h524q-18 201 -106 288t-260 87q-186 0 -361 -82l17 248q155 75 364 75z" />
    <glyph glyph-name="uni042E" unicode="&#x42e;" horiz-adv-x="1937" 
d="M1268 1464q295 0 433 -175t138 -572.5t-138 -572.5t-433 -175q-270 0 -408.5 148.5t-157.5 480.5h-258v-598h-278v1434h278v-586h258q20 326 159 471t407 145zM1267.5 215q151.5 0 220 107.5t68.5 394.5t-68.5 394.5t-220 107.5t-220 -107.5t-68.5 -394.5t68.5 -394.5
t220 -107.5z" />
    <glyph glyph-name="uni042F" unicode="&#x42f;" horiz-adv-x="1347" 
d="M637 1434h545v-1434h-279v543h-231l-297 -543h-309l321 575q-281 88 -281 406q1 453 531 453zM903 776v420h-266q-127 0 -187.5 -51t-60.5 -162q0 -106 60.5 -156.5t187.5 -50.5h266z" />
    <glyph glyph-name="uni0430" unicode="&#x430;" horiz-adv-x="1083" 
d="M414 -20q-168 0 -258 87t-90 240q0 143 94 224t268 81h268v52q0 92 -47 131t-166 39q-172 0 -336 -41l41 231q154 35 342 35q424 0 424 -395v-664h-217l-41 109q-65 -129 -282 -129zM475 182q119 0 170 43t51 154v55h-221q-152 0 -151 -125q-1 -127 151 -127z" />
    <glyph glyph-name="uni0431" unicode="&#x431;" horiz-adv-x="1138" 
d="M664 991q203 0 296 -120.5t93 -385.5q0 -262 -112 -383.5t-353 -121.5q-242 0 -352.5 121.5t-110.5 383.5v398q0 258 106.5 377.5t339.5 150.5l398 53l14 -235l-391 -47q-137 -16 -187.5 -83t-50.5 -216v-19q97 127 310 127zM587.5 205q110.5 0 157 64.5t46.5 216
t-46.5 216t-157 64.5t-155.5 -63.5t-45 -217t45 -217t155.5 -63.5z" />
    <glyph glyph-name="uni0432" unicode="&#x432;" horiz-adv-x="1091" 
d="M864 545q145 -66 146 -246q0 -152 -97.5 -225.5t-304.5 -73.5h-469v1044h457q199 0 292 -71.5t93 -214.5q0 -147 -117 -213zM397 836v-207h199q127 0 127 102q0 104 -127 105h-199zM608 207q76 0 110 26.5t34 83.5q0 111 -144 111h-211v-221h211z" />
    <glyph glyph-name="uni0433" unicode="&#x433;" horiz-adv-x="866" 
d="M139 0v1044h690v-229h-432v-815h-258z" />
    <glyph glyph-name="uni0434" unicode="&#x434;" horiz-adv-x="1239" 
d="M41 -256v485h92q70 59 97.5 145.5t41.5 280.5l25 389h733v-815h139v-485h-239v256h-649v-256h-240zM393 229h379v586h-252l-8 -174q-8 -180 -38 -270.5t-81 -141.5z" />
    <glyph glyph-name="uni0435" unicode="&#x435;" horiz-adv-x="1091" 
d="M618 -20q-283 0 -409.5 136t-126.5 406q0 266 120 404.5t351 138.5q227 0 344 -130t117 -415v-80h-674q4 -119 70.5 -177t214.5 -58q182 0 333 55l-38 -233q-142 -47 -302 -47zM340 616h428q-12 236 -213 236q-199 0 -215 -236z" />
    <glyph glyph-name="uni0436" unicode="&#x436;" horiz-adv-x="1611" 
d="M23 0l329 545l-305 499h281l239 -413h111v413h258v-413h108l240 413h281l-303 -499l327 -545h-293l-243 422h-117v-422h-258v422h-119l-242 -422h-294z" />
    <glyph glyph-name="uni0437" unicode="&#x437;" horiz-adv-x="968" 
d="M735 543q152 -70 152 -236t-108.5 -246.5t-366.5 -80.5q-199 0 -306 53l-40 233q150 -68 325 -67q131 0 182.5 29.5t49.5 84.5q0 51 -36 78t-122 27h-207v217h207q133 0 133 98q0 111 -197 111q-168 0 -309 -62l14 226q51 23 143.5 40t192.5 17q221 0 319.5 -77
t98.5 -222q0 -155 -125 -223z" />
    <glyph glyph-name="uni0438" unicode="&#x438;" 
d="M786 1044h258v-1044h-258v653l-389 -653h-258v1044h258v-655z" />
    <glyph glyph-name="uni0439" unicode="&#x439;" 
d="M592 1157q-154 0 -236 79t-90 210l207 41q6 -168 119 -168q111 0 117 168l206 -41q-8 -131 -89.5 -210t-233.5 -79zM786 1044h258v-1044h-258v653l-389 -653h-258v1044h258v-655z" />
    <glyph glyph-name="uni043A" unicode="&#x43a;" horiz-adv-x="1107" 
d="M139 0v1044h258v-409h117l262 409h293l-344 -507l369 -537h-306l-270 418h-121v-418h-258z" />
    <glyph glyph-name="uni043B" unicode="&#x43b;" horiz-adv-x="1142" 
d="M266 1044h738v-1044h-259v815h-247l-15 -342q-20 -494 -327 -493q-72 0 -95 18l-38 227q25 -8 65 -8q76 0 113 60.5t43 214.5z" />
    <glyph glyph-name="uni043C" unicode="&#x43c;" horiz-adv-x="1384" 
d="M1010 1044h235v-1044h-254v639l-301 -422l-301 422v-639h-250v1044h236l317 -454z" />
    <glyph glyph-name="uni043D" unicode="&#x43d;" horiz-adv-x="1144" 
d="M748 1044h258v-1044h-258v412h-351v-412h-258v1044h258v-403h351v403z" />
    <glyph glyph-name="uni043E" unicode="&#x43e;" horiz-adv-x="1097" 
d="M549 -20q-242 0 -353.5 130t-111.5 412.5t111.5 412.5t353.5 130t353.5 -130t111.5 -412.5t-111.5 -412.5t-353.5 -130zM548.5 205q110.5 0 157 71.5t46.5 245.5t-46.5 246t-157 72t-156.5 -72t-46 -246t46 -245.5t156.5 -71.5z" />
    <glyph glyph-name="uni043F" unicode="&#x43f;" horiz-adv-x="1136" 
d="M139 0v1044h858v-1044h-258v815h-342v-815h-258z" />
    <glyph glyph-name="uni0440" unicode="&#x440;" horiz-adv-x="1153" 
d="M678 1065q203 0 296 -129t93 -413.5t-93 -413.5t-296 -129q-90 0 -159.5 32.5t-95.5 61t-26 35.5v-476l-258 -41v1452h217l41 -108q0 6 26 34.5t95.5 61.5t159.5 33zM600 205q111 0 158 72.5t47 244.5t-47 245t-158 73t-157 -72t-46 -246t46 -245.5t157 -71.5z" />
    <glyph glyph-name="uni0441" unicode="&#x441;" horiz-adv-x="935" 
d="M563 -20q-244 0 -362.5 133t-118.5 409.5t120 409.5t363 133q176 0 269 -53l14 -228q-125 55 -262 56q-127 0 -184.5 -74t-57.5 -244t57.5 -243.5t182.5 -73.5q152 0 293 65l-41 -237q-93 -53 -273 -53z" />
    <glyph glyph-name="uni0442" unicode="&#x442;" horiz-adv-x="927" 
d="M891 1044v-229h-297v-815h-258v815h-299v229h854z" />
    <glyph glyph-name="uni0443" unicode="&#x443;" horiz-adv-x="1050" 
d="M297 -410q-106 0 -162 35l-41 221q61 -29 137 -28q117 0 158 116l25 68l-402 1042h279l252 -716l221 716h268l-411 -1179q-97 -275 -324 -275z" />
    <glyph glyph-name="uni0444" unicode="&#x444;" horiz-adv-x="1554" 
d="M907 1065q291 0 429.5 -131t138.5 -411.5t-138.5 -411.5t-429.5 -131v-369h-258v369q-293 0 -431 131t-138 411.5t138 411.5t431 131v348l258 41v-389zM342 522q0 -170 73.5 -242.5t243.5 -74.5v635q-170 -2 -243.5 -75t-73.5 -243zM897 205q170 2 242.5 74.5t72.5 242.5
t-72.5 243t-242.5 75v-635z" />
    <glyph glyph-name="uni0445" unicode="&#x445;" horiz-adv-x="1048" 
d="M1032 0h-297l-215 354l-217 -354h-287l351 537l-326 507h297l192 -319l191 319h285l-322 -499z" />
    <glyph glyph-name="uni0446" unicode="&#x446;" horiz-adv-x="1187" 
d="M879 -276v276h-740v1044h258v-815h324v815h258v-815h139v-462z" />
    <glyph glyph-name="uni0447" unicode="&#x447;" horiz-adv-x="1067" 
d="M670 1044h258v-1044h-258v406q-76 -49 -248 -50q-168 0 -258 97.5t-90 259.5v331h258v-303q0 -158 162 -157q53 0 97 10t60 20l19 11v419z" />
    <glyph glyph-name="uni0448" unicode="&#x448;" horiz-adv-x="1613" 
d="M139 0v1044h258v-815h281v815h258v-815h281v815h258v-1044h-1336z" />
    <glyph glyph-name="uni0449" unicode="&#x449;" horiz-adv-x="1683" 
d="M1374 -274v274h-1235v1044h258v-815h281v815h258v-815h281v815h258v-815h139v-462z" />
    <glyph glyph-name="uni044A" unicode="&#x44a;" horiz-adv-x="1232" 
d="M768 733q205 0 308.5 -95t103.5 -271.5t-103.5 -271.5t-308.5 -95h-467v815h-262v229h520v-311h209zM762 221q156 0 156 145.5t-156 145.5h-203v-291h203z" />
    <glyph glyph-name="uni044B" unicode="&#x44b;" horiz-adv-x="1540" 
d="M139 0v1044h258v-311h209q205 0 308.5 -95t103.5 -271.5t-103.5 -271.5t-308.5 -95h-467zM1143 0v1044h258v-1044h-258zM397 221h203q156 0 156 145.5t-156 145.5h-203v-291z" />
    <glyph glyph-name="uni044C" unicode="&#x44c;" horiz-adv-x="1071" 
d="M139 0v1044h258v-311h209q205 0 308.5 -95t103.5 -271.5t-103.5 -271.5t-308.5 -95h-467zM397 221h203q156 0 156 145.5t-156 145.5h-203v-291z" />
    <glyph glyph-name="uni044D" unicode="&#x44d;" horiz-adv-x="958" 
d="M387 1065q248 0 369 -133t121 -409.5t-121 -409.5t-369 -133q-82 0 -152.5 13t-99.5 27l-29 13l-40 233q135 -66 280 -65q119 0 183.5 51t82.5 166h-354v217h352q-18 109 -82.5 158t-181.5 49q-57 0 -117.5 -13.5t-93.5 -25.5l-33 -15l13 224q104 53 272 53z" />
    <glyph glyph-name="uni044E" unicode="&#x44e;" horiz-adv-x="1572" 
d="M1032 1065q240 0 348.5 -130t108.5 -412.5t-108.5 -412.5t-348.5 -130q-215 0 -323.5 105t-126.5 331h-185v-416h-258v1044h258v-407h185q20 221 128.5 324.5t321.5 103.5zM1032.5 205q106.5 0 150.5 71.5t44 245.5t-44 246t-150.5 72t-149.5 -72t-43 -246t43 -245.5
t149.5 -71.5z" />
    <glyph glyph-name="uni044F" unicode="&#x44f;" horiz-adv-x="1105" 
d="M506 1044h461v-1044h-258v352h-158l-201 -352h-287l226 387q-193 74 -193 307q0 350 410 350zM709 567v254h-203q-80 0 -117 -29.5t-37 -97t37 -97.5t117 -30h203z" />
    <glyph glyph-name="uni0451" unicode="&#x451;" horiz-adv-x="1091" 
d="M231 1188v244h238v-244h-238zM637 1188v244h237v-244h-237zM618 -20q-283 0 -409.5 136t-126.5 406q0 266 120 404.5t351 138.5q227 0 344 -130t117 -415v-80h-674q4 -119 70.5 -177t214.5 -58q182 0 333 55l-38 -233q-142 -47 -302 -47zM340 616h428q-12 236 -213 236
q-199 0 -215 -236z" />
    <glyph glyph-name="uni0452" unicode="&#x452;" 
d="M684 1004q180 0 275.5 -114t95.5 -302v-588q0 -207 -88 -308.5t-248 -101.5q-80 0 -141 29l-37 219q59 -39 123 -39q66 0 99.5 46t33.5 155v526q0 125 -45 186.5t-148 61.5q-111 0 -159 -61.5t-48 -186.5v-526h-258v1094h-164v159h164v160l258 41v-201h369v-159h-369
v-228q103 138 287 138z" />
    <glyph glyph-name="uni0453" unicode="&#x453;" horiz-adv-x="866" 
d="M485 1167l-184 41l207 260h293zM139 0v1044h690v-229h-432v-815h-258z" />
    <glyph glyph-name="uni0454" unicode="&#x454;" horiz-adv-x="958" 
d="M612 201q66 0 135.5 16t108.5 33l37 16l-41 -233q-10 -6 -30.5 -15.5t-94.5 -23.5t-156 -14q-248 0 -368.5 133t-120.5 409.5t121 409.5t368 133q74 0 142.5 -13.5t99.5 -27.5l31 -12l12 -224q-117 53 -244 54q-117 0 -181 -49.5t-83 -157.5h352v-217h-354
q18 -115 82.5 -166t183.5 -51z" />
    <glyph glyph-name="uni0455" unicode="&#x455;" horiz-adv-x="980" 
d="M467 -20q-199 0 -346 55l-41 235q158 -70 366 -69q215 0 216 100q0 45 -25 66.5t-100 35.5l-166 33q-152 31 -217.5 103.5t-65.5 203.5q0 154 109.5 238t330.5 84q178 0 318 -45l14 -232q-117 53 -303 54q-219 0 -219 -90q0 -41 26.5 -62.5t102.5 -36.5l158 -30
q158 -33 223 -105t65 -211q0 -327 -446 -327z" />
    <glyph glyph-name="uni0456" unicode="&#x456;" horiz-adv-x="536" 
d="M139 1188v244h258v-244h-258zM139 0v1044h258v-1044h-258z" />
    <glyph glyph-name="uni0457" unicode="&#x457;" horiz-adv-x="536" 
d="M-31 1188v244h228v-244h-228zM338 1188v244h229v-244h-229zM139 0v1044h258v-1044h-258z" />
    <glyph glyph-name="uni0458" unicode="&#x458;" horiz-adv-x="552" 
d="M156 1188v244h258v-244h-258zM41 -410q-88 0 -158 33l-41 238q72 -43 154 -43q80 0 120 52t40 173v1001h258v-1001q0 -229 -97.5 -341t-275.5 -112z" />
    <glyph glyph-name="uni0459" unicode="&#x459;" horiz-adv-x="1628" 
d="M158 -20q-31 0 -54.5 4t-31.5 8l-9 6l-38 227q29 -8 65 -8q66 0 97.5 60.5t37.5 214.5l23 552h733v-370h221q186 0 280.5 -88t94.5 -252q0 -160 -94 -247t-281 -87h-479v815h-244l-14 -342q-20 -493 -307 -493zM981 225h215q57 0 88 31t31 78q0 113 -119 112h-215v-221z
" />
    <glyph glyph-name="uni045A" unicode="&#x45a;" horiz-adv-x="1626" 
d="M139 0v1044h258v-403h326v403h258v-370h219q186 0 280.5 -88t94.5 -252q0 -160 -94.5 -247t-280.5 -87h-477v412h-326v-412h-258zM981 225h213q57 0 89 31t32 78q0 113 -121 112h-213v-221z" />
    <glyph glyph-name="uni045B" unicode="&#x45b;" 
d="M684 1024q180 0 275.5 -113.5t95.5 -302.5v-608h-258v547q0 125 -45 186.5t-148 61.5q-111 0 -159 -61.5t-48 -186.5v-547h-258v1133h-137v141h137v139l258 41v-180h369v-141h-369v-246q103 137 287 137z" />
    <glyph glyph-name="uni045C" unicode="&#x45c;" horiz-adv-x="1107" 
d="M573 1167l-184 41l207 260h293zM139 0v1044h258v-409h117l262 409h293l-344 -507l369 -537h-306l-270 418h-121v-418h-258z" />
    <glyph glyph-name="uni045D" unicode="&#x45d;" 
d="M762 1208l-184 -41l-316 301h293zM786 1044h258v-1044h-258v653l-389 -653h-258v1044h258v-655z" />
    <glyph glyph-name="uni045E" unicode="&#x45e;" horiz-adv-x="1050" 
d="M539 1157q-154 0 -236 79t-90 210l207 41q6 -168 119 -168q111 0 116 168l207 -41q-8 -131 -89.5 -210t-233.5 -79zM297 -410q-106 0 -162 35l-41 221q61 -29 137 -28q117 0 158 116l25 68l-402 1042h279l252 -716l221 716h268l-411 -1179q-97 -275 -324 -275z" />
    <glyph glyph-name="uni045F" unicode="&#x45f;" horiz-adv-x="1136" 
d="M997 1044v-1044h-311v-236l-237 -40v276h-310v1044h258v-815h342v815h258z" />
    <glyph glyph-name="uni0490" unicode="&#x490;" horiz-adv-x="1105" 
d="M827 1647l240 41v-504h-623v-1184h-278v1434h661v213z" />
    <glyph glyph-name="uni0491" unicode="&#x491;" horiz-adv-x="872" 
d="M618 1229l218 39v-453h-439v-815h-258v1044h479v185z" />
    <glyph glyph-name="Wgrave" unicode="&#x1e80;" horiz-adv-x="1849" 
d="M913 1556l-315 302h293l207 -261zM1534 1434h270l-291 -1434h-268l-319 821l-320 -821h-268l-293 1434h277l186 -1020l403 1020h37l400 -1022z" />
    <glyph glyph-name="wgrave" unicode="&#x1e81;" horiz-adv-x="1533" 
d="M756 1167l-316 301h293l207 -260zM1237 1044h248l-240 -1044h-264l-215 526l-213 -526h-264l-238 1044h254l156 -712l295 710h32l293 -704z" />
    <glyph glyph-name="Wacute" unicode="&#x1e82;" horiz-adv-x="1849" 
d="M918 1556l-185 41l207 261h293zM1534 1434h270l-291 -1434h-268l-319 821l-320 -821h-268l-293 1434h277l186 -1020l403 1020h37l400 -1022z" />
    <glyph glyph-name="wacute" unicode="&#x1e83;" horiz-adv-x="1533" 
d="M760 1167l-185 41l207 260h293zM1237 1044h248l-240 -1044h-264l-215 526l-213 -526h-264l-238 1044h254l156 -712l295 710h32l293 -704z" />
    <glyph glyph-name="Wdieresis" unicode="&#x1e84;" horiz-adv-x="1849" 
d="M604 1577v244h238v-244h-238zM1010 1577v244h237v-244h-237zM1534 1434h270l-291 -1434h-268l-319 821l-320 -821h-268l-293 1434h277l186 -1020l403 1020h37l400 -1022z" />
    <glyph glyph-name="wdieresis" unicode="&#x1e85;" horiz-adv-x="1533" 
d="M446 1188v244h238v-244h-238zM852 1188v244h238v-244h-238zM1237 1044h248l-240 -1044h-264l-215 526l-213 -526h-264l-238 1044h254l156 -712l295 710h32l293 -704z" />
    <glyph glyph-name="uni1E9E" unicode="&#x1e9e;" horiz-adv-x="1343" 
d="M997 844q252 -82 252 -420q0 -444 -440 -444q-127 0 -221 32v230q94 -35 192 -35q100 0 143.5 46t43.5 185q0 119 -51.5 165t-167.5 46h-66v113l231 424q-82 53 -219 53q-260 0 -260 -248v-991h-278v971q0 236 133 364.5t395 128.5q178 0 323.5 -63.5t221.5 -145.5z" />
    <glyph glyph-name="Ygrave" unicode="&#x1ef2;" horiz-adv-x="1265" 
d="M616 1556l-315 302h293l207 -261zM1247 1434l-475 -895v-539h-278v539l-480 895h308l315 -609l311 609h299z" />
    <glyph glyph-name="ygrave" unicode="&#x1ef3;" horiz-adv-x="1050" 
d="M520 1167l-315 301h293l207 -260zM297 -410q-106 0 -162 35l-41 221q61 -29 137 -28q117 0 158 116l25 68l-402 1042h279l252 -716l221 716h268l-411 -1179q-97 -275 -324 -275z" />
    <glyph glyph-name="endash" unicode="&#x2013;" horiz-adv-x="1146" 
d="M119 479v221h909v-221h-909z" />
    <glyph glyph-name="emdash" unicode="&#x2014;" horiz-adv-x="1740" 
d="M119 479v221h1503v-221h-1503z" />
    <glyph glyph-name="quoteleft" unicode="&#x2018;" horiz-adv-x="526" 
d="M434 1516l-53 -566h-313l223 566h143z" />
    <glyph glyph-name="quoteright" unicode="&#x2019;" horiz-adv-x="493" 
d="M102 950l54 566h313l-223 -566h-144z" />
    <glyph glyph-name="quotesinglbase" unicode="&#x201a;" horiz-adv-x="552" 
d="M82 -270l53 565h314l-224 -565h-143z" />
    <glyph glyph-name="quotedblleft" unicode="&#x201c;" horiz-adv-x="915" 
d="M434 1516l-53 -566h-313l223 566h143zM823 1516l-53 -566h-313l223 566h143z" />
    <glyph glyph-name="quotedblright" unicode="&#x201d;" horiz-adv-x="880" 
d="M102 950l54 566h313l-223 -566h-144zM489 950l54 566h313l-223 -566h-144z" />
    <glyph glyph-name="quotedblbase" unicode="&#x201e;" horiz-adv-x="942" 
d="M82 -270l53 565h314l-224 -565h-143zM471 -270l53 565h314l-224 -565h-143z" />
    <glyph glyph-name="dagger" unicode="&#x2020;" horiz-adv-x="960" 
d="M907 1112v-192h-323v-1166h-205v1166h-326v192h326v322h205v-322h323z" />
    <glyph glyph-name="daggerdbl" unicode="&#x2021;" horiz-adv-x="1058" 
d="M956 920h-323v-652h323v-192h-323v-322h-205v322h-326v192h326v652h-326v192h326v322h205v-322h323v-192z" />
    <glyph glyph-name="bullet" unicode="&#x2022;" horiz-adv-x="804" 
d="M401 317q-109 0 -182.5 66t-73.5 184q0 121 74 185.5t182 64.5q111 0 184.5 -64.5t73.5 -185.5q0 -119 -73.5 -184.5t-184.5 -65.5z" />
    <glyph glyph-name="ellipsis" unicode="&#x2026;" horiz-adv-x="1609" 
d="M121 0v295h303v-295h-303zM653 0v295h303v-295h-303zM1186 0v295h303v-295h-303z" />
    <glyph glyph-name="perthousand" unicode="&#x2030;" horiz-adv-x="2451" 
d="M393 733q-332 0 -332 367q0 365 332 364q334 0 334 -364q0 -367 -334 -367zM236 0l960 1434h242l-961 -1434h-241zM393 922q131 0 131 178q0 94 -31.5 136t-99.5 42q-66 0 -96.5 -42t-30.5 -136q0 -178 127 -178zM1284 -20q-332 0 -332 366q0 365 332 365q334 0 334 -365
q0 -366 -334 -366zM2062.5 -20q-331.5 0 -331.5 366q0 365 331.5 365t331.5 -365q0 -366 -331.5 -366zM1284 168q129 0 129 178q0 94 -30.5 136t-98.5 42q-66 0 -96.5 -42t-30.5 -136q0 -178 127 -178zM2062 168q129 0 129 178t-129 178t-129 -178t129 -178z" />
    <glyph glyph-name="guilsinglleft" unicode="&#x2039;" horiz-adv-x="638" 
d="M305 129l-244 393l244 393h242l-203 -393l203 -393h-242z" />
    <glyph glyph-name="guilsinglright" unicode="&#x203a;" horiz-adv-x="638" 
d="M334 129h-242l203 393l-203 393h242l244 -393z" />
    <glyph glyph-name="fraction" unicode="&#x2044;" horiz-adv-x="409" 
d="M-393 0l971 1434h219l-971 -1434h-219z" />
    <glyph glyph-name="Euro" unicode="&#x20ac;" horiz-adv-x="1282" 
d="M864 215q90 0 185.5 27.5t156.5 62.5l-39 -266q-51 -27 -140 -48.5t-181 -21.5q-244 0 -386.5 121t-185.5 371h-200v205h180v51q0 35 2 67h-186v205h206q47 242 188.5 358.5t381.5 116.5q90 0 177 -22.5t140 -48.5l15 -254q-53 31 -140.5 55.5t-173.5 24.5
q-121 0 -193.5 -54.5t-105.5 -175.5h412l-31 -205h-407q-2 -33 -2 -67v-51h387l-31 -205h-332q31 -129 104.5 -187.5t198.5 -58.5z" />
    <glyph glyph-name="uni20BD" unicode="&#x20bd;" horiz-adv-x="1304" 
d="M98 223v217h174v119h-174v217h174v658h471q250 0 376 -117t126 -332q0 -205 -126 -315.5t-376 -110.5h-200v-119h463v-217h-463v-223h-271v223h-174zM543 776h200q229 0 230 205q0 100 -58.5 154.5t-171.5 54.5h-200v-414z" />
    <glyph glyph-name="uni2113" unicode="&#x2113;" horiz-adv-x="919" 
d="M416 461q2 -127 18.5 -189.5t48 -83t95.5 -20.5q66 0 129 22.5t96 42.5l31 23v-203q-12 -8 -36 -20.5t-100.5 -32.5t-156.5 -20q-166 0 -247 81.5t-85 274.5l-141 -84v215l141 90v582q0 326 328 325q158 0 240.5 -85t82.5 -240q0 -195 -96 -356.5t-348 -321.5zM537 1278
q-61 0 -91 -33t-30 -106v-449q137 96 184 201.5t47 247.5q1 139 -110 139z" />
    <glyph glyph-name="uni2116" unicode="&#x2116;" horiz-adv-x="2191" 
d="M1780 733q-332 0 -332 367q0 365 332 364q334 0 334 -364q0 -367 -334 -367zM1018 1434h258v-1434h-238l-612 954v-954h-260v1434h240l612 -953v953zM1780 922q129 0 129 178q0 94 -31 136t-98 42q-66 0 -96.5 -42t-30.5 -136q0 -178 127 -178zM1493 397v197h575v-197
h-575z" />
    <glyph glyph-name="uni2117" unicode="&#x2117;" horiz-adv-x="1648" 
d="M825.5 -20q-315.5 0 -529.5 214t-214 529t214 528t529.5 213t528.5 -213t213 -528t-213 -529t-528.5 -214zM825 113q258 0 430 175t172 435t-172 434t-430 174q-256 0 -430 -174t-174 -434t174 -435t430 -175zM567 295v844h326q154 0 231.5 -72t77.5 -203t-77.5 -201.5
t-231.5 -70.5h-162v-297h-164zM731 739h162q141 0 141 125q0 127 -141 127h-162v-252z" />
    <glyph glyph-name="trademark" unicode="&#x2122;" horiz-adv-x="1460" 
d="M250 844v432h-182v158h526v-158h-176v-432h-168zM680 844v590h162l157 -217l156 217h168v-590h-168v336l-158 -222l-155 220v-334h-162z" />
    <glyph glyph-name="estimated" unicode="&#x212e;" horiz-adv-x="1589" 
d="M809 -20q-297 0 -509 210.5t-212 509.5t212 510t509 211t509 -211t212 -510v-49h-1114v-446q184 -137 393 -137q203 0 383 127h137q-203 -215 -520 -215zM416 741h786v453q-174 139 -393 139q-213 0 -393 -137v-455z" />
    <glyph glyph-name="oneeighth" unicode="&#x215b;" horiz-adv-x="1693" 
d="M201 666v522l-152 -49v190l359 115v-778h-207zM1104 1434h219l-971 -1434h-219zM1505 414q121 -55 121 -193q0 -109 -86 -173t-225 -64t-225 58t-86 159q0 123 118 172q-96 55 -96 178q0 106 77 168.5t212 62.5t212 -57t77 -154q-1 -108 -99 -157zM1315 616
q-98 0 -98 -69q0 -39 35.5 -56.5t115.5 -35.5q45 35 45 84q0 77 -98 77zM1315 150q51 0 79.5 20t28.5 57q0 41 -35.5 59.5t-111.5 35.5q-12 4 -19 4q-51 -37 -51 -90q0 -86 109 -86z" />
    <glyph glyph-name="threeeighths" unicode="&#x215c;" horiz-adv-x="1890" 
d="M653 874q0 -223 -309 -223q-74 0 -137.5 12.5t-89.5 22.5l-27 12l-31 199q4 -4 33 -20.5t90.5 -36t120.5 -19.5q80 0 113 20.5t33 61.5q0 74 -93 74h-153v153h137q86 0 86 70q0 41 -25.5 60.5t-91.5 19.5q-25 0 -50.5 -3t-45.5 -9t-39.5 -12.5t-35 -12.5t-27 -12
t-17.5 -9l-6 -3l10 174q10 6 29.5 15t85.5 25.5t137 16.5q131 0 207 -52t76 -161q0 -119 -103 -170q123 -50 123 -193zM1300 1434h220l-971 -1434h-219zM1702 414q121 -55 121 -193q0 -109 -86 -173t-225.5 -64t-225.5 58t-86 159q0 123 121 172q-98 55 -98 178
q0 106 76.5 168.5t212 62.5t212 -57t76.5 -154q0 -108 -98 -157zM1511.5 616q-98.5 0 -98.5 -69q0 -39 36 -56.5t116 -35.5q45 35 45 84q0 77 -98.5 77zM1511 150q51 0 80 20t29 57q0 41 -36 59.5t-111 35.5q-12 4 -19 4q-51 -37 -51 -90q-1 -86 108 -86z" />
    <glyph glyph-name="fiveeighths" unicode="&#x215d;" horiz-adv-x="1882" 
d="M653 911q0 -262 -340 -262q-57 0 -110 10.5t-80 20.5l-25 10l-28 199q100 -70 233 -70q141 0 141 99q0 94 -141 94q-57 0 -113.5 -8.5t-83.5 -16.5l-26 -10l41 457h504l-29 -170h-315l-11 -127q53 16 123 16q121 0 190.5 -63.5t69.5 -178.5zM1292 1434h219l-970 -1434
h-219zM1694 414q121 -55 121 -193q0 -109 -86.5 -173t-225.5 -64t-225 58t-86 159q0 123 119 172q-96 55 -97 178q0 106 77 168.5t212 62.5t212 -57t77 -154q0 -108 -98 -157zM1503.5 616q-98.5 0 -98.5 -69q0 -39 36 -56.5t115 -35.5q45 35 46 84q0 77 -98.5 77zM1503 150
q51 0 80 20t29 57q0 41 -36 59.5t-112 35.5q-12 4 -18 4q-51 -37 -51 -90q-1 -86 108 -86z" />
    <glyph glyph-name="seveneighths" unicode="&#x215e;" horiz-adv-x="1753" 
d="M336 666h-211l256 587h-336v181h551v-170zM1163 1434h219l-970 -1434h-219zM1565 414q121 -55 121 -193q0 -109 -86.5 -173t-225.5 -64t-225 58t-86 159q0 123 121 172q-98 55 -99 178q0 106 77 168.5t212 62.5t212 -57t77 -154q0 -108 -98 -157zM1374.5 616
q-98.5 0 -98.5 -69q0 -39 36 -56.5t115 -35.5q45 35 46 84q0 77 -98.5 77zM1374 150q51 0 80 20t29 57q0 41 -36 59.5t-112 35.5q-12 4 -18 4q-51 -37 -51 -90q-1 -86 108 -86z" />
    <glyph glyph-name="arrowleft" unicode="&#x2190;" horiz-adv-x="1574" 
d="M1505 643l-1007 -2l442 -440l-166 -166l-723 725l723 723l166 -164l-442 -442l1007 -3v-231z" />
    <glyph glyph-name="arrowup" unicode="&#x2191;" horiz-adv-x="1533" 
d="M1491 700l-166 -165l-442 442v-1008h-232l-2 1008l-442 -442l-164 165l723 723z" />
    <glyph glyph-name="arrowright" unicode="&#x2192;" horiz-adv-x="1574" 
d="M801 1483l723 -723l-723 -725l-166 166l442 442h-1007v231l1007 3l-442 442z" />
    <glyph glyph-name="arrowdown" unicode="&#x2193;" horiz-adv-x="1533" 
d="M1325 899l166 -166l-725 -723l-723 723l164 166l442 -442l2 1007h232v-1007z" />
    <glyph glyph-name="uni2196" unicode="&#x2196;" horiz-adv-x="1343" 
d="M1249 295l-164 -166l-712 713v-625h-234v1024h1024v-233h-624z" />
    <glyph glyph-name="uni2197" unicode="&#x2197;" horiz-adv-x="1343" 
d="M180 1241h1024v-1024h-233v625l-713 -713l-164 166l711 713h-625v233z" />
    <glyph glyph-name="uni2198" unicode="&#x2198;" horiz-adv-x="1341" 
d="M969 1155h233v-1024h-1024v234h625l-711 712l164 166l713 -713v625z" />
    <glyph glyph-name="uni2199" unicode="&#x2199;" horiz-adv-x="1343" 
d="M1249 1083l-710 -712h624v-234h-1024v1024h234v-624l712 712z" />
    <glyph glyph-name="partialdiff" unicode="&#x2202;" horiz-adv-x="1134" 
d="M567 1454q125 0 217.5 -39t157 -125t89 -229t7.5 -344q-25 -279 -87 -439.5t-167.5 -229t-277.5 -68.5q-236 0 -337 119.5t-81 373.5q23 256 128.5 375t301.5 119q152 0 266 -74q-2 104 -21.5 174t-56 107.5t-82.5 52t-110 14.5q-150 0 -270 -55l35 217q106 51 288 51z
M518 193q78 0 125 38.5t81 150.5t52 314q-94 59 -211 54q-104 0 -156.5 -64.5t-64.5 -212.5q-12 -147 30 -213.5t144 -66.5z" />
    <glyph glyph-name="emptyset" unicode="&#x2205;" horiz-adv-x="1335" 
d="M1100 1096q137 -160 137 -377q0 -242 -165 -407t-406 -165q-160 0 -293 78l-121 -143l-133 117l117 139q-139 160 -140 381q0 242 164 406.5t406 164.5q162 0 297 -80l120 144l140 -113zM313 719q0 -117 64 -211l446 534q-74 37 -157 37q-150 0 -251.5 -104t-101.5 -256z
M666 358q150 0 252 104.5t102 256.5q0 115 -62 207l-446 -533q72 -35 154 -35z" />
    <glyph glyph-name="product" unicode="&#x220f;" horiz-adv-x="1429" 
d="M256 -389v1581h-197v242h1311v-242h-196v-1581h-263v1581h-393v-1581h-262z" />
    <glyph glyph-name="summation" unicode="&#x2211;" horiz-adv-x="1120" 
d="M1053 1434v-242h-678l428 -672l-428 -670h678v-241h-981v241l430 670l-430 672v242h981z" />
    <glyph glyph-name="minus" unicode="&#x2212;" horiz-adv-x="1241" 
d="M125 596v221h991v-221h-991z" />
    <glyph glyph-name="radical" unicode="&#x221a;" horiz-adv-x="1363" 
d="M535 0l-252 739h-254v242h448l203 -623l428 1239h276l-565 -1597h-284z" />
    <glyph glyph-name="infinity" unicode="&#x221e;" horiz-adv-x="1642" 
d="M446 317q-152 0 -253 113t-101 303.5t101.5 303t252.5 112.5q127 0 214.5 -71.5t160.5 -194.5q74 123 161 194.5t214 71.5q152 0 253 -112.5t101 -303t-101 -303.5t-253 -113q-127 0 -211 71t-164 196q-80 -125 -164 -196t-211 -71zM473 541q68 0 118 49t105 141
q-59 96 -107 145.5t-116 49.5q-66 0 -107.5 -48.5t-41.5 -144.5t41.5 -144t107.5 -48zM1171 541q63 0 106.5 48t43.5 144t-43 144.5t-107 48.5q-68 0 -115.5 -48.5t-109.5 -146.5q57 -94 107 -142t118 -48z" />
    <glyph glyph-name="integral" unicode="&#x222b;" horiz-adv-x="714" 
d="M10 -618v225h115q104 0 104 102v1411q0 145 90.5 229.5t251.5 84.5h134v-226h-115q-102 0 -103 -102v-1411q0 -145 -91 -229t-251 -84h-135z" />
    <glyph glyph-name="approxequal" unicode="&#x2248;" horiz-adv-x="1251" 
d="M889 741q-100 0 -266 70t-197 70q-45 0 -64.5 -30t-19.5 -99h-215q-2 356 250 356q109 0 268.5 -69.5t196.5 -69.5q84 0 84 131h215q0 -359 -252 -359zM889 303q-100 0 -266 69.5t-197 69.5q-45 0 -64.5 -29.5t-19.5 -99.5h-215q-2 356 250 357q109 0 268.5 -70
t196.5 -70q84 0 84 132h215q0 -359 -252 -359z" />
    <glyph glyph-name="notequal" unicode="&#x2260;" horiz-adv-x="1241" 
d="M1116 821h-348l-111 -229h459v-221h-567l-82 -166h-182l82 166h-242v221h350l111 229h-461v221h569l82 166h182l-81 -166h239v-221z" />
    <glyph glyph-name="lessequal" unicode="&#x2264;" horiz-adv-x="1097" 
d="M961 1245v-225l-502 -168l502 -168v-225l-832 282v222zM129 156v223h832v-223h-832z" />
    <glyph glyph-name="greaterequal" unicode="&#x2265;" horiz-adv-x="1097" 
d="M137 1245l832 -282v-222l-832 -282v225l502 168l-502 168v225zM137 156v223h832v-223h-832z" />
    <glyph glyph-name="lozenge" unicode="&#x25ca;" horiz-adv-x="1120" 
d="M471 0l-412 717l412 717h180l410 -717l-410 -717h-180zM559 268l266 449l-266 448l-264 -448z" />
    <glyph glyph-name="germandbls.aalt" horiz-adv-x="1343" 
d="M997 844q252 -82 252 -420q0 -444 -440 -444q-127 0 -221 32v230q94 -35 192 -35q100 0 143.5 46t43.5 185q0 119 -51.5 165t-167.5 46h-66v113l231 424q-82 53 -219 53q-260 0 -260 -248v-991h-278v971q0 236 133 364.5t395 128.5q178 0 323.5 -63.5t221.5 -145.5z" />
    <glyph glyph-name="i.aalt" horiz-adv-x="536" 
d="M139 1186v244h258v-244h-258zM139 0v1044h258v-1044h-258z" />
    <glyph glyph-name="a.salt" horiz-adv-x="1155" 
d="M797 1044h219v-1044h-219l-37 111l-2 -2v-3q-74 -104 -228 -122q-27 -4 -55 -4q-201 0 -295 129t-94 413.5t94 413.5t295 129q86 0 155.5 -32t93.5 -55.5t34 -39.5v-2l2 -2zM553 205q111 0 158 72.5t47 244.5t-47 245t-158 73t-158 -73t-47 -245t47 -244.5t158 -72.5z
" />
    <glyph glyph-name="aacute.aalt" horiz-adv-x="1155" 
d="M895 1468l-315 -301l-185 41l207 260h293zM797 1044h219v-1044h-219l-37 111l-2 -2v-3q-74 -104 -228 -122q-27 -4 -55 -4q-201 0 -295 129t-94 413.5t94 413.5t295 129q86 0 155.5 -32t93.5 -55.5t34 -39.5v-2l2 -2zM553 205q111 0 158 72.5t47 244.5t-47 245t-158 73
t-158 -73t-47 -245t47 -244.5t158 -72.5z" />
    <glyph glyph-name="abreve.aalt" horiz-adv-x="1155" 
d="M590 1157q-154 0 -236 79t-90 210l207 41q6 -168 119 -168q111 0 117 168l206 -41q-8 -131 -89.5 -210t-233.5 -79zM797 1044h219v-1044h-219l-37 111l-2 -2v-3q-74 -104 -228 -122q-27 -4 -55 -4q-201 0 -295 129t-94 413.5t94 413.5t295 129q86 0 155.5 -32t93.5 -55.5
t34 -39.5v-2l2 -2zM553 205q111 0 158 72.5t47 244.5t-47 245t-158 73t-158 -73t-47 -245t47 -244.5t158 -72.5z" />
    <glyph glyph-name="acircumflex.aalt" horiz-adv-x="1155" 
d="M586 1311l-185 -144l-170 41l228 260h254l227 -260l-170 -41zM797 1044h219v-1044h-219l-37 111l-2 -2v-3q-74 -104 -228 -122q-27 -4 -55 -4q-201 0 -295 129t-94 413.5t94 413.5t295 129q86 0 155.5 -32t93.5 -55.5t34 -39.5v-2l2 -2zM553 205q111 0 158 72.5t47 244.5
t-47 245t-158 73t-158 -73t-47 -245t47 -244.5t158 -72.5z" />
    <glyph glyph-name="adieresis.aalt" horiz-adv-x="1155" 
d="M504 1432v-244h-238v244h238zM909 1432v-244h-237v244h237zM797 1044h219v-1044h-219l-37 111l-2 -2v-3q-74 -104 -228 -122q-27 -4 -55 -4q-201 0 -295 129t-94 413.5t94 413.5t295 129q86 0 155.5 -32t93.5 -55.5t34 -39.5v-2l2 -2zM553 205q111 0 158 72.5t47 244.5
t-47 245t-158 73t-158 -73t-47 -245t47 -244.5t158 -72.5z" />
    <glyph glyph-name="agrave.aalt" horiz-adv-x="1155" 
d="M760 1208l-185 -41l-315 301h293zM797 1044h219v-1044h-219l-37 111l-2 -2v-3q-74 -104 -228 -122q-27 -4 -55 -4q-201 0 -295 129t-94 413.5t94 413.5t295 129q86 0 155.5 -32t93.5 -55.5t34 -39.5v-2l2 -2zM553 205q111 0 158 72.5t47 244.5t-47 245t-158 73t-158 -73
t-47 -245t47 -244.5t158 -72.5z" />
    <glyph glyph-name="amacron.aalt" horiz-adv-x="1155" 
d="M895 1399v-162h-612v162h612zM797 1044h219v-1044h-219l-37 111l-2 -2v-3q-74 -104 -228 -122q-27 -4 -55 -4q-201 0 -295 129t-94 413.5t94 413.5t295 129q86 0 155.5 -32t93.5 -55.5t34 -39.5v-2l2 -2zM553 205q111 0 158 72.5t47 244.5t-47 245t-158 73t-158 -73
t-47 -245t47 -244.5t158 -72.5z" />
    <glyph glyph-name="aogonek.aalt" horiz-adv-x="1155" 
d="M1016 0q-137 -94 -137 -180q0 -70 69 -70q20 0 36.5 4t23.5 8l8 2v-149q-49 -25 -129 -25q-92 0 -140.5 46.5t-48.5 125.5q0 68 44 131.5t124 106.5h-69l-37 111l-2 -2v-3q-74 -104 -228 -122q-27 -4 -55 -4q-201 0 -295 129t-94 413.5t94 413.5t295 129q86 0 155.5 -32
t93.5 -55.5t34 -39.5v-2l2 -2l37 110h219v-1044zM553 205q111 0 158 72.5t47 244.5t-47 245t-158 73t-158 -73t-47 -245t47 -244.5t158 -72.5z" />
    <glyph glyph-name="aring.aalt" horiz-adv-x="1155" 
d="M590 1157q-109 0 -178.5 64.5t-69.5 171.5q0 109 69.5 173t178.5 64q106 0 176 -64.5t70 -172.5q0 -106 -70 -171t-176 -65zM590 1499q-49 0 -77 -28.5t-28 -77.5q0 -47 28 -76t77 -29q47 0 74.5 29t27.5 76q0 49 -27.5 77.5t-74.5 28.5zM797 1044h219v-1044h-219
l-37 111l-2 -2v-3q-74 -104 -228 -122q-27 -4 -55 -4q-201 0 -295 129t-94 413.5t94 413.5t295 129q86 0 155.5 -32t93.5 -55.5t34 -39.5v-2l2 -2zM553 205q111 0 158 72.5t47 244.5t-47 245t-158 73t-158 -73t-47 -245t47 -244.5t158 -72.5z" />
    <glyph glyph-name="atilde.aalt" horiz-adv-x="1155" 
d="M485 1278q-27 0 -50 -18.5t-73 -81.5l-131 96q82 106 136.5 143t117.5 37q51 0 120 -49t93.5 -49t47 18.5t73.5 79.5l131 -94q-80 -106 -134 -144t-118 -38q-51 0 -119.5 50t-93.5 50zM797 1044h219v-1044h-219l-37 111l-2 -2v-3q-74 -104 -228 -122q-27 -4 -55 -4
q-201 0 -295 129t-94 413.5t94 413.5t295 129q86 0 155.5 -32t93.5 -55.5t34 -39.5v-2l2 -2zM553 205q111 0 158 72.5t47 244.5t-47 245t-158 73t-158 -73t-47 -245t47 -244.5t158 -72.5z" />
    <glyph glyph-name="ae.aalt" horiz-adv-x="1767" 
d="M1688 520v-80h-672q4 -119 68.5 -177t213.5 -58q76 0 160 14t131 27l45 14l-41 -233q-113 -47 -239 -47q-233 0 -346 135v-115h-250v109v-3q-10 -12 -23.5 -26t-47.5 -41t-89 -43t-123 -16q-201 0 -295 129t-94 413.5t94 413.5t295 129q57 0 107.5 -13.5t80 -30.5
t53 -38.5t32 -33t10.5 -15.5v110h250v-104q98 125 280 125q199 0 299.5 -130t100.5 -415zM1229 852q-98 0 -152.5 -59.5t-60.5 -176.5h426q-10 236 -213 236zM553 205q111 0 158 72.5t47 244.5t-47 245t-158 73t-158 -73t-47 -245t47 -244.5t158 -72.5z" />
    <glyph glyph-name="y.aalt" 
d="M786 1044h258v-931q0 -264 -129 -393.5t-393 -129.5q-168 0 -295 50l-39 239q152 -63 314 -63q150 0 217 68.5t67 228.5v18q-59 -68 -126.5 -99.5t-161.5 -31.5q-178 0 -273.5 113.5t-95.5 302.5v628h258v-567q0 -125 44 -186.5t147 -61.5q113 0 160.5 61.5t47.5 186.5
v567z" />
    <glyph glyph-name="yacute.aalt" 
d="M883 1468l-316 -301l-184 41l207 260h293zM786 1044h258v-931q0 -264 -129 -393.5t-393 -129.5q-168 0 -295 50l-39 239q152 -63 314 -63q150 0 217 68.5t67 228.5v18q-59 -68 -126.5 -99.5t-161.5 -31.5q-178 0 -273.5 113.5t-95.5 302.5v628h258v-567q0 -125 44 -186.5
t147 -61.5q113 0 160.5 61.5t47.5 186.5v567z" />
    <glyph glyph-name="ycircumflex.aalt" 
d="M573 1311l-184 -144l-170 41l227 260h254l228 -260l-170 -41zM786 1044h258v-931q0 -264 -129 -393.5t-393 -129.5q-168 0 -295 50l-39 239q152 -63 314 -63q150 0 217 68.5t67 228.5v18q-59 -68 -126.5 -99.5t-161.5 -31.5q-178 0 -273.5 113.5t-95.5 302.5v628h258
v-567q0 -125 44 -186.5t147 -61.5q113 0 160.5 61.5t47.5 186.5v567z" />
    <glyph glyph-name="ydieresis.aalt" 
d="M492 1432v-244h-238v244h238zM897 1432v-244h-238v244h238zM786 1044h258v-931q0 -264 -129 -393.5t-393 -129.5q-168 0 -295 50l-39 239q152 -63 314 -63q150 0 217 68.5t67 228.5v18q-59 -68 -126.5 -99.5t-161.5 -31.5q-178 0 -273.5 113.5t-95.5 302.5v628h258v-567
q0 -125 44 -186.5t147 -61.5q113 0 160.5 61.5t47.5 186.5v567z" />
    <glyph glyph-name="ygrave.aalt" 
d="M748 1208l-185 -41l-315 301h293zM786 1044h258v-931q0 -264 -129 -393.5t-393 -129.5q-168 0 -295 50l-39 239q152 -63 314 -63q150 0 217 68.5t67 228.5v18q-59 -68 -126.5 -99.5t-161.5 -31.5q-178 0 -273.5 113.5t-95.5 302.5v628h258v-567q0 -125 44 -186.5
t147 -61.5q113 0 160.5 61.5t47.5 186.5v567z" />
    <glyph glyph-name="uni0414.locl" horiz-adv-x="1478" 
d="M1300 250h130v-524h-259v274h-866v-274h-258v524h123l434 1184h262zM733 1077l-282 -827h561z" />
    <glyph glyph-name="uni041B.locl" horiz-adv-x="1320" 
d="M1309 0h-301l-351 1051l-354 -1051h-291l518 1434h263z" />
    <glyph glyph-name="uni0424.locl" horiz-adv-x="1759" 
d="M1020 1393q311 0 479 -171t168 -505t-168 -505t-479 -171v-133h-279v133q-311 0 -480 171t-169 505t169 505t480 171v133h279v-133zM752 262v909q-174 0 -275.5 -109.5t-101.5 -344.5q0 -233 101.5 -344t275.5 -111zM1010 262q172 0 273 110.5t101 344t-100 344
t-274 110.5v-909z" />
    <glyph glyph-name="uni0414.ss02" horiz-adv-x="1478" 
d="M1300 250h130v-524h-259v274h-866v-274h-258v524h123l434 1184h262zM733 1077l-282 -827h561z" />
    <glyph glyph-name="uni041B.ss02" horiz-adv-x="1320" 
d="M1309 0h-301l-351 1051l-354 -1051h-291l518 1434h263z" />
    <glyph glyph-name="uni0424.ss02" horiz-adv-x="1759" 
d="M1020 1393q311 0 479 -171t168 -505t-168 -505t-479 -171v-133h-279v133q-311 0 -480 171t-169 505t169 505t480 171v133h279v-133zM752 262v909q-174 0 -275.5 -109.5t-101.5 -344.5q0 -233 101.5 -344t275.5 -111zM1010 262q172 0 273 110.5t101 344t-100 344
t-274 110.5v-909z" />
    <glyph glyph-name="uni0432.locl" horiz-adv-x="1134" 
d="M877 748q98 -45 136 -127t38 -201q0 -219 -118 -329.5t-347 -110.5q-233 0 -346 119.5t-113 371.5v522q0 223 113.5 342t341.5 119q215 0 328.5 -106.5t113.5 -284.5q0 -229 -147 -315zM571 1229q-98 0 -142 -54.5t-44 -181.5v-155h188q188 0 189 198q-1 193 -191 193z
M586 205q104 0 153 53t49 166q0 111 -47 158t-153 47h-203v-158q0 -141 47.5 -203.5t153.5 -62.5z" />
    <glyph glyph-name="uni0433.locl" horiz-adv-x="974" 
d="M461 -20q-197 0 -294 79.5t-97 227.5q0 129 68.5 208.5t228.5 120.5l151 41q66 16 91.5 38t25.5 59q0 84 -148 86q-176 0 -370 -64l14 238q182 51 369 51q391 0 391 -301q0 -129 -61.5 -200.5t-211.5 -110.5l-161 -41q-70 -23 -99.5 -49.5t-29.5 -65.5q0 -92 145 -92
q127 0 240.5 28.5t175.5 65.5l-43 -246q-147 -73 -385 -73z" />
    <glyph glyph-name="uni0434.locl" horiz-adv-x="1155" 
d="M494 -410q-168 0 -295 50l-39 239q152 -63 313 -63q145 0 214 65.5t71 214.5v13q-43 -43 -76 -62q-86 -47 -207 -47q-201 0 -295 124t-94 398q0 285 94 414t295 129q86 0 155.5 -32t93.5 -55.5t34 -39.5v-2l39 108h219v-931q0 -264 -129 -393.5t-393 -129.5zM553 225
q111 0 158 67.5t47 229.5q0 172 -47 245t-158 73t-158 -73t-47 -245q0 -162 47 -229.5t158 -67.5z" />
    <glyph glyph-name="uni0436.locl" horiz-adv-x="1609" 
d="M23 0l329 545l-305 499h281l239 -413h109v782l258 41v-823h108l240 413h281l-303 -499l327 -545h-293l-243 422h-117v-422h-258v422h-117l-242 -422h-294z" />
    <glyph glyph-name="uni0437.locl" horiz-adv-x="966" 
d="M707 358q100 -43 140 -129t40 -223q0 -416 -494 -416q-100 0 -182 19.5t-123 44.5l-41 237q59 -29 150.5 -52t177.5 -23q131 0 190.5 49t59.5 160q0 115 -47.5 163t-153.5 48h-209v217h180q109 0 156 47t47 155q0 98 -52 141.5t-171 43.5q-145 0 -301 -66l14 227
q45 25 133 44.5t195 19.5q444 0 444 -389q1 -236 -153 -318z" />
    <glyph glyph-name="uni0438.locl" 
d="M500 -20q-180 0 -275.5 113.5t-95.5 303.5v647h258v-587q0 -125 45 -186.5t148 -61.5q111 0 158.5 61.5t47.5 186.5v587h258v-1044h-217l-41 115q-98 -135 -286 -135z" />
    <glyph glyph-name="uni0439.locl" 
d="M580 1157q-154 0 -236 79t-90 210l207 41q6 -168 119 -168q111 0 116 168l207 -41q-8 -131 -89.5 -210t-233.5 -79zM500 -20q-180 0 -275.5 113.5t-95.5 303.5v647h258v-587q0 -125 45 -186.5t148 -61.5q111 0 158.5 61.5t47.5 186.5v587h258v-1044h-217l-41 115
q-98 -135 -286 -135z" />
    <glyph glyph-name="uni045D.locl" 
d="M565 1167l-315 301h293l207 -260zM500 -20q-180 0 -275.5 113.5t-95.5 303.5v647h258v-587q0 -125 45 -186.5t148 -61.5q111 0 158.5 61.5t47.5 186.5v587h258v-1044h-217l-41 115q-98 -135 -286 -135z" />
    <glyph glyph-name="uni043A.locl" horiz-adv-x="1107" 
d="M788 0l-270 424h-121v-424h-258v1413l258 41v-813h117l262 403h293l-344 -501l369 -543h-306z" />
    <glyph glyph-name="uni043B.locl" horiz-adv-x="1083" 
d="M1069 0h-276l-254 739l-256 -739h-269l400 1044h260z" />
    <glyph glyph-name="uni043F.locl" 
d="M139 0v1044h217l41 -114q98 135 287 135q180 0 275.5 -113.5t95.5 -304.5v-647h-258v588q0 125 -45 186.5t-148 61.5q-111 0 -159 -61.5t-48 -186.5v-588h-258z" />
    <glyph glyph-name="uni0442.locl" horiz-adv-x="1804" 
d="M1296 1065q184 0 281.5 -111.5t97.5 -298.5v-655h-258v596q0 119 -43 179.5t-139 60.5q-106 0 -152.5 -60.5t-46.5 -179.5v-596h-258v596q0 121 -42 180.5t-140 59.5q-106 0 -152.5 -59.5t-46.5 -180.5v-596h-258v1044h217l41 -114q94 135 279 135q203 0 291 -152
q124 152 329 152z" />
    <glyph glyph-name="uni0446.locl" horiz-adv-x="1257" 
d="M1100 229h88v-462l-240 -41v274q-61 0 -103 30.5t-52 84.5q-98 -135 -289 -135q-182 0 -278.5 111.5t-96.5 295.5v657h258v-595q0 -121 45 -180.5t152 -59.5q111 0 159 60.5t48 179.5v595h258v-761q0 -54 51 -54z" />
    <glyph glyph-name="uni0448.locl" horiz-adv-x="1804" 
d="M508 -20q-184 0 -281.5 111.5t-97.5 297.5v655h258v-595q0 -119 43 -179.5t139 -60.5q106 0 152.5 60.5t46.5 179.5v595h258v-595q0 -121 42 -180.5t140 -59.5q106 0 152.5 59.5t46.5 180.5v595h258v-1044h-217l-41 115q-94 -135 -279 -135q-203 0 -290 151
q-125 -151 -330 -151z" />
    <glyph glyph-name="uni0449.locl" horiz-adv-x="1906" 
d="M1751 229h86v-462l-240 -41v274q-63 0 -105 31.5t-50 87.5q-100 -139 -289 -139q-205 0 -301 151q-63 -78 -143 -114.5t-193 -36.5q-188 0 -287.5 113.5t-99.5 301.5v649h258v-587q0 -125 44 -186.5t147 -61.5q111 0 158.5 61.5t47.5 186.5v587h258v-587
q0 -125 44 -186.5t147 -61.5q111 0 159 61.5t48 186.5v587h258v-761q0 -54 53 -54z" />
    <glyph glyph-name="uni044E.locl" horiz-adv-x="1572" 
d="M1032 1065q240 0 348.5 -130t108.5 -412.5t-108.5 -412.5t-348.5 -130q-215 0 -323.5 105t-126.5 331h-185v-416h-258v1413l258 41v-817h185q20 221 128.5 324.5t321.5 103.5zM1032.5 205q106.5 0 150.5 71.5t44 245.5t-44 246t-150.5 72t-149.5 -72t-43 -246t43 -245.5
t149.5 -71.5z" />
    <glyph glyph-name="uni0430.aalt" horiz-adv-x="1155" 
d="M797 1044h219v-1044h-219l-37 111l-2 -2v-3q-74 -104 -228 -122q-27 -4 -55 -4q-201 0 -295 129t-94 413.5t94 413.5t295 129q86 0 155.5 -32t93.5 -55.5t34 -39.5v-2l2 -2zM553 205q111 0 158 72.5t47 244.5t-47 245t-158 73t-158 -73t-47 -245t47 -244.5t158 -72.5z
" />
    <glyph glyph-name="uni0443.aalt" 
d="M786 1044h258v-931q0 -264 -129 -393.5t-393 -129.5q-168 0 -295 50l-39 239q152 -63 314 -63q150 0 217 68.5t67 228.5v18q-59 -68 -126.5 -99.5t-161.5 -31.5q-178 0 -273.5 113.5t-95.5 302.5v628h258v-567q0 -125 44 -186.5t147 -61.5q113 0 160.5 61.5t47.5 186.5
v567z" />
    <glyph glyph-name="uni045E.aalt" 
d="M578 1157q-154 0 -236 79t-90 210l207 41q6 -168 119 -168q111 0 116 168l207 -41q-8 -131 -89.5 -210t-233.5 -79zM786 1044h258v-931q0 -264 -129 -393.5t-393 -129.5q-168 0 -295 50l-39 239q152 -63 314 -63q150 0 217 68.5t67 228.5v18q-59 -68 -126.5 -99.5
t-161.5 -31.5q-178 0 -273.5 113.5t-95.5 302.5v628h258v-567q0 -125 44 -186.5t147 -61.5q113 0 160.5 61.5t47.5 186.5v567z" />
    <glyph glyph-name="uni0432.ss02" horiz-adv-x="1134" 
d="M877 748q98 -45 136 -127t38 -201q0 -219 -118 -329.5t-347 -110.5q-233 0 -346 119.5t-113 371.5v522q0 223 113.5 342t341.5 119q215 0 328.5 -106.5t113.5 -284.5q0 -229 -147 -315zM571 1229q-98 0 -142 -54.5t-44 -181.5v-155h188q188 0 189 198q-1 193 -191 193z
M586 205q104 0 153 53t49 166q0 111 -47 158t-153 47h-203v-158q0 -141 47.5 -203.5t153.5 -62.5z" />
    <glyph glyph-name="uni0433.ss02" horiz-adv-x="974" 
d="M461 -20q-197 0 -294 79.5t-97 227.5q0 129 68.5 208.5t228.5 120.5l151 41q66 16 91.5 38t25.5 59q0 84 -148 86q-176 0 -370 -64l14 238q182 51 369 51q391 0 391 -301q0 -129 -61.5 -200.5t-211.5 -110.5l-161 -41q-70 -23 -99.5 -49.5t-29.5 -65.5q0 -92 145 -92
q127 0 240.5 28.5t175.5 65.5l-43 -246q-147 -73 -385 -73z" />
    <glyph glyph-name="uni0434.ss02" horiz-adv-x="1155" 
d="M494 -410q-168 0 -295 50l-39 239q152 -63 313 -63q145 0 214 65.5t71 214.5v13q-43 -43 -76 -62q-86 -47 -207 -47q-201 0 -295 124t-94 398q0 285 94 414t295 129q86 0 155.5 -32t93.5 -55.5t34 -39.5v-2l39 108h219v-931q0 -264 -129 -393.5t-393 -129.5zM553 225
q111 0 158 67.5t47 229.5q0 172 -47 245t-158 73t-158 -73t-47 -245q0 -162 47 -229.5t158 -67.5z" />
    <glyph glyph-name="uni0436.ss02" horiz-adv-x="1609" 
d="M23 0l329 545l-305 499h281l239 -413h109v782l258 41v-823h108l240 413h281l-303 -499l327 -545h-293l-243 422h-117v-422h-258v422h-117l-242 -422h-294z" />
    <glyph glyph-name="uni0437.ss02" horiz-adv-x="966" 
d="M707 358q100 -43 140 -129t40 -223q0 -416 -494 -416q-100 0 -182 19.5t-123 44.5l-41 237q59 -29 150.5 -52t177.5 -23q131 0 190.5 49t59.5 160q0 115 -47.5 163t-153.5 48h-209v217h180q109 0 156 47t47 155q0 98 -52 141.5t-171 43.5q-145 0 -301 -66l14 227
q45 25 133 44.5t195 19.5q444 0 444 -389q1 -236 -153 -318z" />
    <glyph glyph-name="uni0438.ss02" 
d="M500 -20q-180 0 -275.5 113.5t-95.5 303.5v647h258v-587q0 -125 45 -186.5t148 -61.5q111 0 158.5 61.5t47.5 186.5v587h258v-1044h-217l-41 115q-98 -135 -286 -135z" />
    <glyph glyph-name="uni0439.ss02" 
d="M580 1157q-154 0 -236 79t-90 210l207 41q6 -168 119 -168q111 0 116 168l207 -41q-8 -131 -89.5 -210t-233.5 -79zM500 -20q-180 0 -275.5 113.5t-95.5 303.5v647h258v-587q0 -125 45 -186.5t148 -61.5q111 0 158.5 61.5t47.5 186.5v587h258v-1044h-217l-41 115
q-98 -135 -286 -135z" />
    <glyph glyph-name="uni045D.ss02" 
d="M565 1167l-315 301h293l207 -260zM500 -20q-180 0 -275.5 113.5t-95.5 303.5v647h258v-587q0 -125 45 -186.5t148 -61.5q111 0 158.5 61.5t47.5 186.5v587h258v-1044h-217l-41 115q-98 -135 -286 -135z" />
    <glyph glyph-name="uni043A.ss02" horiz-adv-x="1107" 
d="M788 0l-270 424h-121v-424h-258v1413l258 41v-813h117l262 403h293l-344 -501l369 -543h-306z" />
    <glyph glyph-name="uni043B.ss02" horiz-adv-x="1083" 
d="M1069 0h-276l-254 739l-256 -739h-269l400 1044h260z" />
    <glyph glyph-name="uni043F.ss02" 
d="M139 0v1044h217l41 -114q98 135 287 135q180 0 275.5 -113.5t95.5 -304.5v-647h-258v588q0 125 -45 186.5t-148 61.5q-111 0 -159 -61.5t-48 -186.5v-588h-258z" />
    <glyph glyph-name="uni0442.ss02" horiz-adv-x="1804" 
d="M1296 1065q184 0 281.5 -111.5t97.5 -298.5v-655h-258v596q0 119 -43 179.5t-139 60.5q-106 0 -152.5 -60.5t-46.5 -179.5v-596h-258v596q0 121 -42 180.5t-140 59.5q-106 0 -152.5 -59.5t-46.5 -180.5v-596h-258v1044h217l41 -114q94 135 279 135q203 0 291 -152
q124 152 329 152z" />
    <glyph glyph-name="uni0446.ss02" horiz-adv-x="1257" 
d="M1100 229h88v-462l-240 -41v274q-61 0 -103 30.5t-52 84.5q-98 -135 -289 -135q-182 0 -278.5 111.5t-96.5 295.5v657h258v-595q0 -121 45 -180.5t152 -59.5q111 0 159 60.5t48 179.5v595h258v-761q0 -54 51 -54z" />
    <glyph glyph-name="uni0448.ss02" horiz-adv-x="1804" 
d="M508 -20q-184 0 -281.5 111.5t-97.5 297.5v655h258v-595q0 -119 43 -179.5t139 -60.5q106 0 152.5 60.5t46.5 179.5v595h258v-595q0 -121 42 -180.5t140 -59.5q106 0 152.5 59.5t46.5 180.5v595h258v-1044h-217l-41 115q-94 -135 -279 -135q-203 0 -290 151
q-125 -151 -330 -151z" />
    <glyph glyph-name="uni0449.ss02" horiz-adv-x="1906" 
d="M1751 229h86v-462l-240 -41v274q-63 0 -105 31.5t-50 87.5q-100 -139 -289 -139q-205 0 -301 151q-63 -78 -143 -114.5t-193 -36.5q-188 0 -287.5 113.5t-99.5 301.5v649h258v-587q0 -125 44 -186.5t147 -61.5q111 0 158.5 61.5t47.5 186.5v587h258v-587
q0 -125 44 -186.5t147 -61.5q111 0 159 61.5t48 186.5v587h258v-761q0 -54 53 -54z" />
    <glyph glyph-name="uni044E.ss02" horiz-adv-x="1572" 
d="M1032 1065q240 0 348.5 -130t108.5 -412.5t-108.5 -412.5t-348.5 -130q-215 0 -323.5 105t-126.5 331h-185v-416h-258v1413l258 41v-817h185q20 221 128.5 324.5t321.5 103.5zM1032.5 205q106.5 0 150.5 71.5t44 245.5t-44 246t-150.5 72t-149.5 -72t-43 -246t43 -245.5
t149.5 -71.5z" />
    <glyph glyph-name="Xi.aalt" horiz-adv-x="1206" 
d="M743 250h387l-47 -250h-958l-47 250h387v348h-268v250h268v338h-359l17 248h962l17 -248h-359v-338h267v-250h-267v-348z" />
    <glyph glyph-name="delta.aalt" horiz-adv-x="1093" 
d="M516 1200q258 -119 377 -284.5t119 -428.5q0 -264 -112 -385.5t-353.5 -121.5t-353 121.5t-111.5 385.5q0 244 103.5 370t322.5 136q-172 127 -358 207v234h778l20 -234h-432zM546.5 186q110.5 0 157 69t46.5 232q0 160 -47.5 234t-155.5 72q-109 2 -156 -72t-47 -234
q0 -164 46 -232.5t156.5 -68.5z" />
    <glyph glyph-name="phi.aalt" horiz-adv-x="1554" 
d="M907 1065q291 0 429.5 -131t138.5 -411.5t-138.5 -411.5t-429.5 -131v-369h-258v369q-293 0 -431 131t-138 411.5t138 411.5t431 131v348l258 41v-389zM342 522q0 -170 73.5 -242.5t243.5 -74.5v635q-170 -2 -243.5 -75t-73.5 -243zM897 205q170 2 242.5 74.5t72.5 242.5
t-72.5 243t-242.5 75v-635z" />
    <glyph glyph-name="zero.oldstyle" horiz-adv-x="1243" 
d="M623 -31q-530 0 -531 652q0 649 531 649q528 0 528 -649q0 -652 -528 -652zM623 215q125 0 185 97.5t60 308t-60 307t-185 96.5q-127 0 -187.5 -96.5t-60.5 -306.5q0 -209 61.5 -307.5t186.5 -98.5z" />
    <glyph glyph-name="one.oldstyle" horiz-adv-x="753" 
d="M49 1077l547 193v-1270h-268v915l-279 -90v252z" />
    <glyph glyph-name="two.oldstyle" horiz-adv-x="1110" 
d="M467 250h551v-250h-934v250l405 293q133 96 185.5 164.5t52.5 146.5q0 80 -57.5 127t-175.5 47q-100 0 -206 -30.5t-171 -67.5l16 248q63 35 177 63.5t237 28.5q215 0 337 -101.5t122 -273.5q0 -162 -98.5 -288t-346.5 -294z" />
    <glyph glyph-name="three.oldstyle" horiz-adv-x="1103" 
d="M1016 188q2 -201 -127 -306t-369 -105q-115 0 -217 17.5t-147 35.5l-45 18l-41 246q18 -8 51 -21.5t137 -35t209 -21.5q274 0 270 195q0 100 -52 151.5t-169 51.5h-258v231h238q111 0 158.5 50t47.5 149q0 190 -245 190q-96 0 -185.5 -22.5t-130.5 -44.5l-41 -23l17 248
q16 8 48 21.5t138.5 35t220.5 21.5q221 0 338 -99.5t117 -293.5q0 -246 -178 -332q213 -81 215 -357z" />
    <glyph glyph-name="four.oldstyle" horiz-adv-x="1177" 
d="M1153 305l-41 -235h-154v-265h-262v265h-655v200l494 969h286l-477 -934h352v311h262v-311h195z" />
    <glyph glyph-name="five.oldstyle" horiz-adv-x="1136" 
d="M586 711q205 0 339 -118t134 -339q0 -233 -143.5 -356t-419.5 -123q-111 0 -215.5 21.5t-163.5 47.5l-41 262q70 -35 174 -62.5t207 -27.5q317 0 317 234q0 231 -303 231q-184 0 -356 -59l65 817h838l-39 -244h-555l-25 -309q91 25 187 25z" />
    <glyph glyph-name="six.oldstyle" 
d="M684 928q193 0 317.5 -121t124.5 -350q0 -219 -132 -351.5t-359 -132.5q-266 0 -406.5 169t-140.5 513q0 401 170 603t473 202q63 0 125 -11t92 -22l31 -10l16 -252q-96 57 -239 58q-336 0 -387 -406q122 111 315 111zM635 213q102 0 159.5 63.5t57.5 180.5
q0 113 -58.5 174t-166.5 61q-154 0 -269 -86q17 -393 277 -393z" />
    <glyph glyph-name="seven.oldstyle" horiz-adv-x="1005" 
d="M37 1239h924v-201l-443 -1233h-282l438 1192h-637v242z" />
    <glyph glyph-name="eight.oldstyle" horiz-adv-x="1232" 
d="M868 748q147 -68 214 -153t67 -230q0 -186 -141.5 -291t-389.5 -105q-254 0 -394 101.5t-140 281.5q0 131 77 224.5t199 142.5q-123 61 -180 144t-57 216q0 182 131 283.5t364.5 101.5t362.5 -98t129 -272q0 -121 -66.5 -209t-175.5 -137zM614 1237q-100 0 -160.5 -44
t-60.5 -118q0 -72 43 -116t154 -91l82 -37q162 84 162 230q0 78 -61 127t-159 49zM616 201q109 0 175.5 49t66.5 125q0 78 -44 122t-163 95l-94 39q-184 -82 -184 -242q0 -84 66 -136t177 -52z" />
    <glyph glyph-name="nine.oldstyle" 
d="M551 1270q264 0 404.5 -171t140.5 -515q0 -401 -170 -605t-473 -204q-131 0 -236 35l-37 260q100 -57 248 -58q336 0 387 408q-121 -109 -315 -109q-193 0 -318 121t-125 350q0 219 132.5 353.5t361.5 134.5zM332 782q0 -111 59.5 -173t167.5 -62q152 0 266 86
q-16 397 -274 397q-102 0 -160.5 -65.5t-58.5 -182.5z" />
    <glyph glyph-name="zero.sinf" horiz-adv-x="782" 
d="M391 -221q-164 0 -241.5 97t-77.5 302t77.5 302.5t241.5 97.5t242 -97.5t78 -302.5t-78 -302t-242 -97zM391.5 -47q63.5 0 88 46t24.5 179t-24.5 179t-88 46t-88 -46t-24.5 -179t24.5 -179t88 -46z" />
    <glyph glyph-name="one.sinf" horiz-adv-x="526" 
d="M201 -205v522l-152 -49v191l359 114v-778h-207z" />
    <glyph glyph-name="two.sinf" horiz-adv-x="718" 
d="M348 -35h293v-170h-573v166l254 197q63 49 85.5 83.5t22.5 80.5q0 84 -102 84q-55 0 -116.5 -15.5t-94.5 -30.5l-33 -16l12 174q10 6 30.5 16.5t91.5 27t151 16.5q129 -2 198.5 -65.5t69.5 -176.5q0 -84 -47 -155.5t-154 -149.5z" />
    <glyph glyph-name="three.sinf" horiz-adv-x="722" 
d="M530 195q123 -49 123 -193q0 -223 -309 -223q-74 0 -137.5 12t-89.5 23l-27 12l-31 199q4 -4 33 -20.5t90.5 -36t120.5 -19.5q80 0 113 20.5t33 61.5q0 74 -93 73h-153v154h137q86 0 86 70q0 41 -25.5 60.5t-91.5 19.5q-25 0 -50.5 -3.5t-45.5 -9.5t-39.5 -12t-35 -12
t-27 -12.5t-17.5 -9.5l-6 -3l10 174q10 6 29.5 15.5t85.5 26t137 16.5q131 0 207 -52.5t76 -160.5q-1 -119 -103 -170z" />
    <glyph glyph-name="four.sinf" horiz-adv-x="741" 
d="M420 -205v131h-377v152l274 485h209l-266 -471h160v160h190v-160h97l-31 -166h-66v-131h-190z" />
    <glyph glyph-name="five.sinf" horiz-adv-x="714" 
d="M313 -221q-57 0 -110 10t-80 21l-25 10l-28 198q100 -70 233 -69q141 0 141 98q0 94 -141 94q-57 0 -113.5 -9t-83.5 -17l-26 -9l41 457h504l-29 -170h-315l-11 -127q53 16 123 17q121 0 190.5 -63.5t69.5 -178.5q0 -262 -340 -262z" />
    <glyph glyph-name="six.sinf" horiz-adv-x="749" 
d="M442 293q121 0 185.5 -62.5t64.5 -177.5q0 -131 -81 -202.5t-226 -71.5q-315 0 -315 371q0 207 101 315t267 113q88 2 162 -19l29 -178q-70 33 -154 33q-182 0 -211 -183q65 62 178 62zM389 -51q104 0 105 100q0 98 -109 98q-82 0 -125 -49q6 -82 39 -115.5t90 -33.5z
" />
    <glyph glyph-name="seven.sinf" horiz-adv-x="643" 
d="M45 563h551v-170l-260 -598h-211l256 588h-336v180z" />
    <glyph glyph-name="eight.sinf" horiz-adv-x="757" 
d="M569 209q121 -55 121 -193q0 -109 -86 -173t-225 -64t-225 58.5t-86 158.5q0 123 120 172q-98 55 -98 178q0 106 77 169t212 63t212 -57.5t77 -153.5q-1 -109 -99 -158zM379 412q-98 0 -98 -70q0 -39 35.5 -56.5t115.5 -35.5q45 35 45 84q0 78 -98 78zM379 -55
q51 0 79.5 20.5t28.5 57.5q0 41 -35.5 59t-111.5 35q-12 4 -18 4q-51 -37 -52 -90q0 -86 109 -86z" />
    <glyph glyph-name="nine.sinf" horiz-adv-x="747" 
d="M365 594q313 0 313 -371q0 -207 -100.5 -315.5t-266.5 -112.5q-41 0 -79.5 4t-57.5 11l-18 4l-39 178q74 -33 157 -33q182 0 211 182q-66 -61 -178 -61q-121 0 -185.5 62.5t-64.5 176.5q0 131 81.5 203t226.5 72zM365 225q84 0 124 47q-8 84 -39.5 118t-89.5 34
q-104 0 -104 -100q0 -47 29 -73t80 -26z" />
    <glyph glyph-name="zero.tnum" horiz-adv-x="1269" 
d="M635 -31q-281 0 -403.5 175t-122.5 572.5t122.5 572.5t403.5 175q279 0 401.5 -175t122.5 -572.5t-122.5 -572.5t-401.5 -175zM635 209q143 0 196.5 107.5t53.5 400.5t-53.5 400.5t-196.5 107.5t-197.5 -107.5t-54.5 -400.5t54.5 -400.5t197.5 -107.5z" />
    <glyph glyph-name="one.tnum" horiz-adv-x="1269" 
d="M846 250h338v-250h-1016v250h407v860l-407 -119v248l678 225v-1214z" />
    <glyph glyph-name="two.tnum" horiz-adv-x="1269" 
d="M522 244h561v-244h-923v201l415 415q135 135 180.5 221.5t45.5 182.5q0 92 -57.5 147.5t-176.5 55.5q-100 0 -205.5 -31t-171.5 -68l17 248q170 92 395 92q227 0 352 -113.5t125 -306.5q0 -152 -73.5 -282.5t-282.5 -329.5z" />
    <glyph glyph-name="three.tnum" horiz-adv-x="1269" 
d="M1098 383q2 -201 -127 -306.5t-369 -105.5q-115 0 -217 17.5t-147 36.5l-45 18l-41 246q18 -8 51 -21.5t137 -35t209 -21.5q274 0 270 195q0 100 -52 151t-169 51h-258v232h238q111 0 158.5 50t47.5 148q0 190 -245 191q-96 0 -185.5 -22.5t-130.5 -45.5l-41 -22l17 247
q16 8 48 21.5t138.5 35t220.5 21.5q221 0 338 -99t117 -294q0 -246 -178 -332q213 -80 215 -356z" />
    <glyph glyph-name="four.tnum" horiz-adv-x="1269" 
d="M1198 500l-39 -236h-153v-264h-263v264h-657v201l494 969h286l-477 -934h354v311h263v-311h192z" />
    <glyph glyph-name="five.tnum" horiz-adv-x="1269" 
d="M653 905q205 0 339 -117.5t134 -338.5q0 -233 -143 -356.5t-420 -123.5q-111 0 -215 21.5t-164 48.5l-41 262q70 -35 174.5 -62.5t206.5 -27.5q317 0 318 233q0 231 -303 232q-184 0 -357 -60l66 818h837l-38 -244h-555l-25 -309q90 24 186 24z" />
    <glyph glyph-name="six.tnum" horiz-adv-x="1269" 
d="M727 928q193 0 317.5 -121t124.5 -350q0 -219 -132 -351.5t-359 -132.5q-266 0 -406.5 169t-140.5 513q0 401 170 603t473 202q63 0 125 -11t92 -22l31 -10l16 -252q-96 57 -239 58q-336 0 -387 -406q122 111 315 111zM678 213q102 0 159.5 63.5t57.5 180.5
q0 113 -58.5 174t-166.5 61q-154 0 -269 -86q17 -393 277 -393z" />
    <glyph glyph-name="seven.tnum" horiz-adv-x="1269" 
d="M127 1434h1003v-201l-483 -1233h-282l475 1192h-713v242z" />
    <glyph glyph-name="eight.tnum" horiz-adv-x="1269" 
d="M887 748q147 -68 213.5 -153t66.5 -230q0 -186 -141 -291t-389 -105q-254 0 -394.5 101.5t-140.5 281.5q0 131 77 224.5t200 142.5q-123 61 -180.5 144t-57.5 216q0 182 131 283.5t364.5 101.5t362.5 -98t129 -272q0 -121 -66 -209t-175 -137zM633 1237
q-100 0 -160.5 -44t-60.5 -118q0 -72 43 -116t153 -91l82 -37q162 84 162 230q0 78 -60.5 127t-158.5 49zM635 201q109 0 175.5 49t66.5 125q0 78 -44.5 122t-162.5 95l-95 39q-184 -82 -184 -242q0 -84 66.5 -136t177.5 -52z" />
    <glyph glyph-name="nine.tnum" horiz-adv-x="1269" 
d="M594 1464q264 0 404.5 -171t140.5 -515q0 -401 -170 -605t-473 -204q-131 0 -236 35l-37 260q100 -57 248 -57q336 0 387 407q-121 -109 -315 -108q-193 0 -318 121t-125 350q0 219 132.5 353t361.5 134zM375 977q0 -111 59.5 -173.5t167.5 -62.5q152 0 266 86
q-16 397 -274 398q-102 0 -160.5 -65.5t-58.5 -182.5z" />
    <glyph glyph-name="zero.tnum.oldstyle" horiz-adv-x="1269" 
d="M635 -31q-530 0 -531 652q0 649 531 649q528 0 528 -649q0 -652 -528 -652zM635 215q125 0 185.5 97.5t60.5 308t-60.5 307t-185.5 96.5q-127 0 -187.5 -96.5t-60.5 -306.5q0 -209 61.5 -307.5t186.5 -98.5z" />
    <glyph glyph-name="one.tnum.oldstyle" horiz-adv-x="1269" 
d="M844 250h338v-250h-1016v250h407v665l-407 -118v247l678 226v-1020z" />
    <glyph glyph-name="two.tnum.oldstyle" horiz-adv-x="1269" 
d="M547 250h551v-250h-934v250l405 293q133 96 185.5 164.5t52.5 146.5q0 80 -57.5 127t-176.5 47q-100 0 -205.5 -30.5t-170.5 -67.5l16 248q63 35 177 63.5t237 28.5q215 0 336.5 -101.5t121.5 -273.5q0 -162 -98 -288t-346 -294z" />
    <glyph glyph-name="three.tnum.oldstyle" horiz-adv-x="1269" 
d="M1100 188q2 -201 -127 -306t-369 -105q-115 0 -217 17.5t-147 35.5l-45 18l-41 246q18 -8 51 -21.5t137 -35t209 -21.5q274 0 270 195q0 100 -52 151.5t-169 51.5h-258v231h238q111 0 158.5 50t47.5 149q0 190 -245 190q-96 0 -185.5 -22.5t-130.5 -44.5l-41 -23l17 248
q16 8 48 21.5t138.5 35t220.5 21.5q221 0 338 -99.5t117 -293.5q0 -246 -178 -332q213 -81 215 -357z" />
    <glyph glyph-name="four.tnum.oldstyle" horiz-adv-x="1269" 
d="M1198 500l-39 -236h-153v-264h-263v264h-657v201l494 969h286l-477 -934h354v311h263v-311h192z" />
    <glyph glyph-name="five.tnum.oldstyle" horiz-adv-x="1269" 
d="M651 711q205 0 339 -118t134 -339q0 -233 -143 -356t-420 -123q-111 0 -215 21.5t-164 47.5l-41 262q70 -35 174.5 -62.5t206.5 -27.5q317 0 318 234q0 231 -303 231q-184 0 -357 -59l66 817h837l-39 -244h-555l-24 -309q90 25 186 25z" />
    <glyph glyph-name="six.tnum.oldstyle" horiz-adv-x="1269" 
d="M727 928q193 0 317.5 -121t124.5 -350q0 -219 -132 -351.5t-359 -132.5q-266 0 -406.5 169t-140.5 513q0 401 170 603t473 202q63 0 125 -11t92 -22l31 -10l16 -252q-96 57 -239 58q-336 0 -387 -406q122 111 315 111zM678 213q102 0 159.5 63.5t57.5 180.5
q0 113 -58.5 174t-166.5 61q-154 0 -269 -86q17 -393 277 -393z" />
    <glyph glyph-name="seven.tnum.oldstyle" horiz-adv-x="1269" 
d="M129 1239h1004v-201l-484 -1233h-282l475 1192h-713v242z" />
    <glyph glyph-name="eight.tnum.oldstyle" horiz-adv-x="1269" 
d="M887 748q147 -68 213.5 -153t66.5 -230q0 -186 -141 -291t-389 -105q-254 0 -394.5 101.5t-140.5 281.5q0 131 77 224.5t200 142.5q-123 61 -180.5 144t-57.5 216q0 182 131 283.5t364.5 101.5t362.5 -98t129 -272q0 -121 -66 -209t-175 -137zM633 1237
q-100 0 -160.5 -44t-60.5 -118q0 -72 43 -116t153 -91l82 -37q162 84 162 230q0 78 -60.5 127t-158.5 49zM635 201q109 0 175.5 49t66.5 125q0 78 -44.5 122t-162.5 95l-95 39q-184 -82 -184 -242q0 -84 66.5 -136t177.5 -52z" />
    <glyph glyph-name="nine.tnum.oldstyle" horiz-adv-x="1269" 
d="M594 1270q264 0 404.5 -171t140.5 -515q0 -401 -170 -605t-473 -204q-131 0 -236 35l-37 260q100 -57 248 -58q336 0 387 408q-121 -109 -315 -109q-193 0 -318 121t-125 350q0 219 132.5 353.5t361.5 134.5zM375 782q0 -111 59.5 -173t167.5 -62q152 0 266 86
q-16 397 -274 397q-102 0 -160.5 -65.5t-58.5 -182.5z" />
    <glyph glyph-name="zero.dnom" horiz-adv-x="782" 
d="M391 -14q-164 0 -241.5 97t-77.5 302t77.5 302t241.5 97t242 -97t78 -302t-78 -302t-242 -97zM391.5 160q63.5 0 88 46t24.5 179t-24.5 179t-88 46t-88 -46t-24.5 -179t24.5 -179t88 -46z" />
    <glyph glyph-name="one.dnom" horiz-adv-x="526" 
d="M201 0v522l-152 -49v191l359 114v-778h-207z" />
    <glyph glyph-name="two.dnom" horiz-adv-x="718" 
d="M348 170h293v-170h-573v166l254 196q63 49 85.5 84t22.5 80q0 84 -102 84q-55 0 -116.5 -15t-94.5 -30l-33 -16l12 174q10 6 30.5 16.5t91.5 26.5t151 16q129 -2 198.5 -65.5t69.5 -175.5q0 -84 -47 -156t-154 -149z" />
    <glyph glyph-name="three.dnom" horiz-adv-x="722" 
d="M530 399q123 -49 123 -192q0 -223 -309 -223q-74 0 -137.5 12t-89.5 22l-27 13l-31 198q4 -4 33 -20t90.5 -35.5t120.5 -19.5q80 0 113 20.5t33 61.5q0 74 -93 73h-153v154h137q86 0 86 69q0 41 -25.5 60.5t-91.5 19.5q-25 0 -50.5 -3t-45.5 -9t-39.5 -12t-35 -12.5
t-27 -12.5t-17.5 -9l-6 -3l10 174q10 6 29.5 15.5t85.5 25.5t137 16q131 0 207 -52t76 -161q-1 -119 -103 -170z" />
    <glyph glyph-name="four.dnom" horiz-adv-x="741" 
d="M420 0v131h-377v152l274 485h209l-266 -471h160v160h190v-160h97l-31 -166h-66v-131h-190z" />
    <glyph glyph-name="five.dnom" horiz-adv-x="714" 
d="M313 -16q-57 0 -110 10t-80 20l-25 11l-28 198q100 -70 233 -69q141 0 141 98q0 94 -141 94q-57 0 -113.5 -9t-83.5 -18l-26 -8l41 457h504l-29 -170h-315l-11 -127q53 16 123 16q121 0 190.5 -63.5t69.5 -177.5q0 -262 -340 -262z" />
    <glyph glyph-name="six.dnom" horiz-adv-x="749" 
d="M442 498q121 0 185.5 -62.5t64.5 -177.5q0 -131 -81 -202.5t-226 -71.5q-315 0 -315 370q0 207 101 315.5t267 112.5q88 2 162 -18l29 -178q-70 33 -154 32q-182 0 -211 -182q65 62 178 62zM389 154q104 0 105 100q0 98 -109 98q-82 0 -125 -49q6 -82 39 -115.5t90 -33.5
z" />
    <glyph glyph-name="seven.dnom" horiz-adv-x="643" 
d="M45 768h551v-170l-260 -598h-211l256 588h-336v180z" />
    <glyph glyph-name="eight.dnom" horiz-adv-x="757" 
d="M569 414q121 -55 121 -193q0 -109 -86 -173t-225 -64t-225 58t-86 159q0 123 120 172q-98 55 -98 178q0 106 77 168.5t212 62.5t212 -57t77 -154q-1 -108 -99 -157zM379 616q-98 0 -98 -69q0 -39 35.5 -56.5t115.5 -35.5q45 35 45 84q0 77 -98 77zM379 150q51 0 79.5 20
t28.5 57q0 41 -35.5 59.5t-111.5 35.5q-12 4 -18 4q-51 -37 -52 -90q0 -86 109 -86z" />
    <glyph glyph-name="nine.dnom" horiz-adv-x="747" 
d="M365 782q313 0 313 -370q0 -207 -100.5 -315.5t-266.5 -112.5q-41 0 -79.5 4t-57.5 10l-18 4l-39 178q74 -33 157 -33q182 0 211 183q-66 -61 -178 -62q-121 0 -185.5 62.5t-64.5 177.5q0 131 81.5 202.5t226.5 71.5zM365 414q84 0 124 47q-8 84 -39.5 117.5t-89.5 33.5
q-104 0 -104 -100q0 -47 29 -72.5t80 -25.5z" />
    <glyph glyph-name="zero.numr" horiz-adv-x="782" 
d="M391 651q-164 0 -241.5 97.5t-77.5 302t77.5 302t241.5 97.5t242 -97.5t78 -302t-78 -302t-242 -97.5zM391.5 825q63.5 0 88 46.5t24.5 179.5t-24.5 179t-88 46t-88 -46t-24.5 -179t24.5 -179.5t88 -46.5z" />
    <glyph glyph-name="one.numr" horiz-adv-x="526" 
d="M201 666v522l-152 -49v190l359 115v-778h-207z" />
    <glyph glyph-name="two.numr" horiz-adv-x="718" 
d="M348 836h293v-170h-573v165l254 197q63 49 85.5 84t22.5 80q0 84 -102 84q-55 0 -116.5 -15.5t-94.5 -31.5l-33 -15l12 175q10 6 30.5 16t91.5 26.5t151 16.5q129 -2 198.5 -65.5t69.5 -176.5q0 -84 -47 -155.5t-154 -149.5z" />
    <glyph glyph-name="three.numr" horiz-adv-x="722" 
d="M530 1067q123 -49 123 -193q0 -223 -309 -223q-74 0 -137.5 12.5t-89.5 22.5l-27 12l-31 199q4 -4 33 -20.5t90.5 -36t120.5 -19.5q80 0 113 20.5t33 61.5q0 74 -93 74h-153v153h137q86 0 86 70q0 41 -25.5 60.5t-91.5 19.5q-25 0 -50.5 -3t-45.5 -9t-39.5 -12.5
t-35 -12.5t-27 -12t-17.5 -9l-6 -3l10 174q10 6 29.5 15t85.5 25.5t137 16.5q131 0 207 -52t76 -161q-1 -119 -103 -170z" />
    <glyph glyph-name="four.numr" horiz-adv-x="741" 
d="M420 666v131h-377v151l274 486h209l-266 -471h160v159h190v-159h97l-31 -166h-66v-131h-190z" />
    <glyph glyph-name="five.numr" horiz-adv-x="714" 
d="M313 649q-57 0 -110 10.5t-80 20.5l-25 10l-28 199q100 -70 233 -70q141 0 141 99q0 94 -141 94q-57 0 -113.5 -8.5t-83.5 -16.5l-26 -10l41 457h504l-29 -170h-315l-11 -127q53 16 123 16q121 0 190.5 -63.5t69.5 -178.5q0 -262 -340 -262z" />
    <glyph glyph-name="six.numr" horiz-adv-x="749" 
d="M442 1163q121 0 185.5 -62.5t64.5 -176.5q0 -131 -81 -203t-226 -72q-315 0 -315 371q0 207 101 315.5t267 112.5q88 2 162 -18l29 -179q-70 33 -154 33q-182 0 -211 -182q65 61 178 61zM389 819q104 0 105 101q0 98 -109 98q-82 0 -125 -49q6 -82 39 -116t90 -34z" />
    <glyph glyph-name="seven.numr" horiz-adv-x="643" 
d="M45 1434h551v-170l-260 -598h-211l256 587h-336v181z" />
    <glyph glyph-name="eight.numr" horiz-adv-x="757" 
d="M569 1081q121 -55 121 -192q0 -109 -86 -173.5t-225 -64.5t-225 58.5t-86 158.5q0 123 120 172q-98 55 -98 179q0 106 77 168.5t212 62.5t212 -57.5t77 -153.5q-1 -109 -99 -158zM379 1284q-98 0 -98 -70q0 -39 35.5 -56t115.5 -36q45 35 45 84q0 78 -98 78zM379 817
q51 0 79.5 20.5t28.5 57.5q0 41 -35.5 59.5t-111.5 34.5q-12 4 -18 4q-51 -37 -52 -90q0 -86 109 -86z" />
    <glyph glyph-name="nine.numr" horiz-adv-x="747" 
d="M365 1464q313 0 313 -370q0 -207 -100.5 -315.5t-266.5 -112.5q-41 0 -79.5 4t-57.5 10l-18 4l-39 178q74 -33 157 -33q182 0 211 183q-66 -61 -178 -62q-121 0 -185.5 62.5t-64.5 177.5q0 131 81.5 202.5t226.5 71.5zM365 1096q84 0 124 47q-8 84 -39.5 117.5
t-89.5 33.5q-104 0 -104 -100q0 -47 29 -72.5t80 -25.5z" />
    <glyph glyph-name="zero.superior" horiz-adv-x="782" 
d="M391 856q-164 0 -241.5 97.5t-77.5 302t77.5 302t241.5 97.5t242 -97.5t78 -302t-78 -302t-242 -97.5zM391.5 1030q63.5 0 88 46t24.5 179.5t-24.5 179.5t-88 46t-88 -46t-24.5 -179.5t24.5 -179.5t88 -46z" />
    <glyph glyph-name="one.superior" horiz-adv-x="526" 
d="M201 870v523l-152 -50v191l359 115v-779h-207z" />
    <glyph glyph-name="two.superior" horiz-adv-x="718" 
d="M348 1040h293v-170h-573v166l254 197q63 49 85.5 84t22.5 80q0 84 -102 84q-55 0 -116.5 -15.5t-94.5 -31.5l-33 -15l12 174q10 6 30.5 16.5t91.5 27t151 16.5q129 -2 198.5 -65.5t69.5 -176.5q0 -84 -47 -155.5t-154 -149.5z" />
    <glyph glyph-name="three.superior" horiz-adv-x="722" 
d="M530 1272q123 -49 123 -193q0 -223 -309 -223q-74 0 -137.5 12.5t-89.5 22.5l-27 12l-31 199q4 -4 33 -20.5t90.5 -36t120.5 -19.5q80 0 113 20.5t33 61.5q0 74 -93 74h-153v153h137q86 0 86 70q0 41 -25.5 60.5t-91.5 19.5q-25 0 -50.5 -3t-45.5 -9.5t-39.5 -12.5
t-35 -12t-27 -12t-17.5 -10l-6 -3l10 174q10 6 29.5 15.5t85.5 26t137 16.5q131 0 207 -52.5t76 -160.5q-1 -119 -103 -170z" />
    <glyph glyph-name="four.superior" horiz-adv-x="741" 
d="M420 870v131h-377v152l274 485h209l-266 -471h160v160h190v-160h97l-31 -166h-66v-131h-190z" />
    <glyph glyph-name="five.superior" horiz-adv-x="714" 
d="M313 854q-57 0 -110 10t-80 21l-25 10l-28 199q100 -70 233 -70q141 0 141 98q0 94 -141 95q-57 0 -113.5 -8.5t-83.5 -16.5l-26 -10l41 456h504l-29 -170h-315l-11 -127q53 16 123 17q121 0 190.5 -63.5t69.5 -178.5q0 -262 -340 -262z" />
    <glyph glyph-name="six.superior" horiz-adv-x="749" 
d="M442 1368q121 0 185.5 -62.5t64.5 -177.5q0 -131 -81 -202.5t-226 -71.5q-315 0 -315 371q0 207 101 315.5t267 112.5q88 2 162 -19l29 -178q-70 33 -154 33q-182 0 -211 -182q65 61 178 61zM389 1024q104 0 105 100q0 98 -109 99q-82 0 -125 -49q6 -82 39 -116t90 -34z
" />
    <glyph glyph-name="seven.superior" horiz-adv-x="643" 
d="M45 1638h551v-170l-260 -598h-211l256 588h-336v180z" />
    <glyph glyph-name="eight.superior" horiz-adv-x="757" 
d="M569 1286q121 -55 121 -192q0 -109 -86 -173.5t-225 -64.5t-225 58.5t-86 158.5q0 123 120 172q-98 55 -98 178q0 106 77 169t212 63t212 -57.5t77 -153.5q-1 -109 -99 -158zM379 1489q-98 0 -98 -70q0 -39 35.5 -56t115.5 -36q45 35 45 84q0 78 -98 78zM379 1022
q51 0 79.5 20.5t28.5 57.5q0 41 -35.5 59.5t-111.5 34.5q-12 4 -18 4q-51 -37 -52 -90q0 -86 109 -86z" />
    <glyph glyph-name="nine.superior" horiz-adv-x="747" 
d="M365 1669q313 0 313 -371q0 -207 -100.5 -315.5t-266.5 -112.5q-41 0 -79.5 4.5t-57.5 10.5l-18 4l-39 178q74 -33 157 -33q182 0 211 183q-66 -61 -178 -62q-121 0 -185.5 62.5t-64.5 177.5q0 131 81.5 202.5t226.5 71.5zM365 1300q84 0 124 48q-8 84 -39.5 117.5
t-89.5 33.5q-104 0 -104 -100q0 -47 29 -73t80 -26z" />
    <glyph glyph-name="parenleft.aalt" horiz-adv-x="657" 
d="M430 -225q-14 14 -37.5 40.5t-84 120t-107.5 194.5t-85 261t-38 326t36 323.5t88 265t104 190.5t87 122l37 41l219 -41q-12 -14 -34.5 -39t-78 -113t-97.5 -185t-76.5 -250.5t-34.5 -313.5t32.5 -312.5t79.5 -254t95.5 -181.5t80.5 -116l33 -37z" />
    <glyph glyph-name="parenright.aalt" horiz-adv-x="657" 
d="M227 -225l-219 41q12 14 35 38.5t78 112.5t97 185.5t77 251t35 313.5t-33 312.5t-81 253.5t-95 181t-80 117l-33 37l219 41q14 -14 38 -41t84.5 -120t107.5 -194.5t85 -261t38 -325.5t-36 -323.5t-88.5 -265.5t-104.5 -190.5t-89 -121.5z" />
    <glyph glyph-name="braceleft.aalt" horiz-adv-x="720" 
d="M457 971q0 -205 -168 -254q168 -47 168 -252v-330q0 -78 31.5 -111.5t105.5 -33.5h72v-205h-72q-193 0 -283 84t-90 266v340q0 74 -28.5 104.5t-96.5 30.5h-51v215h51q68 0 96.5 31t28.5 105v337q0 182 90 266.5t283 84.5h72v-205h-72q-74 0 -105.5 -34t-31.5 -112v-327z
" />
    <glyph glyph-name="braceright.aalt" horiz-adv-x="720" 
d="M625 825h51v-215h-51q-68 0 -96.5 -30.5t-28.5 -104.5v-340q0 -182 -90.5 -266t-282.5 -84h-72v205h72q74 0 105.5 33.5t31.5 111.5v330q0 205 168 252q-168 49 -168 254v327q0 78 -31.5 112t-105.5 34h-72v205h72q193 0 283 -84t90 -267v-337q0 -74 28.5 -105t96.5 -31z
" />
    <glyph glyph-name="bracketleft.aalt" horiz-adv-x="698" 
d="M160 -215v1864h483v-207h-248v-1450h248v-207h-483z" />
    <glyph glyph-name="bracketright.aalt" horiz-adv-x="698" 
d="M539 -215h-484v207h248v1450h-248v207h484v-1864z" />
    <glyph glyph-name="hyphen.aalt" horiz-adv-x="778" 
d="M119 606v221h540v-221h-540z" />
    <glyph glyph-name="endash.aalt" horiz-adv-x="1146" 
d="M119 606v221h909v-221h-909z" />
    <glyph glyph-name="emdash.aalt" horiz-adv-x="1740" 
d="M119 606v221h1503v-221h-1503z" />
    <glyph glyph-name="guillemotleft.aalt" horiz-adv-x="1085" 
d="M307 324l-244 393l244 393h242l-203 -393l203 -393h-242zM756 324l-244 393l244 393h241l-202 -393l202 -393h-241z" />
    <glyph glyph-name="guillemotright.aalt" horiz-adv-x="1085" 
d="M330 324h-242l203 393l-203 393h242l243 -393zM778 324h-241l202 393l-202 393h241l244 -393z" />
    <glyph glyph-name="guilsinglleft.aalt" horiz-adv-x="636" 
d="M307 324l-244 393l244 393h242l-203 -393l203 -393h-242z" />
    <glyph glyph-name="guilsinglright.aalt" horiz-adv-x="636" 
d="M330 324h-242l203 393l-203 393h242l243 -393z" />
    <glyph glyph-name="cent.aalt" horiz-adv-x="1269" 
d="M1034 270l-41 -237q-57 -33 -174 -47v-191h-221v195q-358 61 -358 532t358 533v174h221v-170q115 -14 172 -47l15 -228q-125 55 -263 56q-127 0 -184 -74t-57 -244t57 -243.5t182 -73.5q152 -1 293 65z" />
    <glyph glyph-name="currency.aalt" horiz-adv-x="1269" 
d="M1065 524q0 -119 -57 -217l157 -160l-157 -155l-162 160q-96 -51 -211 -52q-117 0 -213 52l-160 -160l-160 155l158 158q-57 98 -57 219q0 119 55 217l-158 156l160 158l158 -158q98 51 217 51q117 0 215 -53l160 160l157 -158l-157 -158q55 -96 55 -215zM436 524
q0 -88 55.5 -145t143.5 -57q86 0 141 57t55 145t-55 145.5t-141 57.5q-88 0 -143.5 -56.5t-55.5 -146.5z" />
    <glyph glyph-name="dollar.aalt" horiz-adv-x="1269" 
d="M1143 403q0 -178 -108.5 -291.5t-311.5 -136.5v-180h-221v180q-82 6 -160 23.5t-113 30.5l-36 12l-39 266q223 -92 456 -92q121 0 185.5 48t64.5 134q0 72 -49 115t-166 74l-164 43q-334 90 -334 420q0 160 92.5 267t262.5 138v172h221v-162q90 -6 172 -21.5t119 -27.5
l37 -12l14 -258q-174 76 -408 76q-109 0 -169 -44t-60 -120q0 -72 46 -116t155 -73l172 -45q166 -43 254 -143.5t88 -276.5z" />
    <glyph glyph-name="Euro.aalt" horiz-adv-x="1269" 
d="M858 215q90 0 185.5 27.5t156.5 62.5l-39 -266q-51 -27 -140 -48.5t-181 -21.5q-244 0 -386.5 121t-185.5 371h-200v205h180v51q0 35 2 67h-184v205h204q47 242 188.5 358.5t381.5 116.5q90 0 177 -22.5t140 -48.5l14 -254q-53 31 -140 55.5t-173 24.5
q-121 0 -193.5 -54.5t-105.5 -175.5h412l-31 -205h-408q-2 -33 -2 -67v-51h388l-31 -205h-332q31 -129 104.5 -187.5t198.5 -58.5z" />
    <glyph glyph-name="florin.aalt" horiz-adv-x="796" 
d="M748 1454q111 0 172 -33l-2 -237q-57 43 -144 43q-80 0 -129 -51.5t-72 -174.5l-14 -81h215l-37 -213h-215l-123 -705q-68 -412 -426 -412q-109 0 -170 33l2 238q57 -43 142 -43q82 0 130 50t70 175l115 664h-213l37 213h215l21 122q68 412 426 412z" />
    <glyph glyph-name="uni20BD.aalt" horiz-adv-x="1269" 
d="M274 0v223h-174v217h174v119h-174v217h174v658h431q250 0 376.5 -117t126.5 -332q0 -205 -127 -315.5t-376 -110.5h-160v-119h424v-217h-424v-223h-271zM545 776h160q229 0 229 205q0 100 -58.5 154.5t-170.5 54.5h-160v-414z" />
    <glyph glyph-name="sterling.aalt" horiz-adv-x="1269" 
d="M510 244h666v-244h-1067v244q180 0 180 170v196h-180v221h180v150q0 233 126 358t357 125q90 0 178 -17t131 -36l43 -18l17 -254q-160 80 -346 80q-123 0 -177.5 -56.5t-54.5 -179.5v-152h387v-221h-387v-196q0 -111 -53 -170z" />
    <glyph glyph-name="yen.aalt" horiz-adv-x="1269" 
d="M1229 1434l-404 -711h228v-205h-283v-119h283v-204h-283v-195h-270v195h-283v204h283v119h-283v205h227l-405 711h309l291 -564l291 564h299z" />
    <glyph glyph-name="plus.aalt" horiz-adv-x="1269" 
d="M1130 817v-221h-385v-385h-221v385h-385v221h385v385h221v-385h385z" />
    <glyph glyph-name="minus.aalt" horiz-adv-x="1269" 
d="M139 596v221h991v-221h-991z" />
    <glyph glyph-name="multiply.aalt" horiz-adv-x="1269" 
d="M1094 1012l-306 -305l306 -306l-154 -153l-305 305l-305 -305l-154 153l305 306l-305 305l154 153l305 -305l305 305z" />
    <glyph glyph-name="divide.aalt" horiz-adv-x="1269" 
d="M514 993v234h242v-234h-242zM139 596v221h991v-221h-991zM514 186v234h242v-234h-242z" />
    <glyph glyph-name="equal.aalt" horiz-adv-x="1269" 
d="M139 821v221h991v-221h-991zM139 371v221h991v-221h-991z" />
    <glyph glyph-name="notequal.aalt" horiz-adv-x="1269" 
d="M1130 821h-350l-110 -229h460v-221h-569l-82 -166h-180l82 166h-242v221h350l111 229h-461v221h570l82 166h180l-82 -166h241v-221z" />
    <glyph glyph-name="greater.aalt" horiz-adv-x="1269" 
d="M236 1202l831 -362v-246l-831 -363v248l548 238l-548 237v248z" />
    <glyph glyph-name="less.aalt" horiz-adv-x="1269" 
d="M1034 1202v-248l-549 -237l549 -238v-248l-831 363v246z" />
    <glyph glyph-name="greaterequal.aalt" horiz-adv-x="1269" 
d="M223 1245l832 -282v-222l-832 -282v225l502 168l-502 168v225zM223 156v223h832v-223h-832z" />
    <glyph glyph-name="lessequal.aalt" horiz-adv-x="1269" 
d="M1047 1245v-225l-502 -168l502 -168v-225l-832 282v222zM215 156v223h832v-223h-832z" />
    <glyph glyph-name="plusminus.aalt" horiz-adv-x="1269" 
d="M745 977h385v-221h-385v-256h-221v256h-385v221h385v276h221v-276zM139 158v221h991v-221h-991z" />
    <glyph glyph-name="approxequal.aalt" horiz-adv-x="1269" 
d="M897 741q-100 0 -266 70t-197 70q-45 0 -64.5 -30t-19.5 -99h-215q-2 356 250 356q109 0 268.5 -69.5t196.5 -69.5q84 0 84 131h215q0 -359 -252 -359zM897 303q-100 0 -266 69.5t-197 69.5q-45 0 -64.5 -29.5t-19.5 -99.5h-215q-2 356 250 357q109 0 268.5 -70
t196.5 -70q84 0 84 132h215q0 -359 -252 -359z" />
    <glyph glyph-name="asciitilde.aalt" horiz-adv-x="1269" 
d="M899 524q-100 0 -266 70t-197 70q-45 0 -64.5 -30t-19.5 -99h-215q-2 356 250 356q109 0 268.5 -69.5t196.5 -69.5q84 0 84 131h215q0 -359 -252 -359z" />
    <glyph glyph-name="logicalnot.aalt" horiz-adv-x="1269" 
d="M1124 819v-608h-221v385h-770v223h991z" />
    <glyph glyph-name="uni0308.aalt" horiz-adv-x="0" 
d="M-684 1577v244h238v-244h-238zM-279 1577v244h238v-244h-238z" />
    <glyph glyph-name="uni0307.aalt" horiz-adv-x="0" 
d="M-299 1575v244h258v-244h-258z" />
    <glyph glyph-name="gravecomb.aalt" horiz-adv-x="0" 
d="M-225 1556l-316 302h293l207 -261z" />
    <glyph glyph-name="acutecomb.aalt" horiz-adv-x="0" 
d="M-315 1556l-185 41l207 261h293z" />
    <glyph glyph-name="uni030B.aalt" horiz-adv-x="0" 
d="M-641 1556l-150 41l183 261h239zM-313 1556l-150 41l180 261h242z" />
    <glyph glyph-name="uni0302.aalt" horiz-adv-x="0" 
d="M-580 1556l-170 41l228 261h254l227 -261l-170 -41l-184 144z" />
    <glyph glyph-name="uni030C.aalt" horiz-adv-x="0" 
d="M-580 1858l185 -144l184 144l170 -41l-227 -261h-254l-228 261z" />
    <glyph glyph-name="uni0306.aalt" horiz-adv-x="0" 
d="M-362 1546q-154 0 -236 79t-90 210l207 41q6 -168 119 -168q111 0 116 168l207 -41q-8 -131 -89.5 -210t-233.5 -79z" />
    <glyph glyph-name="uni030A.aalt" horiz-adv-x="0" 
d="M-287 1546q-109 0 -178.5 64.5t-69.5 171.5q0 109 70 173t178 64q106 0 176 -64.5t70 -172.5q0 -106 -70 -171t-176 -65zM-287 1677q47 0 75 29t28 76q0 49 -28 77.5t-75 28.5q-49 0 -76.5 -28.5t-27.5 -77.5q0 -47 27.5 -76t76.5 -29z" />
    <glyph glyph-name="tildecomb.aalt" horiz-adv-x="0" 
d="M-629 1567l-131 96q82 106 136.5 143t117.5 37q51 0 120 -49t93.5 -49t47 18.5t73.5 79.5l131 -94q-80 -106 -134 -144t-118 -38q-51 0 -119.5 50t-93.5 50q-27 0 -50.5 -18.5t-72.5 -81.5z" />
    <glyph glyph-name="uni0304.aalt" horiz-adv-x="0" 
d="M-653 1626v162h612v-162h-612z" />
    <glyph glyph-name="glyph755" horiz-adv-x="0" 
d="M-659 1577v244h227v-244h-227zM-291 1577v244h230v-244h-230z" />
    <glyph glyph-name="glyph756" horiz-adv-x="0" 
d="M-547 1556l-160 41l201 261h230l200 -261l-160 -41l-155 148z" />
    <glyph glyph-name="glyph757" horiz-adv-x="0" 
d="M-362 1546q-147 0 -225.5 78t-90.5 211l207 41q6 -168 109 -168q100 0 106 168l207 -41q-12 -133 -90 -211t-223 -78z" />
    <glyph glyph-name="glyph758" horiz-adv-x="0" 
d="M-606 1567l-129 96q74 104 125 142t108 38q47 0 110.5 -49t88 -49t45 19.5t57.5 78.5l129 -94q-74 -106 -123 -144t-108 -38q-47 0 -110.5 50t-88 50t-45 -19.5t-59.5 -80.5z" />
    <glyph glyph-name="glyph759" horiz-adv-x="0" 
d="M-612 1626v162h530v-162h-530z" />
    <glyph glyph-name="glyph760" horiz-adv-x="0" 
d="M-659 1188v244h227v-244h-227zM-291 1188v244h230v-244h-230z" />
    <glyph glyph-name="glyph761" horiz-adv-x="0" 
d="M-547 1167l-160 41l201 260h230l200 -260l-160 -41l-155 148z" />
    <glyph glyph-name="glyph762" horiz-adv-x="0" 
d="M-365 1157q-147 0 -225 78t-90 211l207 41q6 -168 108 -168q100 0 107 168l207 -41q-12 -133 -90.5 -211t-223.5 -78z" />
    <glyph glyph-name="glyph763" horiz-adv-x="0" 
d="M-606 1178l-129 96q74 104 125 142t108 38q47 0 110.5 -49t88 -49t45 19.5t57.5 78.5l129 -94q-74 -106 -123 -144t-108 -38q-47 0 -110.5 50t-88 50t-45 -19.5t-59.5 -80.5z" />
    <glyph glyph-name="glyph764" horiz-adv-x="0" 
d="M-612 1237v162h530v-162h-530z" />
    <glyph glyph-name="tonos.aalt" horiz-adv-x="583" 
d="M188 1133l-184 41l207 260h293z" />
    <glyph glyph-name="glyph766" horiz-adv-x="731" 
d="M367 1546q-154 0 -236 79t-90 210l207 41q6 -168 119 -168q111 0 116 168l207 -41q-8 -131 -89.5 -210t-233.5 -79z" />
    <glyph glyph-name="glyph767" horiz-adv-x="731" 
d="M367 1157q-154 0 -236 79t-90 210l207 41q6 -168 119 -168q111 0 116 168l207 -41q-8 -131 -89.5 -210t-233.5 -79z" />
    </font>
</defs>
</svg>
